<svg width="40" height="88" viewBox="0 0 40 88" fill="none" xmlns="http://www.w3.org/2000/svg">
<path fill-rule="evenodd" clip-rule="evenodd" d="M18.5585 85.9712C19.1992 87.081 20.801 87.081 21.4417 85.9712L38.9893 55.5779C39.6301 54.4681 38.8292 53.0809 37.5477 53.0809H25.8451L25.8451 1.66465C25.8451 0.74529 25.0998 0 24.1805 0L12.765 0C11.8457 0 11.1004 0.745288 11.1004 1.66465L11.1004 53.0809H2.45248C1.17104 53.0809 0.370133 54.4681 1.01086 55.5779L18.5585 85.9712Z" fill="#0A0A0A"/>
<path d="M15.1229 3.24414C16.5384 3.24414 20.8242 3.24414 22.7901 3.24414L15.7127 7.07777L22.4952 7.66755L16.3025 10.3216L23.085 11.2063L14.2382 15.0399L23.085 16.5144L13.6484 21.8225L23.085 23.2969L13.6484 28.8999L22.4952 30.9642C19.2514 31.9472 12.9407 33.9721 13.6484 34.208C14.3562 34.444 19.0548 37.157 22.4952 38.3366L13.9433 43.3498L22.2004 49.8374L13.9433 53.6711L34.291 58.3894L6.27606 58.6843L27.8033 66.0566L12.1739 66.6464L23.3799 72.2494L16.5974 75.7881L21.6106 78.1473L19.8412 81.3911" stroke="#74B8F6" stroke-width="1.8866" stroke-linejoin="round"/>
</svg>
