<svg width="32" height="33" viewBox="0 0 32 33" fill="none" xmlns="http://www.w3.org/2000/svg">
<path fill-rule="evenodd" clip-rule="evenodd" d="M21.4786 20.172L28.2932 26.9865C28.5327 27.2262 28.6672 27.5513 28.6671 27.8901C28.667 28.229 28.5323 28.5539 28.2926 28.7934C28.0529 29.0329 27.7278 29.1674 27.389 29.1673C27.0501 29.1672 26.7252 29.0325 26.4857 28.7928L19.6711 21.9782C17.634 23.5561 15.0723 24.2986 12.5072 24.0547C9.94201 23.8108 7.56611 22.5989 5.86279 20.6655C4.15946 18.7321 3.25667 16.2224 3.33807 13.6469C3.41947 11.0715 4.47894 8.62381 6.30095 6.8018C8.12296 4.97979 10.5706 3.92032 13.1461 3.83892C15.7215 3.75753 18.2312 4.66032 20.1646 6.36364C22.0981 8.06696 23.31 10.4429 23.5539 13.008C23.7977 15.5732 23.0552 18.1349 21.4774 20.172H21.4786ZM13.4671 21.5666C15.4827 21.5666 17.4158 20.7659 18.841 19.3406C20.2663 17.9154 21.067 15.9823 21.067 13.9667C21.067 11.9511 20.2663 10.018 18.841 8.59278C17.4158 7.16753 15.4827 6.36683 13.4671 6.36683C11.4515 6.36683 9.51844 7.16753 8.09319 8.59278C6.66794 10.018 5.86724 11.9511 5.86724 13.9667C5.86724 15.9823 6.66794 17.9154 8.09319 19.3406C9.51844 20.7659 11.4515 21.5666 13.4671 21.5666Z" fill="#5F5F5F"/>
</svg>
