<svg width="40" height="40" viewBox="0 0 40 40" fill="none" xmlns="http://www.w3.org/2000/svg">
<mask id="mask0_191_8883" style="mask-type:alpha" maskUnits="userSpaceOnUse" x="0" y="0" width="40" height="40">
<rect width="40" height="40" fill="#D9D9D9"/>
</mask>
<g mask="url(#mask0_191_8883)">
<circle cx="19.5" cy="17.5" r="6.5" stroke="#0A0A0A" stroke-width="2"/>
<path d="M36.8743 38.0972L25.8048 27.0555C24.9993 27.6652 24.0529 28.1464 22.9657 28.4989C21.8785 28.8515 20.6998 29.0278 19.4298 29.0278C16.2046 29.0278 13.47 27.9051 11.2262 25.6597C8.9823 23.4143 7.86035 20.6991 7.86035 17.5139C7.86035 14.3287 8.98305 11.6134 11.2284 9.36808C13.4738 7.12269 16.1937 6 19.3881 6C22.5826 6 25.2979 7.12269 27.534 9.36808C29.7701 11.6134 30.8881 14.3301 30.8881 17.5181C30.8881 18.7746 30.7168 19.9329 30.3742 20.9931C30.0316 22.0532 29.5363 23.0278 28.8881 23.9167L39.9993 34.9861L36.8743 38.0972ZM19.4119 24.6667C21.4099 24.6667 23.0953 23.9723 24.468 22.5834C25.8407 21.1945 26.5271 19.5046 26.5271 17.5139C26.5271 15.5232 25.8394 13.8333 24.4639 12.4445C23.0885 11.0555 21.4045 10.3611 19.4119 10.3611C17.4038 10.3611 15.7034 11.0555 14.3106 12.4445C12.9179 13.8333 12.2215 15.5232 12.2215 17.5139C12.2215 19.5046 12.9165 21.1945 14.3065 22.5834C15.6965 23.9723 17.3983 24.6667 19.4119 24.6667Z" fill="#0A0A0A"/>
<path d="M13.849 10.7727C12.7628 10.827 12.4093 11.5916 11.802 12.3724C11.241 13.0936 11.5151 14.2705 11.042 15.0139C10.8631 15.295 10.7787 16.1741 10.7601 16.5094C10.7378 16.9112 10.7601 17.3207 10.7601 17.7229C10.7601 18.5115 10.5377 19.7043 10.8152 20.4257C11.0037 20.9156 11.1219 21.4618 11.4159 21.9028C11.9074 22.6401 12.4615 23.1977 13.1381 23.8518C13.7701 24.4628 14.6176 24.7797 15.2342 25.3963C15.8687 26.0308 16.7726 25.9916 17.5631 26.2666C18.386 26.5528 19.2925 26.3724 20.125 26.6037C20.5483 26.7212 21.2386 26.7688 21.645 26.6098C22.8458 26.1399 23.8709 25.4405 24.7952 24.5872C25.0635 24.3396 25.3953 24.1004 25.7023 23.8763C26.0814 23.5997 26.102 23.747 26.5 23.5C27 23 27.3411 22.7383 27.5 22.5C28 22 28.0803 21.8456 28.0803 21.388C28.0803 20.5955 28.3074 19.7505 28.4113 18.9609C28.5445 17.9486 28.6319 16.8926 28.6319 15.872C28.6319 15.1994 28.291 14.6237 28 14C27.56 13.057 26.8229 11.5496 25.7997 11.0949C25.0109 10.7443 24.8775 9.7507 24.0475 9.44887C23.4258 9.22281 22.8649 8.9097 22.215 8.74405C21.7756 8.63206 21.3155 8.56741 20.885 8.43148C20.2606 8.23429 19.727 8.23535 19.0831 8.23535C18.5974 8.23535 18.2579 8.43889 17.796 8.45599C16.5566 8.5019 15.4652 8.88198 14.4006 9.47339C13.5741 9.93259 13.264 10.3214 12.9665 11.214" stroke="#79EC84" stroke-width="2" stroke-linecap="round"/>
</g>
</svg>
