<svg width="716" height="149" viewBox="0 0 716 149" fill="none" xmlns="http://www.w3.org/2000/svg">
<mask id="mask0_191_7453" style="mask-type:alpha" maskUnits="userSpaceOnUse" x="577" y="1" width="138" height="145">
<path d="M665.605 145.537L621.58 87.4907H616.112V145.537H577.134V1.96387H616.112V56.0841H621.159L662.38 1.96387H711.453L656.772 70.9462L714.538 145.537H665.605Z" fill="black"/>
</mask>
<g mask="url(#mask0_191_7453)">
<rect x="566.749" y="-7.05273" width="160.415" height="160.415" fill="#0A0A0A"/>
<path d="M582.056 19.9495C585.39 17.8275 588.849 15.9456 592.28 13.9854" stroke="#79EC84" stroke-width="5.4776" stroke-linecap="round"/>
<path d="M583.76 38.6915C585.698 31.3274 590.716 27.3389 597.865 26.006C602.141 25.2088 606.681 23.7812 611.024 23.7812C615.057 23.7812 618.533 24.9861 622.526 25.4853" stroke="#E9E9E9" stroke-width="5.4776" stroke-linecap="round"/>
<path d="M588.025 70.2169C588.025 66.8439 587.815 63.0345 589.398 59.9454C591.305 56.2228 594.759 52.6501 597.705 49.7449C600.357 47.1287 603.79 43.8972 607.479 42.8341C610.906 41.8468 614.577 41.8921 617.987 40.7278C620.633 39.8244 624.903 36.8962 627.644 38.2664" stroke="#79EC84" stroke-width="5.4776" stroke-linecap="round"/>
<path d="M591.004 97.0544C594.317 88.3199 601.005 80.1513 608.896 75.2334C613.911 72.1081 618.593 68.5181 623.712 65.4352C626.561 63.719 628.656 63.4873 631.475 62.5479" stroke="#E9E9E9" stroke-width="5.4776" stroke-linecap="round"/>
<path d="M585.035 120.06C592.68 114.261 598.203 105.928 606.43 100.795C610.499 98.2569 615.656 96.6153 620.181 95.1387C625.386 93.4401 630.931 91.5812 635.635 88.7249C637.605 87.5292 640.657 88.1096 642.972 88.1096" stroke="#79EC84" stroke-width="5.4776" stroke-linecap="round"/>
<path d="M586.747 134.119C602.187 124.647 617.365 115.619 633.892 108.227C640.144 105.43 646.577 102.103 653.465 101.292C656.313 100.957 658.425 100.038 661.298 100.038" stroke="#79EC84" stroke-width="5.4776" stroke-linecap="round"/>
<path d="M648.943 131.134C655.372 127.208 661.852 123.385 668.327 119.537C672.458 117.082 676.329 114.129 680.539 111.821C684.328 109.744 688.184 108.493 692.396 107.703" stroke="#E9E9E9" stroke-width="5.4776" stroke-linecap="round"/>
<path d="M666.833 135.822C679.576 130.806 692.17 125.473 704.748 120.06" stroke="#79EC84" stroke-width="5.4776" stroke-linecap="round"/>
<path d="M676.301 38.1821C679.517 30.9446 685.548 25.5648 688.513 18.1124C691.287 11.1403 693.03 3.82187 695.897 -3.14062" stroke="#E9E9E9" stroke-width="5.4776" stroke-linecap="round"/>
<path d="M652.825 93.2612C655.958 84.9507 659.873 76.8711 663.617 68.8368C668.724 57.8803 673.736 46.7467 679.806 36.2709C682.208 32.1248 685.012 28.1708 687.758 24.248" stroke="#79EC84" stroke-width="5.4776" stroke-linecap="round"/>
<path d="M658.3 51.7024C656.66 46.337 656.664 39.6061 656.785 34.0468C656.956 26.1779 659.888 19.7106 662.56 12.5098" stroke="#E9E9E9" stroke-width="5.4776" stroke-linecap="round"/>
<path d="M648.913 63.5526C660.398 45.8609 669.897 27.5258 679.16 8.59766" stroke="#79EC84" stroke-width="5.4776" stroke-linecap="round"/>
<path d="M668.109 77.0323C667.167 70.1765 665.894 63.399 664.701 56.584" stroke="#79EC84" stroke-width="5.4776" stroke-linecap="round"/>
<path d="M614.434 31.4502V71.0689" stroke="#79EC84" stroke-width="5.4776" stroke-linecap="round"/>
<path d="M605.913 84.2769C609.516 76.4807 613.386 68.8565 617.415 61.2725" stroke="#79EC84" stroke-width="5.4776" stroke-linecap="round"/>
<path d="M582.911 91.5165C585.206 79.5945 586.051 64.6361 594.413 54.8799" stroke="#79EC84" stroke-width="5.4776" stroke-linecap="round"/>
<path d="M616.138 71.9203C615.769 67.327 615.085 62.8446 614.434 58.2881" stroke="#79EC84" stroke-width="5.4776" stroke-linecap="round"/>
<path d="M640.309 63.5186C642.346 65.6816 645.099 67.8917 646.737 70.3492" stroke="#E9E9E9" stroke-width="5.4776" stroke-linecap="round"/>
<path d="M636.693 36.5967C637.411 44.6093 641.511 52.4455 644.328 59.9012" stroke="#79EC84" stroke-width="5.4776" stroke-linecap="round"/>
<path d="M637.496 51.8652C637.609 52.486 637.993 52.9354 638.3 53.4724" stroke="#E9E9E9" stroke-width="5.4776" stroke-linecap="round"/>
<path d="M605.749 20.5264C605.525 22.0106 605.441 23.4531 605.348 24.9462" stroke="#79EC84" stroke-width="5.4776" stroke-linecap="round"/>
<path d="M599.72 43.0234C597.974 43.0881 596.236 43.2802 594.496 43.4252" stroke="#79EC84" stroke-width="5.4776" stroke-linecap="round"/>
<path d="M587.272 48.251L586.87 48.6528" stroke="#79EC84" stroke-width="5.4776" stroke-linecap="round"/>
<path d="M586.465 48.6475V51.8619" stroke="#79EC84" stroke-width="5.4776" stroke-linecap="round"/>
<path d="M587.672 73.5596V73.9614" stroke="#79EC84" stroke-width="5.4776" stroke-linecap="round"/>
<path d="M594.496 93.6504V94.8558" stroke="#79EC84" stroke-width="5.4776" stroke-linecap="round"/>
<path d="M590.08 112.136C589.87 113.116 589.59 114.006 589.276 114.948" stroke="#79EC84" stroke-width="5.4776" stroke-linecap="round"/>
<path d="M586.863 123.789C586.509 124.577 586.307 125.375 586.06 126.2" stroke="#79EC84" stroke-width="5.4776" stroke-linecap="round"/>
<path d="M621.426 120.17C621.551 118.541 621.938 116.953 622.229 115.349" stroke="#79EC84" stroke-width="5.4776" stroke-linecap="round"/>
<path d="M595.303 57.8907C594.942 56.943 594.984 56.0754 594.901 55.0781" stroke="#79EC84" stroke-width="5.4776" stroke-linecap="round"/>
<path d="M642.716 84.4111C643.337 86.5864 644.374 88.7085 645.127 90.84" stroke="#79EC84" stroke-width="5.4776" stroke-linecap="round"/>
<path d="M651.557 119.368V121.779" stroke="#79EC84" stroke-width="5.4776" stroke-linecap="round"/>
<path d="M653.964 131.82C654.137 132.362 654.255 132.876 654.366 133.428" stroke="#79EC84" stroke-width="5.4776" stroke-linecap="round"/>
<path d="M605.875 137.712V138.917" stroke="#79EC84" stroke-width="5.4776" stroke-linecap="round"/>
<path d="M676.069 112.136C675.812 112.424 675.781 112.598 675.667 112.939" stroke="#79EC84" stroke-width="5.4776" stroke-linecap="round"/>
<path d="M668.432 133.83C668.22 134.838 667.514 135.15 666.825 135.839" stroke="#79EC84" stroke-width="5.4776" stroke-linecap="round"/>
<path d="M666.42 143.073C666.455 143.631 666.517 143.572 666.822 143.877" stroke="#79EC84" stroke-width="5.4776" stroke-linecap="round"/>
<path d="M695.863 137.712C696.299 138.099 696.434 138.178 696.667 137.712" stroke="#E9E9E9" stroke-width="5.4776" stroke-linecap="round"/>
<path d="M669.279 103.007C668.869 101.548 668.711 100.08 668.476 98.5869" stroke="#79EC84" stroke-width="5.4776" stroke-linecap="round"/>
<path d="M637.175 79.0234V79.4252" stroke="#E9E9E9" stroke-width="5.4776" stroke-linecap="round"/>
</g>
<path d="M286.855 1.96387H324.431V47.1108C324.431 51.5975 325.202 55.2663 326.745 58.1171C328.334 60.968 330.974 63.0712 334.666 64.4265C338.405 65.7819 343.499 66.4595 349.949 66.4595C351.117 66.4595 353.01 66.4362 355.627 66.3894C358.291 66.2959 361.166 66.1791 364.25 66.0389C367.335 65.852 370.162 65.6416 372.733 65.408C375.35 65.1275 377.196 64.8238 378.271 64.4966V93.9403C377.056 94.3609 375.046 94.7348 372.242 95.062C369.438 95.3424 366.423 95.5994 363.199 95.8331C360.021 96.02 357.17 96.1836 354.646 96.3238C352.122 96.4173 350.557 96.464 349.949 96.464C337.33 96.464 326.277 94.6647 316.79 91.066C307.302 87.4673 299.942 82.0226 294.707 74.7318C289.473 67.441 286.855 58.234 286.855 47.1108V1.96387ZM370.98 1.96387H408.836V145.537H370.98V1.96387Z" fill="black"/>
<path d="M398.509 8.59668V137.711" stroke="#74B8F6" stroke-width="5.4776"/>
<path d="M382.858 8.59668V137.711" stroke="#74B8F6" stroke-width="5.4776"/>
<path d="M363.296 71.1982L363.296 90.7611" stroke="#74B8F6" stroke-width="5.4776"/>
<path d="M347.646 71.1982L347.646 92.7174" stroke="#74B8F6" stroke-width="5.4776"/>
<path d="M331.995 67.2852L331.995 90.7606" stroke="#74B8F6" stroke-width="5.4776"/>
<path d="M316.345 8.59668V82.9355" stroke="#74B8F6" stroke-width="5.4776"/>
<path d="M300.694 8.59668V67.2852" stroke="#74B8F6" stroke-width="5.4776"/>
<path d="M563.014 73.7494C563.014 89.7331 559.906 103.216 553.69 114.199C547.475 125.136 539.085 133.431 528.523 139.086C517.961 144.695 506.183 147.499 493.191 147.499C480.105 147.499 468.28 144.671 457.718 139.016C447.203 133.314 438.837 124.995 432.621 114.059C426.452 103.076 423.367 89.6396 423.367 73.7494C423.367 57.7657 426.452 44.3057 432.621 33.3695C438.837 22.3865 447.203 14.0909 457.718 8.48258C468.28 2.82753 480.105 0 493.191 0C506.183 0 517.961 2.82753 528.523 8.48258C539.085 14.0909 547.475 22.3865 553.69 33.3695C559.906 44.3057 563.014 57.7657 563.014 73.7494ZM522.915 73.7494C522.915 65.15 521.77 57.9059 519.48 52.0171C517.236 46.0817 513.895 41.595 509.455 38.5572C505.062 35.4726 499.64 33.9303 493.191 33.9303C486.741 33.9303 481.296 35.4726 476.856 38.5572C472.463 41.595 469.122 46.0817 466.832 52.0171C464.588 57.9059 463.467 65.15 463.467 73.7494C463.467 82.3488 464.588 89.6162 466.832 95.5517C469.122 101.44 472.463 105.927 476.856 109.012C481.296 112.05 486.741 113.568 493.191 113.568C499.64 113.568 505.062 112.05 509.455 109.012C513.895 105.927 517.236 101.44 519.48 95.5517C521.77 89.6162 522.915 82.3488 522.915 73.7494Z" fill="url(#paint0_linear_191_7453)"/>
<path d="M460.785 31.7757C457.188 31.416 456.422 26.5941 456.422 23.8039C456.422 19.6789 461.956 19.25 465.04 18.3098C466.871 17.7515 478.021 15.8732 478.021 19.5487C478.021 20.3205 474.925 21.504 474.331 21.8379C470.641 23.9135 469.275 16.694 468.38 14.2162C466.47 8.93069 470.697 8.74242 475.376 7.82504C479.004 7.11355 481.559 6.56758 485.239 6.56758C488.251 6.56758 491.326 6.24002 494.234 7.10622C500.522 8.97921 508.422 9.12079 513.356 14.0546C514.983 15.682 523.436 24.0194 516.749 24.0194C513.94 24.0194 510.672 23.3758 509.37 20.626C508.118 17.9837 519.031 18.6869 519.523 18.6869C520.808 18.6869 523.068 18.2735 524.371 18.7946C527.155 19.9083 529.703 22.9009 532.316 24.5042C535.63 26.5382 537.09 28.4561 538.241 32.2066C539.402 35.9926 541.113 39.7412 541.715 43.6527C541.923 45.0034 542.816 47.4262 542.119 48.7428C541.83 49.289 539.617 50.3498 539.049 50.1432C537.017 49.4043 536.819 44.2229 537.971 42.6562C541.204 38.26 550.491 59.728 551.168 63.2321C551.788 66.4426 553.058 71.6803 551.653 74.8935C550.734 76.9937 548.878 78.4798 547.828 80.2799C546.964 81.7624 545.292 84.1753 543.789 85.1007C541.983 86.212 541.742 76.0681 541.742 74.4357C541.742 68.8556 545.582 75.5103 546.266 77.3982C547.016 79.4681 546.62 82.2037 546.589 84.3466C546.521 89.167 545.516 93.5123 543.142 97.7317C540.753 101.98 539.134 107.016 535.063 109.824C532.755 111.415 531.488 114.489 528.895 115.641C527.922 116.074 526.821 116.611 525.744 116.611C525.053 116.611 523.17 116.968 522.647 116.503C521.868 115.811 522.191 112.339 522.459 111.386C522.871 109.92 525.109 107.067 526.687 108.908C528.01 110.452 527.309 115.113 526.606 116.719C523.113 124.703 513.676 131.48 506.542 135.705C505.216 136.491 489.944 142.427 489.07 140.852C487.339 137.736 484.694 133.968 486.585 130.184C487.021 129.312 495.218 125.09 495.661 127.087C496.295 129.937 489.458 130.847 487.555 131.531C483.185 133.103 478.887 133.724 474.762 131.585C471.901 130.101 465.727 127.957 464.663 124.529C463.558 120.969 462.08 117.253 461.781 113.514C461.605 111.309 461.062 109.132 463.693 108.855C465.274 108.688 465.765 108.434 466.09 110.551C466.67 114.322 459.529 114.338 457.176 113.595C454.394 112.716 452.087 109.339 450.12 107.4C446.594 103.925 442.321 101.007 439.482 96.8968C436.097 91.9978 434.607 85.3261 434.607 79.445C434.607 77.2142 433.919 74.7195 436.438 73.924C438.562 73.2533 441.642 71.5271 443.818 71.5271C445.864 71.5271 446.993 83.0077 444.787 82.6768C442.887 82.3918 440.701 78.7558 439.67 77.452C437.637 74.8806 435.175 71.6282 434.419 68.3491C432.89 61.7241 435.958 56.0806 440.155 51.2474C442.478 48.5728 447.632 46.0898 451.035 44.8646C451.795 44.5912 454.483 42.4718 454.483 44.1913C454.483 48.4826 451.754 50.0786 448.288 52.1362C445.33 53.8926 442.281 47.6114 441.933 45.3494C440.955 38.9946 443.643 33.7148 450.093 33.7148C453.38 33.7148 456.556 32.2605 459.815 32.2605" stroke="#0A0A0A" stroke-width="5.4776" stroke-linecap="round"/>
<path d="M0 145.537V115.532L3.92582 114.971C8.69289 114.224 12.6421 112.167 15.7734 108.802C18.9514 105.391 21.3817 99.9926 23.0642 92.6083C24.7934 85.1773 25.8917 75.0589 26.3591 62.2533L28.6024 1.96387H132.637V145.537H95.061V32.2488H64.4957L62.2523 77.3957C61.4111 94.1272 59.1678 107.47 55.5223 117.425C51.8769 127.38 46.3387 134.554 38.9077 138.947C31.4767 143.34 21.6855 145.537 9.53414 145.537H0Z" fill="black"/>
<path d="M13.1211 129.886C32.6839 127.93 49.8992 120.105 48.3342 18.3779L112.892 18.3779V131.842" stroke="#FFBB54" stroke-width="5.4776"/>
<path d="M101.153 129.887H124.629" stroke="#FFBB54" stroke-width="5.4776"/>
<path d="M171.84 147.5V117.215H178.85C182.963 117.215 186.211 116.888 188.595 116.233C191.025 115.532 192.894 114.317 194.203 112.588C195.558 110.812 196.703 108.335 197.638 105.157L199.04 100.951L145.2 1.96387H185.019L215.024 60.2904L238.018 1.96387H277.276L227.923 114.13C225.212 120.019 221.987 125.51 218.249 130.605C214.51 135.652 209.859 139.742 204.298 142.873C198.736 145.957 191.843 147.5 183.617 147.5H171.84Z" fill="black"/>
<path d="M160.713 11.1262C165.479 10.5753 170.243 9.99868 174.836 11.5297C175.719 11.824 176.774 11.6849 177.691 11.6849C181.893 11.6849 176.983 14.2446 175.41 14.8664C173.369 15.6732 171.606 15.998 169.807 17.303C168.528 18.2311 167.509 19.1842 165.865 19.2275C165.456 19.2383 165.27 19.2817 164.903 19.4448C164.413 19.6628 164.02 19.6506 163.522 19.9414C162.711 20.4145 164.492 20.8425 164.701 20.9036C167.691 21.7757 170.796 22.2181 173.796 23.0919C177.468 24.1614 180.511 23.9379 184.179 24.2714C187.54 24.5769 183.834 25.0838 182.409 25.0939C180.387 25.1083 178.058 25.2052 176.202 26.0872C174.246 27.0162 171.686 27.7131 170.071 29.0049C169.257 29.6565 177.029 31.9922 177.723 32.1709C180.378 32.8559 183.069 34.4593 185.855 34.3127C186.527 34.2773 187.344 34.1826 187.934 34.5765C188.266 34.7977 187.143 34.6852 186.755 34.7782C185.137 35.1665 183.389 35.4064 182.006 36.3923C180.592 37.4002 179.495 38.7915 178.312 40.0394C177.733 40.6506 177.08 40.83 176.496 41.2965C176.165 41.5614 176.995 41.6697 177.102 41.7C180.443 42.6548 183.859 43.2577 187.283 43.8418C188.643 44.0739 190.461 44.0211 191.783 44.4315C192.961 44.797 194.056 45.419 195.244 45.7507C197.752 46.4504 194.556 46.0215 193.615 46.0921C191.356 46.2615 189.193 46.9533 186.941 47.1785C184.598 47.4129 181.106 48.1402 181.106 51.074C181.106 52.7444 183.309 52.6935 184.66 52.9984C186.607 53.4382 188.431 53.9549 190.325 54.6124C192.308 55.3015 195.164 57.0125 197.308 56.3817C197.936 56.197 198.189 56.127 198.767 56.3196C199.589 56.5934 197.079 56.1781 196.874 56.1644C193.53 55.9415 190.368 55.8836 187.252 57.0025C186.493 57.275 185.296 58.021 185.296 58.8959C185.296 60.9922 189.116 61.8666 190.573 62.4965C193.223 63.6424 195.645 63.5125 198.426 63.6449C199.331 63.688 200.265 64.2036 201.095 64.2036C202.796 64.2036 207.773 65.1556 206.186 64.5451C204.795 64.0101 201.971 64.9933 200.661 65.4452C198.944 66.037 197.172 66.5678 195.477 67.2145C193.609 67.9275 192.178 68.9889 191.163 70.6133C190.217 72.1265 192.105 73.0023 193.32 73.5776C198.845 76.1949 205.216 78.8648 211.245 79.9406C214.826 80.5796 218.865 81.1948 222.512 81.0581C223.703 81.0134 224.823 80.6856 226.02 80.6856C226.858 80.6856 227.696 80.6856 228.534 80.6856C229.088 80.6856 229.576 80.9598 228.876 80.8097C227.844 80.5886 226.766 80.8304 225.741 80.5614C223.26 79.9109 221.613 81.7581 219.269 82.5014C218.259 82.8216 217.501 83.3063 216.661 83.9292C215.106 85.0835 213.243 85.7588 211.431 86.3968C209.475 87.0858 207.162 87.1769 206.589 89.4697C206.141 91.2625 207.31 91.8238 208.886 92.4806C215.109 95.0735 222.056 94.4848 228.519 95.9104C230.526 96.3532 230.592 96.3423 228.519 96.1898C225.977 96.0029 223.43 96.0501 220.883 96.0501C218.662 96.0501 218.004 96.0015 216.522 97.3848C215.373 98.4569 213.713 99.0476 212.502 100.116C211.842 100.699 211.077 101.098 210.345 101.575C209.68 102.009 209.453 102.762 208.917 103.313C207.943 104.315 206.674 105.143 205.751 106.169C205.3 106.67 205.848 107.489 206.294 107.643C210.198 108.995 214.219 109.622 218.307 110.142C219.023 110.233 219.717 110.255 220.433 110.297C222.799 110.436 215.777 111.189 213.449 111.632C207.077 112.844 200.858 113.191 195.167 116.629C194.368 117.112 193.952 117.843 193.258 118.399C192.838 118.734 194.561 119.376 194.623 119.407C197.111 120.651 199.865 121.262 202.554 121.906C206.234 122.788 210.177 123.496 213.666 124.979C214.048 125.141 216.357 125.334 215.56 125.507C211.9 126.297 208.13 126.519 204.447 127.183C198.351 128.282 191.999 129.916 186.134 131.932C184.949 132.339 182.963 132.773 184.489 133.918C188.73 137.099 194.053 135.719 198.985 135.719" stroke="#FF5454" stroke-width="5.4776" stroke-linecap="round"/>
<path d="M260.662 10.7559C256.409 10.7717 252.144 10.7176 247.895 10.9493C246.666 11.0163 245.413 11.1051 244.271 11.6008C244.148 11.6542 242.414 12.4347 242.785 12.7716C243.576 13.4912 245.18 13.7892 246.195 13.8507C248.733 14.0045 251.051 14.1573 253.576 14.6448C255.339 14.9853 257.105 15.2994 258.88 15.5712C259.621 15.6847 260.678 15.6735 261.354 16.0599C261.564 16.18 260.921 16.2969 260.682 16.3348C259.449 16.5301 258.215 16.6883 256.976 16.8438C253.404 17.2921 250.068 18.3015 246.613 19.2464C244.838 19.7316 242.911 20.0796 241.237 20.8753C240.504 21.2239 240.051 21.6553 240.362 22.5245C240.617 23.2391 241.517 23.5335 242.143 23.7971C244.498 24.7886 246.882 25.5774 249.321 26.3321C250.076 26.5659 250.957 26.7585 251.672 27.116C251.774 27.167 249.675 27.2483 249.504 27.2483C245.974 27.2483 242.447 27.1866 238.936 27.6148C236.919 27.8608 234.472 28.0858 232.604 28.979C232.034 29.2518 232.14 30.4234 232.115 30.9133C231.897 35.3156 235.895 37.8425 239.873 38.0193C243.011 38.1588 246.169 38.06 249.31 38.06C250.357 38.06 251.802 38.3157 252.823 38.0193C252.923 37.9902 253.108 37.9052 253.108 37.775C253.108 37.3147 251.782 37.2681 251.642 37.2558C248.164 36.9489 244.261 36.8196 240.789 37.2659C238.014 37.6228 235.717 38.8964 234.233 41.2567C233.816 41.92 233.492 42.6389 233.062 43.2928C232.651 43.9191 231.814 44.613 231.708 45.39C231.646 45.8431 231.98 45.9326 232.36 46.0619C235.236 47.0426 238.272 47.3664 241.298 47.4057C242.872 47.4262 244.448 47.4057 246.022 47.4057C247.28 47.4057 243.524 47.7248 242.296 47.9962C238.944 48.7369 235.684 49.7822 232.38 50.7042C230.245 51.3001 227.962 51.8062 225.895 52.6182C224.976 52.9793 223.645 54.7577 223.645 55.7232C223.645 56.2378 224.192 56.4873 224.623 56.6089C226.837 57.2348 229.306 57.2444 231.576 57.6677C234.052 58.1293 236.656 58.694 239.181 58.7672C239.551 58.7779 240.615 58.6205 240.29 58.7977C239.814 59.0575 239.136 59.1657 238.631 59.3169C237.317 59.7105 236.066 60.222 234.783 60.7015C232.722 61.4715 230.51 61.8737 228.481 62.7071C227.631 63.0563 225.718 63.6063 225.294 64.5599C224.847 65.5666 223.614 65.9292 223.024 66.9116C221.749 69.0365 233.78 70.4858 235.098 70.6886C240.275 71.485 224.638 71.3978 219.451 72.124C216.134 72.5883 212.904 72.776 209.657 73.6918C207.751 74.2296 208.45 75.3656 210.105 76.0639C213.884 77.658 218.466 77.4586 222.474 77.4586C224.294 77.4586 226.567 76.6109 228.308 77.031C230.199 77.4876 231.775 78.8296 233.785 79.0977C234.297 79.166 234.857 79.1079 235.373 79.1079" stroke="#FF5454" stroke-width="5.4776" stroke-linecap="round"/>
<defs>
<linearGradient id="paint0_linear_191_7453" x1="493.191" y1="0" x2="493.191" y2="147.499" gradientUnits="userSpaceOnUse">
<stop stop-color="#EBEBEB"/>
<stop offset="1" stop-color="#CDCDCD"/>
</linearGradient>
</defs>
</svg>
