<svg width="686" height="261" viewBox="0 0 686 261" fill="none" xmlns="http://www.w3.org/2000/svg">
<path d="M3.99914 138.678C3.04548 179.931 0.999958 234.178 5.3014 254.111C13.5 261.178 83.8086 257.297 116 257.178C130.075 256.12 254.862 258.048 321.5 257.678C348.598 257.987 531.055 256.126 626.5 256.178C675.208 256.345 680.277 257.659 681.999 248.678C683.721 239.697 680.156 175.625 681.499 147.678C683.999 95.6781 687.5 9.67774 674.5 4.67773C661.5 -0.322271 335.5 56.6777 335.5 56.6777L16 3.17774C1.00115 5.1774 5.19121 87.112 3.99914 138.678Z" stroke="#5195D5" stroke-width="4"/>
<path d="M19.1019 138.031C18.1992 174.986 16.2559 223.579 20.3699 241.437C28.2049 247.769 95.3825 244.307 126.14 244.206C139.588 243.262 258.82 245.014 322.491 244.697C348.384 244.979 522.717 243.35 613.912 243.415C660.451 243.575 665.295 244.753 666.939 236.709C668.583 228.664 665.162 171.267 666.44 146.232C668.818 99.6511 663.347 28.158 662.174 25.1678C661 22.1776 667.917 21.6469 646.5 21.1776L336.999 73.1777L29.499 19.6777C15.1684 21.466 20.2304 91.8383 19.1019 138.031Z" stroke="#C23434" stroke-width="4"/>
<path d="M35.2638 137.389C34.4145 170.046 32.5792 212.987 36.4921 228.769C43.9379 234.366 107.765 231.323 136.989 231.241C149.766 230.409 263.053 231.985 323.549 231.719C348.15 231.974 513.79 230.574 600.438 230.653C644.657 230.805 649.259 231.847 650.819 224.739C652.379 217.63 649.116 166.907 650.325 144.784C652.574 103.621 656.175 44.6467 646.243 37.7984L336.5 87.6777L42.0213 35.6685C28.4056 37.2455 36.3254 96.5686 35.2638 137.389Z" stroke="#5195D5" stroke-width="4"/>
<path d="M15.5 3.17807C116 0.678538 328.702 6.37901 363.502 5.17906C407.002 3.67912 506.5 3.17773 530 4.67773C548.8 5.87773 623 0.178538 674 4.67854" stroke="#5195D5" stroke-width="4" stroke-linejoin="round"/>
</svg>
