<svg width="40" height="40" viewBox="0 0 40 40" fill="none" xmlns="http://www.w3.org/2000/svg">
<g clip-path="url(#clip0_191_7681)">
<rect width="40" height="40" rx="20" fill="#E9E9E9"/>
<path d="M17.9516 4.54638C19.8951 4.47051 22.5494 4.37345 24.5397 4.27325C25.5329 4.22325 26.6321 4.21004 27.6262 4.02196C29.2322 3.71812 24.3927 4.50483 22.7698 4.69934C19.5544 5.08472 16.3283 5.35598 13.0898 5.42043C12.7912 5.42637 12.4925 5.43259 12.1939 5.43135C12.0213 5.43064 11.5606 5.49001 11.6804 5.3658C11.9265 5.11053 12.8741 4.99817 13.1389 4.95063C15.0113 4.61457 16.9312 4.65428 18.8257 4.64471C19.4633 4.64149 20.0486 4.64261 20.683 4.62286C20.8689 4.61708 21.0547 4.60809 21.2402 4.59555C21.3243 4.58987 21.4126 4.59782 21.4915 4.56824C21.5427 4.54904 21.3822 4.56095 21.3276 4.56277C19.9318 4.6093 18.5428 4.77951 17.1431 4.72119C16.8721 4.7099 16.2113 4.56628 16.4057 4.37704C16.9159 3.88026 18.0433 3.77889 18.6618 3.68327C20.6859 3.37031 22.7384 3.36077 24.7637 3.07143C24.9856 3.03974 25.5595 2.95081 25.8399 2.89116C26.0039 2.85626 25.5726 2.6773 25.4138 2.62349C22.5808 1.66392 19.62 1.01556 16.6733 0.525781C15.2695 0.292452 13.871 0.150908 12.4561 0.023205C12.2774 0.00708129 12.0978 -0.00277816 11.9207 -0.0314227C11.537 -0.0934881 11.7502 -0.136875 12.0354 -0.167992C15.5014 -0.546098 19.2297 0.17277 22.6387 0.722441C24.7963 1.07034 23.2473 1.0065 22.4693 1.0065C20.6939 1.0065 18.9185 1.0065 17.1431 1.0065C14.3535 1.0065 11.5638 1.0065 8.77416 1.0065C8.59207 1.0065 8.40521 0.965128 8.22788 1.0065C7.65826 1.13942 9.39351 1.10589 9.97597 1.15946C12.5911 1.39998 15.2 1.68887 17.8041 2.02804C19.4214 2.23868 20.3014 2.37152 21.8575 2.59617C22.5861 2.70135 24.7727 2.92296 24.0372 2.95125C23.2235 2.98255 22.4117 2.84917 21.6008 2.77644C18.7498 2.52077 15.9035 2.21836 13.0461 2.03897C11.4739 1.94027 11.0219 1.93713 9.61543 1.9024C9.45883 1.89853 8.99366 1.92947 9.14563 1.89147C9.64733 1.76605 10.1799 1.89147 10.6971 1.89147C13.9377 1.89147 17.1342 1.99731 20.3552 2.40498C21.4775 2.54701 22.6033 2.72648 23.7203 2.90755C24.0811 2.96604 24.4412 3.0288 24.8019 3.08782C25.0421 3.12713 25.2844 3.15481 25.523 3.20254C25.5947 3.21688 25.7552 3.20469 25.7306 3.27356C25.6998 3.3598 25.5583 3.33822 25.4684 3.3555C25.1879 3.40938 24.9044 3.44581 24.6217 3.48661C23.0313 3.71614 21.4362 3.88489 19.8308 3.96733C18.5073 4.0353 17.2223 4.04474 15.8976 4.05473C15.3441 4.05891 14.7905 4.05586 14.2369 4.0602C13.7973 4.06365 12.5182 3.96443 12.9204 4.14214C14.0342 4.63427 15.8884 4.62481 17.0448 4.75397C19.2561 5.00094 21.4774 5.14103 23.6875 5.39858C25.5338 5.61372 27.374 6.08721 29.2268 6.21799C30.1968 6.28646 27.2819 6.21861 26.3097 6.20161C22.4079 6.13335 18.5117 5.9336 14.6084 5.923C13.2768 5.91939 11.9351 5.90357 10.6042 5.97217C10.5182 5.9766 10.2625 5.98533 10.3474 5.99948C10.998 6.10791 11.6657 6.04539 12.325 6.06504C16.8759 6.20068 21.4288 6.37627 25.9655 6.7752C28.041 6.9577 30.1598 7.13218 32.2095 7.52906C34.0489 7.88522 31.5014 7.96561 31.3682 7.97155C26.4132 8.19238 21.4623 8.03828 16.5204 8.54514C11.715 9.038 6.86559 9.40391 2.0768 10.031C-0.47732 10.3655 7.20245 9.49524 9.77385 9.3427C16.1264 8.96585 22.5055 9.05357 28.8663 9.06956C30.465 9.07358 32.5017 9.07848 34.1324 9.13512C34.6154 9.15189 35.0982 9.17882 35.58 9.21706C36.2453 9.26986 36.5003 9.32039 35.6947 9.34817C29.4889 9.56216 23.2364 9.38705 17.0284 9.35363C12.8592 9.33118 8.41673 9.58221 4.29468 8.76365C4.11331 8.72763 3.681 8.5848 3.82488 8.46866C4.47478 7.94405 6.07281 7.80845 6.76932 7.70387C11.2777 7.02693 15.9042 6.98554 20.4536 7.02649C22.5118 7.04501 24.5756 7.09678 26.6211 7.34333C26.9373 7.38145 27.2536 7.42375 27.5661 7.48536C27.6341 7.49877 27.8213 7.54063 27.7573 7.5673C27.6175 7.62554 27.4553 7.59697 27.3039 7.59461C22.9988 7.52756 18.71 6.7041 14.4281 6.32179C12.0019 6.10515 10.9096 6.05244 8.57204 5.95032C7.42757 5.90032 6.0863 5.98388 4.93929 5.7482C4.77924 5.71531 4.67127 5.63551 4.86281 5.51876C5.57474 5.08482 6.59605 4.90654 7.38661 4.77582C11.1559 4.15255 15.3959 4.46546 19.0988 5.35488C21.5464 5.94279 18.3683 5.96414 17.8205 5.97763C13.4124 6.08624 8.84427 5.65146 4.46949 6.31632C4.16083 6.36323 3.70595 6.3067 3.5736 6.58946C3.54441 6.65181 3.672 6.69387 3.73748 6.71511C4.16368 6.85333 5.5628 7.01715 5.74778 7.04287C10.145 7.65441 14.5347 8.32991 18.9185 9.03132C19.4882 9.12247 20.1028 9.08214 20.6229 9.33178C20.6812 9.35976 20.4963 9.36225 20.4317 9.36455C19.7001 9.39068 18.9675 9.36882 18.2357 9.3864C15.8581 9.44354 13.5047 9.61433 11.1778 10.1239C11.0237 10.1576 10.555 10.2642 10.3311 10.326C10.094 10.3914 10.8226 10.3479 11.0685 10.3479C15.0137 10.3479 18.9322 10.3644 22.8353 11.0252C23.5782 11.151 25.319 11.5113 26.1458 11.7026C27.0336 11.908 27.0414 11.9464 26.1076 11.9703C21.0193 12.1008 15.9277 11.9502 10.8391 12.0413C9.20183 12.0706 4.31569 12.5568 5.93352 12.3035C7.79822 12.0117 9.68755 11.977 11.5711 11.9594C16.3888 11.9142 21.2294 12.0046 26.0365 12.3363C28.8209 12.5284 31.1354 12.788 33.8483 13.2541C35.2152 13.4889 37.0263 13.7314 38.3496 14.2811C38.566 14.3709 37.8955 14.4152 37.6613 14.4231C35.0458 14.5107 32.4219 14.4759 29.8059 14.4777C22.8607 14.4825 16.4446 15.6003 9.5 15.5C7.96928 15.4779 5.0685 14.6452 3.54082 14.0625C2.9282 13.8289 4.61061 13.2324 5.25067 13.0902C11.071 11.7968 17.3114 11.8845 23.2396 11.9211C27.12 11.9451 30.9552 12.2031 34.7988 12.7406C35.913 12.8963 37.0244 13.0739 38.1311 13.2759C38.8005 13.3981 39.466 13.5437 40.125 13.7129C40.4034 13.7844 40.725 13.8052 40.939 13.997C41.3379 14.3546 39.8796 14.1958 39.3439 14.1936C35.332 14.1772 31.3129 13.8564 27.3094 13.6474C18.937 13.2103 10.4636 13.2556 2.13142 12.2544C1.89611 12.2261 0.934609 12.1714 1.69986 12.0468C3.86128 11.6949 6.16019 11.6297 8.33714 11.5606C14.0888 11.378 19.8719 11.6597 25.4684 13.0847C26.4108 13.3247 27.6507 13.6702 28.5822 14.1062C28.7395 14.1799 29.1353 14.2611 29.0192 14.3903C28.8452 14.584 28.5039 14.4832 28.2435 14.4832C27.4708 14.4832 26.6982 14.4426 25.9273 14.3903C16.9005 13.7777 7.96158 12.2614 -1.05884 11.6152C-2.23751 11.5308 1.28691 11.9034 2.45919 12.0522C7.99101 12.7547 13.5629 13.4372 19.0005 14.7071C19.8028 14.8945 20.612 15.0867 21.3713 15.4064C21.5104 15.4649 21.7185 15.7126 21.5953 15.7997C21.3068 16.0036 20.904 15.9571 20.5519 15.9854C18.9756 16.1125 17.3905 16.0802 15.8102 16.1384C12.4809 16.2611 9.15367 16.4204 5.82426 16.5372C4.7069 16.5764 8.06065 16.5169 9.17841 16.5426C12.6491 16.6226 16.0843 17.0418 19.5194 17.5259C25.7828 18.4087 32.3739 19.2724 38.3387 21.5028C38.7279 21.6484 39.1114 21.8165 39.4695 22.0273C39.6305 22.122 39.9673 22.2449 39.8792 22.4097C39.7653 22.6227 39.4158 22.568 39.1745 22.579C37.4996 22.6558 34.4571 22.2533 33.1818 22.0983C20.1971 20.5198 7.28111 18.3888 -5.69127 16.7065C-8.91615 16.2883 -12.1875 15.9811 -15.3932 15.4118C-15.625 15.3707 -15.8851 15.3833 -16.0815 15.2534C-16.4923 14.9818 -15.099 15.1668 -14.6065 15.166C-8.37817 15.1557 -2.13464 15.409 4.07617 15.8598C8.79492 16.2023 13.4969 16.6959 18.1811 17.3621C19.805 17.593 24.6502 18.2847 23.0102 18.3071C22.2988 18.3169 18.6572 17.9618 18.6072 17.9575C15.1205 17.6604 11.6379 17.4486 8.14048 17.3293C5.51053 17.2396 2.87807 17.1772 0.246765 17.1435C-0.210264 17.1377 -0.667397 17.1407 -1.12439 17.1326C-1.28659 17.1298 -1.45607 17.1602 -1.61058 17.1108C-1.68135 17.0881 -1.4713 17.0541 -1.39753 17.0452C-0.402633 16.9255 1.27995 16.8515 2.13142 16.8267C6.73203 16.6925 11.3456 16.7076 15.9468 16.783C22.048 16.883 28.2453 17.0621 34.2853 18.0285C34.7804 18.1077 35.3286 18.2256 34.4383 18.2689C31.1248 18.4298 27.7655 18.3126 24.4523 18.3126C16.9155 18.3126 9.37871 18.3126 1.8419 18.3126C-1.63789 18.3126 8.80153 18.2933 12.2813 18.3126C17.0148 18.3388 21.734 18.4754 26.4572 18.8042C29.9117 19.0447 33.509 19.2338 36.9184 19.9296C37.4872 20.0457 37.87 20.2283 36.9949 20.301C33.3757 20.602 29.6207 20.2958 26.0092 20.1645C21.9611 20.0173 17.9166 19.8279 13.8655 19.7875C13.088 19.7798 10.7553 19.7875 11.5329 19.7875C17.0227 19.7875 22.5136 19.7651 28.0031 19.8312C31.4589 19.8729 35.4759 19.9401 38.9505 20.1371C40.1016 20.2024 41.2509 20.3016 42.3976 20.4212C43.0325 20.4874 43.6667 20.5717 44.2931 20.6944C44.4607 20.7272 44.7127 20.7241 44.7684 20.8856C44.8104 21.0075 44.5304 20.9955 44.4024 21.0112C43.9169 21.0706 43.4269 21.0862 42.9384 21.1095C39.3373 21.2815 35.7259 21.2565 32.1221 21.2625C27.5752 21.27 23.0283 21.2512 18.4815 21.2679C17.704 21.2708 16.9263 21.2706 16.1489 21.2843C15.721 21.2919 14.4622 21.2767 14.8706 21.4045C15.9044 21.728 17.0102 21.7446 18.0827 21.8962C21.8945 22.4349 25.7094 22.9483 29.5272 23.4421C32.3358 23.8054 35.1644 24.1115 37.9563 24.5948C38.2541 24.6463 38.568 24.6625 38.8413 24.7914C39.5512 25.1263 37.2693 24.8096 36.4868 24.7477C28.2973 24.1008 20.1621 23.0907 11.9426 22.8248C9.5479 22.7474 7.14713 22.8125 4.75356 22.721C4.60707 22.7154 4.23522 22.7939 4.31653 22.6719C4.41468 22.5247 4.66478 22.6062 4.84096 22.5899C5.25526 22.5516 5.67071 22.5239 6.08647 22.508C11.2954 22.3089 16.5924 22.3483 21.7756 22.9232C23.8804 23.1566 30.1312 24.1735 28.0141 24.125C27.1634 24.1055 25.182 23.8535 24.5725 23.7754C20.8143 23.2934 17.0708 22.7184 13.3028 22.3113C10.3898 21.9966 7.47434 21.77 4.54597 21.6777C4.1892 21.6664 3.83217 21.6665 3.47527 21.6613C2.98434 21.6541 2.84341 21.6558 3.44795 21.6558C16.3328 21.6558 29.2177 21.6558 42.1026 21.6558C49.0029 21.6558 28.3012 21.7722 21.4041 21.9836C14.6079 22.1918 7.81614 22.4881 1.01702 22.5954C-2.41809 22.6496 -5.86231 22.5653 -9.29671 22.661C-9.98743 22.6802 -10.0463 22.7259 -9.34041 22.8248C-6.19822 23.2655 -3.02725 23.5617 0.12112 23.9502C11.2732 25.3262 22.4254 26.7708 33.5424 28.4078C35.4556 28.6895 37.3888 28.8883 39.2674 29.3474C40.8037 29.7229 36.1073 29.521 34.5257 29.5167C24.5943 29.4899 14.6632 29.4239 4.7317 29.4239C4.33721 29.4239 1.84138 29.4273 1.06072 29.4184C-0.497673 29.4007 1.06888 29.3131 1.2683 29.3037C10.423 28.8712 19.6522 29.065 28.8116 29.1944C30.6744 29.2208 32.7863 29.268 34.6896 29.3583C34.9048 29.3685 35.1209 29.377 35.3342 29.4075C36.003 29.503 33.9828 29.3976 33.3075 29.3747C23.6409 29.0476 13.9708 28.7324 4.30561 28.3805C3.80989 28.3624 3.31181 28.3611 2.81973 28.2985C2.69023 28.2821 2.41299 28.2677 2.45919 28.1456C2.52663 27.9674 2.78925 27.9459 2.97269 27.8943C4.20894 27.5464 7.01995 27.0836 7.98752 26.9328C14.3397 25.943 20.7799 25.0709 27.211 24.8406C27.2755 24.8383 29.3445 24.7673 29.8496 24.8242C31.1821 24.9744 27.1802 25.1102 25.8399 25.152C17.8985 25.3997 9.77175 25.0794 1.89106 24.0048C-1.12089 23.5941 7.9632 23.6506 11.003 23.6333C14.2437 23.615 17.4985 23.5655 20.7376 23.7098C21.5792 23.7473 24.0565 23.9204 23.2341 24.1031C22.585 24.2474 20.1861 24.2949 20.0166 24.2998C16.5178 24.4008 13.0168 24.403 9.5171 24.4527C7.10035 24.4871 4.68447 24.549 2.26799 24.5948C2.0149 24.5996 1.7611 24.5869 1.50867 24.6057C1.0641 24.6388 2.39745 24.6765 2.84158 24.715C9.57889 25.2989 16.2835 26.2621 22.9719 27.2442C25.961 27.6832 28.7172 28.0998 31.6741 28.5935C32.6779 28.7611 35.6332 29.2488 34.624 29.3802C33.9525 29.4676 30.8831 29.4977 30.6253 29.5004C26.6652 29.5404 22.7039 29.5222 18.7437 29.5222C16.3856 29.5222 14.0275 29.5222 11.6694 29.5222C10.209 29.5222 14.5902 29.5227 16.0506 29.5277C18.6577 29.5366 21.0975 29.5406 23.7094 29.6041C26.0877 29.662 28.9426 29.5214 31.3027 30.1013C32.6994 30.4444 28.4308 30.2983 26.9925 30.3034C23.3779 30.3161 19.7634 30.3056 16.1489 30.3525C14.3078 30.3765 12.6012 30.4149 10.7735 30.4618C10.3984 30.4714 10.0233 30.4833 9.6482 30.4946C9.09331 30.5113 9.29695 30.5055 9.8394 30.5055C15.6902 30.5055 21.5544 30.3959 27.4022 30.6038C30.4891 30.7136 39.7114 31.6702 36.6343 31.4014C30.2558 30.8442 23.9112 29.8466 17.5583 29.0633C14.6309 28.7024 12.119 28.4155 9.22211 28.0309C8.24873 27.9016 7.27511 27.7729 6.30499 27.6212C5.67968 27.5234 5.05444 27.4203 4.43671 27.2825C4.10613 27.2087 3.72038 27.2092 3.46434 26.9875C3.35591 26.8936 3.68438 26.7815 3.82488 26.7526C4.92938 26.5255 7.61356 26.514 8.39177 26.5013C12.3931 26.4357 16.3973 26.474 20.3989 26.474C24.252 26.474 35.8106 26.3816 31.9582 26.4521C24.3479 26.5915 16.8355 27.6262 9.27674 28.4187C6.27278 28.7337 5.40732 28.7944 2.64492 28.9541C2.15897 28.9822 1.67221 28.9952 1.18636 29.0251C0.752696 29.0518 0.0819753 29.0791 0.896835 29.1398C7.96086 29.6663 15.065 29.5965 22.1416 29.7462C24.5426 29.797 26.9829 29.8373 29.3798 30.0739C31.2681 30.2604 31.2256 30.4952 29.5764 30.7568C25.592 31.3888 21.5701 31.8222 17.5747 32.3847C16.9719 32.4696 16.366 32.665 15.7611 32.5977C14.934 32.5058 17.3369 32.0315 18.1592 31.904C20.857 31.4857 23.5897 31.3256 26.3151 31.232C27.2051 31.2015 29.8769 31.2028 28.9864 31.1938C23.9837 31.1435 18.9817 31.0288 13.9802 30.9097C13.0934 30.8886 12.2065 30.8703 11.3198 30.8442C10.8234 30.8296 9.3804 30.9373 9.83394 30.7349C10.6886 30.3536 12.3664 30.4289 13.2209 30.3744C16.3206 30.1765 19.5632 30.0699 22.6496 30.5055C23.7935 30.6669 23.6224 31.0311 22.524 31.2703C20.2267 31.7705 17.7813 31.7088 15.4497 31.5981C14.8809 31.571 13.2011 31.3648 13.7671 31.3031C16.7936 30.9731 20.0077 31.1682 23.0375 31.2375C25.6368 31.297 27.3079 31.3655 29.8386 31.5926C30.525 31.6542 31.2123 31.7174 31.8926 31.8275C32.9066 31.9915 32.3278 32.0829 31.7724 32.1662C27.6451 32.7853 23.4604 33.3532 19.29 33.5428C17.5568 33.6216 15.5746 33.7799 13.8327 33.51C13.3047 33.4282 14.8672 33.2088 15.4005 33.1768C19.9511 32.9041 24.6405 33.1308 29.1394 33.8487C30.0634 33.9962 32.1695 34.4252 33.2037 34.8211C34.6251 35.3651 32.1063 35.6329 32.0948 35.635C28.0775 36.3762 23.9906 36.4163 19.9182 36.3616C17.5417 36.3297 15.135 36.308 12.7675 36.0666C11.5843 35.946 12.1627 35.7999 12.8931 35.6842C17.0083 35.0324 21.2785 35.0248 25.4302 35.1926C28.0345 35.2978 29.4513 35.4246 32.0292 35.7279C32.9287 35.8337 33.8259 35.9592 34.7224 36.0885C35.2536 36.165 35.7834 36.2524 36.312 36.3452C36.5301 36.3835 36.785 36.3489 36.9621 36.4818C37.0668 36.5603 36.7048 36.5342 36.5742 36.5419C36.1432 36.5671 35.7113 36.5738 35.2796 36.5801C32.2668 36.6243 29.245 36.6389 26.2332 36.5473C22.6187 36.4375 19.0264 36.1335 15.4387 35.6842C13.658 35.4612 11.7254 35.2815 9.9869 34.7719C9.42776 34.608 9.62496 34.5813 10.1071 34.5753C12.2191 34.5489 14.4022 34.7581 16.4876 35.0505C19.2086 35.4322 21.8278 36.0994 24.425 36.9844C25.8294 37.4629 27.5746 37.9548 28.8663 38.7434C28.9372 38.7867 29.0554 38.9154 28.9864 38.9619C28.8111 39.08 28.5743 39.0634 28.3637 39.0821C26.3159 39.264 24.2213 39.2278 22.1689 39.2459C19.2629 39.2716 16.3564 39.2569 13.4503 39.2569C13.2399 39.2569 13.4307 39.2533 13.718 39.306C15.0864 39.5574 16.4331 39.9725 17.7659 40.3604C20.8749 41.2651 23.99 42.1911 27.0471 43.2611C29.0952 43.9779 22.8649 42.1023 20.7813 41.4966C17.0114 40.4007 13.2378 39.3636 9.40784 38.4975C7.82175 38.1389 6.02631 37.9211 4.50227 37.2903C4.15694 37.1473 4.02997 36.9924 4.48042 36.8642C6.27788 36.3526 8.40178 36.3943 10.2327 36.3452C14.6488 36.2268 19.0735 36.3137 23.4909 36.307C24.2812 36.3058 25.0822 36.415 25.8617 36.2851C25.934 36.2731 25.7369 36.2013 25.6651 36.1868C24.6414 35.9807 21.5078 35.5857 21.0381 35.5258C16.811 34.9871 12.5795 34.5194 8.32621 34.242C5.84425 34.0802 3.33391 34.1051 0.858595 33.8433C0.630792 33.8192 -0.438082 33.7201 0.508978 33.6084C2.76537 33.3421 5.11048 33.3715 7.37569 33.3243C11.9355 33.2292 16.6141 33.0569 21.1637 33.4663C21.3716 33.485 21.9465 33.6253 21.7483 33.6903C20.6701 34.0435 18.8878 33.735 17.8642 33.6302C15.4378 33.3819 13.017 33.0019 10.6479 32.4175C10.2198 32.3119 9.7944 32.1934 9.37506 32.0569C9.12077 31.9742 8.44751 31.8028 8.67583 31.6636C9.27575 31.2978 10.0713 31.4795 10.7735 31.456C14.0155 31.3475 17.2651 31.3905 20.5082 31.3905C22.3801 31.3905 24.2833 31.461 26.1567 31.3905C26.2438 31.3872 26.4832 31.3936 26.4135 31.3413C26.2696 31.2334 26.0707 31.23 25.8945 31.1938C25.2816 31.0678 24.6642 30.9643 24.0481 30.8551C17.1285 29.6295 10.182 28.6177 3.21305 27.7195C2.11544 27.578 -1.11245 27.3532 -0.0427628 27.0694C1.66948 26.6151 3.87507 26.8018 5.59482 26.7908C9.83121 26.7637 14.1874 26.7246 18.3668 27.5283C18.7899 27.6096 19.7638 27.8113 18.5744 27.7577C15.1032 27.6014 11.5964 27.0074 8.16233 26.5505C6.77947 26.3664 -1.08178 25.2911 -2.68675 25.0755C-3.83355 24.9215 -4.98058 24.7691 -6.1283 24.6221C-6.74326 24.5433 -7.35963 24.4759 -7.97472 24.3981C-8.12264 24.3794 -8.36485 24.4722 -8.4172 24.3326C-8.46522 24.2045 -8.14424 24.3123 -8.00749 24.3107C-6.82033 24.2966 -5.633 24.3107 -4.44576 24.3107C-1.36714 24.3107 1.71389 24.2758 4.7918 24.3599C7.77351 24.4413 9.29664 24.5374 12.2649 24.7532C13.2834 24.8272 14.3006 24.918 15.3186 24.999C16.0351 25.056 18.1492 25.368 17.4709 25.1301C17.187 25.0306 16.8782 25.0256 16.5805 24.9826C14.8093 24.7268 13.0323 24.513 11.2597 24.267C8.12342 23.8317 4.98935 23.3735 1.88013 22.7702C1.69417 22.7341 -0.219432 22.3449 -0.643668 22.1912C-0.756709 22.1502 -0.907501 22.0997 -0.938658 21.9836C-1.04396 21.5911 -0.241091 21.5382 0.153898 21.4428C4.67837 20.3493 9.50627 20.5183 14.1277 20.4704C17.0708 20.4399 8.25184 20.1078 5.31076 19.9951C1.57497 19.852 3.58688 19.9527 0.39426 19.864C0.0426556 19.8542 -0.309648 19.8509 -0.660056 19.8203C-1.24948 19.7689 -0.924551 19.6912 -0.556264 19.6455C2.89468 19.2173 6.50763 19.4925 9.97597 19.4925C11.7728 19.4925 13.5766 19.4536 15.3732 19.5035C16.5135 19.5351 15.3568 19.6382 15.2202 19.6455C14.1745 19.7014 12.657 19.8705 11.6476 19.5035C11.1339 19.3167 12.7405 19.5317 13.2864 19.5581C16.0538 19.6918 18.8197 19.8051 21.5898 19.8695C24.3427 19.9334 26.3083 19.9541 29.0356 19.9733C29.9333 19.9796 30.8311 19.9913 31.7287 19.9842C32.2115 19.9804 32.6957 19.9852 33.1764 19.9405C33.3261 19.9266 33.6836 19.9393 33.6079 19.8094C33.4929 19.6117 33.1854 19.6291 32.9633 19.5745C31.793 19.2866 30.6804 19.1834 29.4672 19.1211C27.3828 19.0141 25.3018 19.1051 23.2287 19.3287C22.8083 19.374 22.394 19.4733 21.9722 19.5035C21.3094 19.5508 23.2869 19.2989 23.9498 19.2522C28.9603 18.8991 34.0078 19.0246 39.027 19.0009C39.712 18.9977 41.7556 19.0544 41.081 18.9353C38.8212 18.5366 36.2434 18.6455 33.9794 18.5748C30.3018 18.4599 26.6238 18.421 22.9446 18.4109C21.244 18.4063 19.3887 18.5689 17.6839 18.3836C17.6183 18.3765 17.4538 18.3449 17.5037 18.3017C17.6414 18.1823 17.8386 18.1565 18.0117 18.0995C19.8987 17.479 21.9079 17.1654 23.8733 16.936C27.5806 16.5033 31.3219 16.4443 35.0501 16.4443C37.2985 16.4443 30.564 16.1155 28.3309 15.8543C25.8234 15.5611 23.1513 15.3864 20.683 14.8109C19.7163 14.5856 22.6023 14.268 23.5892 14.1609C25.6983 13.9319 28.0216 13.7573 30.1336 13.6474C31.5557 13.5734 35.7669 13.2463 34.4055 13.6638C34.3049 13.6946 32.6794 13.963 32.6465 13.9697C32.4911 14.0012 32.2925 13.9764 32.1876 14.0953C31.915 14.4043 33.0104 14.1762 33.4222 14.1609C34.9011 14.1057 36.5564 13.951 38 13.7785C40.852 13.4376 43.8037 13.106 46.5875 12.3636C48.7857 11.7774 46.113 11.5747 45.5824 11.5387C42.231 11.3115 38.8232 11.4505 35.4817 11.7409C31.925 12.0499 28.3277 12.6099 24.8347 13.3633C23.766 13.5938 27.0086 13.1278 28.096 13.0137C31.5308 12.6533 34.9678 12.3141 38.4152 12.0959C40.6924 11.9518 42.2549 11.9007 44.4679 11.8447C44.8302 11.8355 45.1928 11.8377 45.555 11.8283C46.1721 11.8122 44.3205 11.8228 43.7032 11.8228C40.9499 11.8228 38.196 11.8164 35.4434 11.8884C33.5595 11.9376 31.6725 12.1374 29.7895 12.1615C29.3619 12.167 29.0021 12.1916 29.5327 11.8938C30.6306 11.2776 31.9286 10.8988 33.1163 10.5117C34.0898 10.1945 34.7246 10.018 35.6838 9.75787C36.3459 9.57829 36.5211 9.57702 35.7002 9.61584C33.2712 9.73073 30.8381 9.76885 28.4074 9.83435C28.2053 9.8398 28.0031 9.84513 27.801 9.85074C27.5349 9.85813 27.5841 9.8562 27.8119 9.8562C28.5312 9.8562 29.2505 9.8562 29.9697 9.8562C30.618 9.8562 31.2662 9.8562 31.9145 9.8562C32.1403 9.8562 32.3661 9.8562 32.5919 9.8562C32.7121 9.8562 32.8322 9.8562 32.9524 9.8562C33.0307 9.8562 32.7958 9.8562 32.7175 9.8562C29.4035 9.8562 26.0917 9.69102 22.7916 9.3864C22.3008 9.3411 22.2114 9.33435 22.8408 9.31539C25.0553 9.24869 27.274 9.26847 29.489 9.26622C31.5448 9.26414 33.6007 9.26622 35.6565 9.26622C36.048 9.26622 36.4395 9.26622 36.831 9.26622C36.9657 9.26622 37.37 9.26622 37.2352 9.26622C37.0823 9.26622 36.9293 9.26622 36.7764 9.26622C32.5729 9.26622 28.3814 9.24046 24.2065 9.8125C23.6611 9.88724 22.1278 10.1213 21.3932 10.3369C20.9317 10.4724 22.3554 10.4118 22.8353 10.3806C24.8941 10.247 26.9533 10.0136 28.9974 9.73602C31.2614 9.42857 24.572 10.8888 22.3273 11.3148C21.8058 11.4137 21.2799 11.4887 20.7595 11.5934C20.5819 11.6291 20.1725 11.5655 20.2351 11.7354C20.3047 11.9245 20.6346 11.7953 20.836 11.801C21.7509 11.8264 25.0647 11.7871 25.6541 11.7791C27.9071 11.7484 30.2894 11.8673 32.5372 11.6152C33.4041 11.518 30.8082 11.3637 29.937 11.3202C26.9548 11.1716 23.9706 11.3213 20.9889 11.2219C20.1349 11.1934 21.1202 10.9187 21.3495 10.8395C22.8955 10.3051 24.4935 9.92664 26.0857 9.56121C29.513 8.77462 32.9702 8.08461 36.3612 7.14667C36.5985 7.08103 37.2475 6.83266 37.0058 6.78612C35.5263 6.50131 33.7745 6.63114 32.2914 6.63863C30.7654 6.64634 29.8077 6.67522 28.32 6.76427C27.6258 6.80583 26.5147 7.07103 25.7852 6.96093C25.7361 6.95351 25.8696 6.90685 25.9164 6.88992C26.2588 6.76584 27.5485 6.37953 27.6918 6.33818C29.2579 5.88604 30.836 5.53012 32.4389 5.23469C33.3216 5.07201 34.4683 4.88453 35.367 4.75397C35.6301 4.71574 37.6227 4.58127 35.6073 4.65018C31.1369 4.80301 26.6712 4.58443 22.2126 4.26232C21.4286 4.20568 20.6379 4.18986 19.8636 4.05473C19.5391 3.99811 20.4739 3.7926 20.7977 3.73243C23.3039 3.26681 26.1214 2.74184 28.6805 2.98949C28.9381 3.01442 28.829 3.0682 28.6587 3.13699C28.028 3.39166 27.295 3.45174 26.6265 3.49753C26.0796 3.53499 25.1754 3.55297 24.6162 3.51938C24.2493 3.49734 23.3866 3.40091 24.3321 3.15884C26.7668 2.53558 29.3527 2.38041 31.8271 1.9461C32.2955 1.86389 33.5395 1.71555 32.1111 1.70028C29.7822 1.67537 27.4469 1.69276 25.1188 1.73852C22.3194 1.79353 19.8743 1.87074 17.0776 2.06628C14.8508 2.22198 12.4184 2.34143 10.2163 2.82015C9.38352 3.00119 11.9207 2.86343 12.7729 2.85292C14.9417 2.82619 17.1102 2.79354 19.2791 2.78191C19.4996 2.78072 21.6141 2.72491 22.1525 2.85839C22.2754 2.88885 22.4813 2.98386 22.442 3.10421C22.3625 3.3478 22.0994 3.48947 21.8958 3.64503C21.5105 3.93936 21.1022 4.20442 20.683 4.44805C17.9892 6.01375 14.9733 7.35993 11.8879 7.90053C11.7817 7.91914 11.4633 7.96843 11.5711 7.96608C13.222 7.93019 14.8683 7.89715 16.5204 7.91146C19.9557 7.9412 23.5688 7.89738 26.9652 8.51236C27.0233 8.52289 27.1707 8.59953 27.1127 8.61069C26.7848 8.67376 26.4468 8.66507 26.113 8.67624C22.4759 8.79803 18.8313 8.81204 15.1929 8.86744C12.1028 8.9145 9.00255 9.00678 5.91166 8.92753C5.48333 8.91655 5.05498 8.89674 4.62791 8.86198C3.6198 8.77992 4.02344 8.7259 4.86281 8.71448C10.6428 8.63584 16.4458 9.2047 22.158 10.0419C22.8929 10.1497 23.6256 10.2718 24.3595 10.3861C24.9272 10.4745 26.6148 10.588 26.0529 10.7084C25.7732 10.7683 25.4813 10.7474 25.1953 10.7412C23.0882 10.6957 20.9367 10.5173 18.8475 10.326C12.4886 9.74374 6.1429 8.82199 -0.255811 8.87837C-2.42478 8.89748 0.216121 9.05359 0.263153 9.05864C3.17238 9.3707 6.06799 9.76567 8.96536 10.173C9.14424 10.1982 15.827 11.1493 16.2964 11.2164C17.4687 11.3842 20.9666 11.771 19.7871 11.8774C18.416 12.0012 17.034 11.9188 15.6573 11.9211C12.0394 11.9273 8.42052 11.939 4.80272 11.9102C4.48826 11.9077 2.06161 11.9257 1.35025 11.7736C0.232007 11.5346 3.56759 11.133 4.70985 11.0799C5.68486 11.0345 6.66252 11.0163 7.6379 11.0526C7.93659 11.0637 9.64855 10.7198 9.48978 11.648C9.46219 11.8093 9.14335 11.9764 9.26581 12.085C9.58076 12.3644 10.0449 12.4182 10.4567 12.5057C11.3538 12.6961 12.2698 12.7823 13.1772 12.9154C14.5812 13.1213 17.0291 13.4079 18.4979 13.8003C18.7955 13.8798 19.2032 13.9063 19.3392 14.1827C19.4255 14.3583 19.0184 14.4333 18.8257 14.4668C18.1345 14.5868 17.4286 14.6019 16.728 14.6361C13.0166 14.8175 9.29677 14.7519 5.5839 14.9038C4.64168 14.9424 3.70012 14.9987 2.75964 15.0677C2.2103 15.108 1.66215 15.1652 1.11535 15.2316C0.971414 15.249 0.784725 15.2099 0.689249 15.319C0.612507 15.4067 0.922395 15.3229 1.03887 15.319C1.46147 15.3047 1.88362 15.2783 2.30623 15.2644C4.87866 15.1792 7.45692 15.1491 10.0306 15.166C15.2156 15.2002 20.2956 15.8515 25.4247 16.5426" stroke="#DA8E1B" stroke-width="1.2" stroke-linecap="round"/>
<path d="M15.9844 16.7393C15.8715 16.7029 15.638 16.7485 15.6457 16.6301C15.6548 16.4879 15.8718 16.448 16.0062 16.4006C16.45 16.2443 16.9093 16.135 17.3664 16.0237C20.0704 15.3655 22.8148 14.9844 25.5934 14.8547C27.3395 14.7731 29.1083 14.738 30.854 14.8601C31.3838 14.8972 32.2192 14.993 32.766 15.1442C32.9785 15.203 33.424 15.2816 33.3341 15.4829C33.2836 15.5961 33.1305 15.6327 33.0118 15.6686C32.1208 15.9382 30.7915 16.0142 29.9745 16.0619C25.5028 16.3233 21.0106 16.1356 16.5361 16.0619C15.8023 16.0499 15.0684 16.0437 14.3346 16.0292C13.8206 16.019 13.2557 16.179 12.7941 15.9527C12.5633 15.8396 13.2667 15.7452 13.5152 15.6796C14.4631 15.4291 18.1724 18.0473 19.1008 17.8904C21.7148 17.4487 24.3564 17.1816 27 17C29.8252 16.8059 30.2425 13.7668 33.0501 14.2428C33.6015 14.3364 34.9093 14.415 34.6015 14.882C34.4485 15.1142 33.4542 15.4838 33.3888 15.5047C32.3685 15.8316 31.0614 16.0731 30.0237 16.1931C27.6109 16.472 25.1732 16.457 22.7527 16.3132C21.1984 16.2209 19.5619 16.1122 18.0329 15.7724C17.8051 15.7218 18.4933 15.6809 18.7267 15.6796C21.9885 15.6612 25.2682 15.9677 28.505 16.3351C31.5083 16.676 34.4942 17.1439 37.4749 17.6407C38.5083 17.8129 39.9608 18.0548 41.0421 18.2689C41.3633 18.3325 42.1735 18.2674 41.9872 18.5366C41.9386 18.6068 41.8212 18.5847 41.7359 18.5858C40.9648 18.5956 39.2147 18.4504 38.6877 18.4109C34.3894 18.0894 30.1016 17.8379 25.7955 17.6571C24.0774 17.5849 22.3659 17.5017 20.6714 17.1927C20.5287 17.1667 18.9101 16.9791 19.7427 16.5154C20.7132 15.9748 22.0201 15.8173 23.086 15.6577C26.5092 15.145 29.9671 15.0866 33.4215 15.0677C36.109 15.053 38.7971 15.0677 41.4846 15.0677C42.2949 15.0677 43.1052 15.0677 43.9155 15.0677C44.1413 15.0677 43.4639 15.0677 43.2381 15.0677C36.7474 15.0677 30.4196 15.8714 24.0037 16.7721C22.7603 16.9467 21.5138 17.111 20.2726 17.302C19.7545 17.3817 21.314 17.1804 21.835 17.1217C26.1181 16.6391 30.5776 16.5182 34.8309 17.3075C35.4469 17.4218 37.1479 17.5842 36.6118 17.9084C36.3262 18.0811 35.0066 18.1416 34.9784 18.1433C33.7113 18.2196 32.7822 18.217 31.4932 18.187C30.104 18.1546 28.6488 18.1393 27.2705 17.9193C26.3439 17.7714 29.1401 17.7253 30.0783 17.7226C32.7405 17.715 35.4027 17.7226 38.0649 17.7226C40.9086 17.7226 32.3592 17.7218 29.543 18.116C29.3315 18.1456 29.1224 18.1917 28.9147 18.2416C28.8341 18.261 28.7359 18.2624 28.6798 18.3235C28.6403 18.3667 28.7976 18.3202 28.8547 18.3072C29.8185 18.0873 30.7094 17.6032 31.5915 17.1764C32.4061 16.7822 33.2244 16.411 34.0771 16.1057C34.432 15.9786 34.9451 15.7559 35.3444 15.8216C35.7582 15.8897 36.2123 16.1429 36.6063 16.2586C37.9497 16.6532 39.3372 16.8822 40.7143 17.1217C41.4405 17.248 42.2749 17.2979 42.9814 17.526C43.741 17.7712 43.4824 18.9204 43.3856 19.4816C43.1388 20.9136 42.6281 22.2741 41.7632 23.4531C40.9355 24.5813 40.2243 25.176 39.1301 26.0315C38.9523 26.1706 37.6574 27.1541 37.1854 27.3153C36.6533 27.4969 37.3676 26.1952 37.5842 25.6764C38.3444 23.8556 39.1817 22.0675 39.8895 20.2246C40.3544 19.0138 40.7415 17.7871 41.1022 16.5427C41.5025 15.1615 41.2661 15.9991 41.2224 16.1275C40.8696 17.1638 40.7435 17.5339 40.2336 18.6895C39.2977 20.8109 38.2019 22.8492 36.7538 24.6713C35.1668 26.6682 33.2118 28.3413 31.1599 29.8391C30.8277 30.0816 29.9348 30.802 30.0674 30.4127C30.5166 29.0932 32.2099 27.849 33.2249 27.0531C34.8318 25.7929 36.5832 24.7061 38.3817 23.7426C39.5256 23.1298 40.9164 22.3363 42.2385 22.1475C42.5229 22.1068 41.9506 22.665 41.7195 22.8358C39.5808 24.4165 36.8777 25.0766 34.3393 25.6928C32.0284 26.2538 29.6754 26.7397 27.3251 27.1077C26.8973 27.1747 26.4679 27.237 26.0359 27.2661C25.8177 27.2808 25.5708 27.3462 25.3803 27.2388C25.0553 27.0555 25.9158 26.6963 26.2544 26.5396C28.3271 25.5798 30.6307 25.07 32.8643 24.6768C35.1558 24.2733 36.8766 24.0848 39.1848 23.9611C39.8076 23.9278 42.1165 23.8048 43.0142 24.0485C45.0643 24.6052 38.9013 25.2005 36.7866 25.4033C29.0153 26.1486 21.202 26.3681 13.4387 27.206C12.5757 27.2992 9.99278 27.6297 10.8548 27.5283C12.5692 27.3266 14.2773 27.0618 15.9844 26.8072C21.3668 26.0045 26.8087 25.1322 32.2525 24.8898C32.9072 24.8606 34.3885 24.8219 33.0173 25.6218C30.4015 27.1477 27.0986 27.6123 24.1567 28.0309C22.0084 28.3366 19.8424 28.5264 17.6778 28.67C17.3292 28.6932 15.7291 28.9453 16.924 28.375C18.5072 27.6194 20.1903 27.0974 21.8896 26.6761C25.6668 25.7396 29.5469 25.16 33.4161 24.7696C33.8906 24.7217 34.3656 24.676 34.8419 24.6494C35.117 24.6341 35.8238 24.5361 35.6613 24.7587C35.3398 25.199 34.6623 25.2124 34.1317 25.3377C32.6139 25.6963 30.6821 25.9705 29.1824 26.179C25.9246 26.6319 22.6524 27.0755 19.3822 27.43C19.1232 27.4581 14.3182 28.2763 14.3182 27.0094C14.3182 26.2712 16.5947 25.7666 16.8256 25.6983C20.5659 24.5916 24.4494 23.8534 28.3412 23.5787C30.6531 23.4155 33.0003 23.4225 35.3117 23.5951C36.1363 23.6567 38.5524 24.0398 37.7317 24.1414C35.9633 24.3603 33.9686 24.1436 32.2197 24.0158C27.8552 23.6968 23.52 23.082 19.1965 22.4206C18.4579 22.3076 16.2634 22.0292 17.0059 21.9454C19.5176 21.6618 22.0966 21.6311 24.621 21.5794C26.3879 21.5431 28.1581 21.5464 29.9254 21.5575C30.0064 21.558 31.3742 21.5579 31.6516 21.6231C31.797 21.6572 31.4741 21.8862 31.3348 21.9399C30.4017 22.2991 29.4199 22.5453 28.4723 22.8631C28.3925 22.8899 26.9034 23.5715 26.7406 23.4203C26.6424 23.3292 26.5847 22.7025 26.5494 22.6064C26.3419 22.0419 26.0214 21.4955 25.6098 21.0549C25.4364 20.8694 25.298 20.846 25.0853 20.9675C24.94 21.0505 25.4262 21.1654 25.4131 21.1642C24.6971 21.0966 23.972 20.9464 23.2662 20.831C20.2997 20.3457 17.3265 19.9127 14.3455 19.5254C12.8977 19.3372 11.4506 19.1588 9.99715 19.0228C9.31179 18.9586 11.3737 19.0009 12.0621 19.0009C17.5297 19.0009 22.9994 19.0478 28.4668 18.9955C28.7309 18.9929 28.9958 19.0025 29.2589 18.9791C29.8215 18.9291 28.1302 18.9309 27.5654 18.9244C24.1314 18.8849 20.6968 18.9092 17.2626 18.9026C14.6643 18.8976 12.0643 18.899 9.46726 18.8043C8.66473 18.775 7.49226 18.6775 9.0357 18.6677C13.4505 18.6396 17.9161 19.4795 22.2556 20.2027C22.8958 20.3094 23.5349 20.4231 24.1731 20.5414C24.8207 20.6615 25.5366 20.6341 26.1014 20.973C26.4545 21.1848 25.2781 21.0379 24.8668 21.0167C22.9893 20.9197 21.8262 20.8006 19.8356 20.5196C14.2186 19.7266 8.64069 18.534 3.1359 17.1764C-0.119333 16.3735 -6.90162 14.584 -10.1605 13.3306C-10.3963 13.2399 -15.8696 11.2204 -11.3842 11.1455C-9.3271 11.1111 -7.27622 11.4122 -5.23307 11.6535C-1.39072 12.1072 2.98044 12.8379 6.81235 13.7075C7.85445 13.944 10.4836 16.5823 9.5 17C8.64427 17.3634 7.54321 15.482 6.65393 15.4938C4.94087 15.5166 3.15946 15.4599 1.47522 15.1114C0.963284 15.0055 0.616021 14.8085 1.37689 14.6362C4.01098 14.0394 7.35763 16.3184 10 16.5C12.1281 16.6462 13.9913 15.0227 16.1045 15.319C16.367 15.3558 17.1453 15.4923 16.8802 15.4938C16.1599 15.4978 14.1417 15.287 13.7446 15.2425C11 16 8.04376 14.5028 5.20629 14.0571C3.17149 13.7375 1.03757 13.4761 -0.868316 12.6423C-1.05334 12.5613 -1.23348 12.4688 -1.40913 12.3691C-1.52391 12.304 -1.79016 12.2263 -1.71505 12.1178C-1.58043 11.9234 -1.2516 12.0159 -1.01581 11.9976C-0.203879 11.9348 1.17972 11.8884 1.91224 11.8884C7.30471 11.8884 12.6635 12.7725 17.9564 13.7348C18.0285 13.7479 18.2424 13.7822 18.1695 13.7894C17.5493 13.8506 16.9234 13.7575 16.3012 13.7239C11.998 13.4911 7.7216 12.9697 3.43089 12.5876C1.1236 12.3822 -1.20345 12.1766 -3.52322 12.2325C-4.69153 12.2607 -3.42509 12.3018 -3.34295 12.3036C-2.12134 12.3297 -0.899144 12.3156 0.32257 12.3363C6.38468 12.4393 12.3686 12.9165 18.3661 13.7785C18.6373 13.8175 19.446 13.9291 19.1855 13.8441C17.5625 13.3141 15.9601 12.8133 14.3783 12.1561C14.3622 12.1494 12.1161 11.3672 12.0184 10.9706C11.8968 10.4773 14.213 9.91445 14.3237 9.88901C15.7307 9.56552 17.1886 9.45731 18.6229 9.33181C19.4345 9.26079 21.8587 9.29242 21.0593 9.13515C16.944 8.32559 12.6671 8.22435 8.50035 7.81316C8.14872 7.77846 9.20679 7.79131 9.56013 7.79131C13.0362 7.79131 16.5125 7.78327 19.9886 7.79677C22.1976 7.80535 24.4226 7.78111 26.6258 7.97704C27.2928 8.03635 29.2339 8.38857 28.5706 8.47962C26.9709 8.69918 25.2839 8.32543 23.7033 8.58887C23.4832 8.62554 24.0056 8.92818 24.2004 9.03682C26.3685 10.2459 28.7422 11.0703 31.1053 11.801C31.951 12.0625 32.8041 12.2994 33.6564 12.5385C34.7597 12.8479 35.9518 12.9418 36.9614 13.4835C37.6145 13.8339 35.4774 13.5577 34.7381 13.5054C32.7851 13.3672 28.2159 12.9633 26.5166 12.828C22.8004 12.5321 19.078 12.3651 15.3616 12.085C14.2404 12.0006 9.90166 11.6077 14.3564 11.2656C19.4484 10.8747 24.498 10.27 29.5992 10.0572C33.3749 9.89972 37.2369 9.92702 41 9.5C42.0232 9.38389 41.3425 9.69205 40.7526 9.56124C38.151 8.98446 35.5058 8.58873 32.8643 8.25018C32.6536 8.22317 28.0823 7.88699 28.0516 7.45808C28.0053 6.80949 28.8778 6.10283 29.1933 5.60619C29.2911 5.45234 29.4337 5.21632 29.4337 5.02168C29.4337 4.89572 29.2665 4.94738 29.1879 4.9452C28.7033 4.93174 27.946 4.94561 27.5272 4.95612C26.0527 4.99314 24.5772 5.05854 23.1078 5.19102C22.8723 5.21226 22.6371 5.23841 22.4031 5.27297C22.3162 5.28581 22.1857 5.25444 22.1464 5.33306C22.0258 5.57423 22.6579 5.50853 22.9221 5.56249C26.9654 6.38841 31.1099 6.21934 35.186 6.76977C35.8608 6.86089 37.2789 6.92562 37.8245 7.52909C38.5384 8.31866 38.2985 10.2828 37.9993 11.1455C37.1334 13.6427 34.8868 15.8479 33.1211 17.6735C29.5464 21.3695 25.6988 24.2327 20.9063 26.1408C19.1503 26.8399 17.1383 27.608 15.2086 27.7086C14.1707 27.7627 17.2725 27.4283 18.3115 27.4027C20.4467 27.35 22.5836 27.359 24.7193 27.359C24.7712 27.359 28.2405 27.3656 25.6316 27.4081C19.6287 27.5059 13.6188 27.6186 7.61538 27.654C6.10992 27.6628 7.83757 27.6899 7.93222 27.6977C11.0237 27.9513 14.0447 28.7483 17.0277 29.5605C19.6698 30.2798 22.3184 31.0393 24.9105 31.9259C25.3467 32.075 25.7815 32.2305 26.2052 32.412C26.4455 32.515 26.7739 32.5484 26.899 32.778C26.9686 32.9058 26.6807 32.9933 26.5384 33.0239C26.0227 33.1346 25.4917 33.1619 24.9652 33.1932C22.0234 33.3684 19.0611 33.3387 16.1155 33.3516C15.6989 33.3535 13.2699 33.3488 12.581 33.379C11.8231 33.4121 11.7231 33.4273 12.5046 33.6248C14.7359 34.1888 17.0148 34.6234 19.262 35.1161C22.7782 35.8871 26.424 36.4656 29.8598 37.5634C29.9801 37.6019 30.302 37.6798 30.193 37.7437C30.0061 37.8533 29.7593 37.762 29.543 37.7492C28.8391 37.7074 28.1372 37.636 27.4343 37.5798C22.0587 37.1502 16.6818 36.7853 11.2973 36.4873C10.5507 36.446 9.80297 36.4207 9.05755 36.3616C8.69888 36.3332 8.33683 36.3085 7.98685 36.2251C7.85591 36.1938 7.56925 36.1391 7.63723 36.0229C7.75857 35.8156 8.05903 35.7865 8.2873 35.7116C8.80471 35.5416 9.33421 35.4082 9.86604 35.2909C11.4903 34.9328 13.9352 34.5289 15.5364 34.3186C18.5248 33.926 21.5167 33.7734 24.5227 33.6084C25.2946 33.566 27.4774 33.6717 26.817 33.2697C26.4109 33.0225 25.9116 32.9722 25.4459 32.8764C24.4056 32.6623 23.3555 32.4965 22.3048 32.341C18.5561 31.7863 14.8212 31.5065 11.0351 31.4124C9.93471 31.385 7.48581 31.3954 6.22783 31.3031C6.00628 31.2868 5.76926 31.2857 5.5723 31.1829C5.51061 31.1507 5.6603 31.0658 5.72526 31.0409C7.5565 30.3377 9.86756 31.3755 11.6742 31.6473C12.3846 31.7541 13.0949 31.8261 13.8102 31.8822C14.1696 31.9103 13.09 31.9508 12.7395 32.0351C9.3619 32.8474 5.80011 32.643 2.35472 32.2755C-1.08033 31.9091 9.25214 31.788 12.7067 31.7838C13.5862 31.7828 16.2247 31.7838 15.3452 31.7838C13.6033 31.7838 11.8544 31.9384 10.1228 32.1061C8.59404 32.2542 6.48712 32.2547 5.04787 32.9529C4.74044 33.102 4.42112 33.5122 4.85121 33.816C5.67302 34.3964 8.02408 34.8998 8.66423 35.0396C12.1497 35.8012 15.6977 36.3209 19.2238 36.8533C21.7715 37.2379 20.3852 37.0268 22.059 37.2521C22.5933 37.324 22.232 37.2903 21.6383 37.2903C18.1075 37.2903 7.52047 37.098 11.046 37.2903C12.8766 37.3902 14.702 37.5713 16.5252 37.7601C18.3879 37.953 20.0531 38.139 21.8951 38.3829C22.6017 38.4764 23.3458 38.4638 24.0037 38.7379C24.0382 38.7523 23.9645 38.8172 23.9272 38.8199C22.5506 38.9205 21.1666 38.8388 19.7864 38.8199C17.6116 38.7901 14.1637 38.723 11.9747 38.6451C10.8075 38.6035 9.61891 38.6675 8.4785 38.4156C7.46034 38.1908 10.5553 38.2058 11.5977 38.1807C16.9456 38.0524 22.313 38.0229 27.6583 38.2572C29.2102 38.3252 33.7473 38.9369 32.3181 38.3282C31.6053 38.0247 28.4824 37.266 28.0025 37.1592C26.4798 36.8204 25.5746 36.6623 24.0802 36.5474C23.4176 36.4964 21.4357 36.5111 22.0917 36.4053C23.515 36.1758 25.0557 36.307 26.4893 36.307C27.5 36.307 28.6429 36.426 29.6522 36.2852C29.9068 36.2496 29.1836 36.06 28.9311 36.012C27.4256 35.7262 25.8238 35.5387 24.3096 35.4002C21.8243 35.1728 19.2063 35.2907 16.7437 34.8594C15.2033 34.5896 19.7404 33.895 21.2942 33.7176C25.0273 33.2916 28.7835 33.1456 32.5366 33.0293C33.3848 33.0031 35.9196 32.8474 35.0822 32.9856C33.8883 33.1827 32.6709 33.1917 31.4659 33.3025C27.0551 33.708 22.6409 34.1113 18.2405 34.619C12.6358 35.2657 17.8305 35.127 19.1091 35.127C20.0882 35.127 33.0938 35.0419 33.0938 35.422C33.0938 35.7969 24.1542 36.2845 23.0477 36.1923C22.9751 36.1862 22.7804 36.1917 22.8347 36.1431C23.2474 35.7738 23.9069 35.8607 24.4517 35.7607C27.9181 35.1248 31.4147 34.6709 34.8637 33.9362C36.148 33.6626 39.87 32.8618 38.5784 32.6251C37.279 32.3869 31.4877 32.2932 31.22 32.2864C27.4727 32.1916 24.6417 32.1404 20.9391 32.1007C19.8083 32.0885 18.6775 32.0891 17.5467 32.0788C16.4936 32.0693 15.3907 32.2952 14.3892 31.9696C13.8043 31.7794 15.5443 31.5287 16.1482 31.4124C17.4349 31.1644 21.0197 30.5886 22.201 30.3963C25.1175 29.9214 28.033 29.4388 30.9524 28.9814C31.6513 28.8719 32.355 28.7909 33.0501 28.6591C33.3071 28.6104 33.7588 28.6983 33.8039 28.4406C33.8448 28.2069 33.3594 28.2675 33.1265 28.2221C32.4431 28.0887 31.7501 28.0097 31.0616 27.9053C28.4232 27.5049 25.7862 27.1084 23.1297 26.8455C22.122 26.7457 21.0922 26.8008 20.1033 26.5833C20.0165 26.5642 19.8567 26.4568 19.9176 26.3921C20.0966 26.2016 20.3732 26.1319 20.6168 26.037C22.6903 25.229 24.9019 24.654 27.0519 24.1032C30.4737 23.2264 33.9912 22.7332 37.4039 21.8525C38.5482 21.5572 35.04 21.824 33.8586 21.8525C31.5772 21.9075 29.0027 21.7348 26.7569 22.2567C26.698 22.2704 26.8658 22.3191 26.9263 22.3223C27.9319 22.3749 30.8788 22.3183 31.4058 22.3059C33.8143 22.2493 35.5379 22.1914 37.901 22C38.5417 21.9481 40.448 21.765 39.8075 21.7105C37.9564 21.5529 35.7905 21.845 33.9897 22.213C33.2983 22.3543 31.6853 22.6831 32.1323 23.2291C32.4279 23.5901 34.2111 23.8416 34.4922 23.8846C37.0338 24.2742 34.5119 23.6498 35.3554 24.7041" stroke="#DA8E1B" stroke-width="1.2" stroke-linecap="round"/>
<path d="M19.9948 9.04028C19.8278 10.0238 19.7149 11.0164 19.6031 12.0074C19.502 12.9041 19.3081 13.8197 19.2555 14.7199C19.2029 15.6186 19.35 16.5566 19.2016 17.4471C19.0104 18.5947 19.2176 19.7921 19.0596 20.9528C18.9568 21.7083 18.8579 22.4662 18.712 23.2148C18.5449 24.072 18.2788 24.8944 18.2077 25.7707C18.1592 26.3684 18.2264 26.9708 18.1685 27.5676C18.1264 28.0021 18.1082 28.4241 18.1 28.8602C18.0946 29.1434 18.0665 29.4321 18.0559 29.717C18.0444 30.0272 17.9678 30.3233 17.9678 30.6424C17.9678 30.7566 17.9678 30.8709 17.9678 30.9851C17.9678 31.2155 18.016 31.1414 18.2567 31.1173C19.1715 31.0258 20.0827 31.1173 20.9912 31.1173C21.3422 31.1173 21.7828 31.308 22.1247 31.2373C22.2501 31.2113 22.2714 31.0646 22.2862 30.9606C22.3435 30.56 22.4103 30.1641 22.4845 29.766C22.6677 28.7838 22.771 27.8125 22.771 26.8136C22.771 26.1563 22.7535 25.4967 22.793 24.8404C22.8285 24.2507 22.9472 23.679 22.9472 23.0875C22.9472 22.5251 22.8979 21.9378 22.9668 21.3788C23.0329 20.8425 23.1439 20.3363 23.1773 19.7924C23.2188 19.1177 23.2998 18.4646 23.2998 17.7849C23.2998 17.2121 23.2998 16.6392 23.2998 16.0664C23.2998 14.2691 23.3879 12.4844 23.3879 10.6879C23.3879 10.3508 23.39 10.0101 23.4344 9.67679C23.4747 9.37461 23.8352 8.91109 23.3291 8.86891C22.8733 8.83093 22.4129 8.90808 21.9557 8.90808C21.6079 8.90808 21.259 8.94091 20.9104 8.95215C20.8035 8.9556 20.3601 8.98661 20.3131 9.13821C20.2003 9.5015 20.3375 10.0563 20.3914 10.4112C20.5206 11.2625 20.6493 12.108 20.6558 12.9719C20.6616 13.7493 20.7368 14.5833 20.6362 15.3564C20.5858 15.7439 20.5284 16.1131 20.5236 16.507C20.514 17.2931 20.4223 18.0379 20.2151 18.7984C20.109 19.1879 20.0177 19.5771 19.9214 19.9686C19.8479 20.267 19.7064 20.5382 19.6398 20.8377C19.2701 22.5013 19.1941 24.2389 18.9617 25.9273C18.8414 26.8015 18.8672 27.6679 18.7854 28.5444C18.7465 28.9613 18.6728 29.3821 18.6728 29.8002C18.6728 29.9643 18.6728 30.1283 18.6728 30.2923C18.6728 30.4104 18.9173 30.421 19.0107 30.4368C19.5323 30.5246 20.0711 30.5346 20.597 30.6228C20.8522 30.6656 21.1539 30.7857 21.4147 30.7648C21.6426 30.7466 21.5812 30.2235 21.5812 30.0744C21.5812 27.1004 21.6252 24.1278 21.6252 21.1535C21.6252 20.6436 21.7596 20.1475 21.8186 19.643C21.9111 18.8535 22.0098 18.0646 22.1981 17.2904C22.5677 15.7711 22.7365 14.2031 22.9644 12.6561C23.0474 12.0922 23.0354 11.5274 23.0354 10.9596C23.0354 10.6603 22.9668 10.4664 22.7024 10.2741C22.2981 9.98007 21.8155 10.4527 21.5151 10.7197C21.3971 10.8245 21.4049 11.0619 21.4049 11.202C21.4049 11.5649 21.3609 11.9246 21.3609 12.2889C21.3609 13.0612 21.343 13.7537 20.93 14.4114C20.8825 14.487 20.7694 14.5481 20.7097 14.6122C20.5455 14.7881 20.3961 14.9772 20.2347 15.1557C20.1166 15.2863 19.9897 15.4575 19.8381 15.5523C19.7355 15.6164 19.7745 15.3158 19.7745 15.1948C19.7745 14.6485 19.8314 14.1546 19.9605 13.628C20.0371 13.3159 20.0677 12.9939 20.0829 12.6733C20.0846 12.6388 20.104 12.5267 20.1368 12.639C20.2871 13.1535 20.2758 13.7574 20.3131 14.2841C20.4191 15.7814 20.5058 17.299 20.3816 18.7984C20.2984 19.8032 20.0665 20.7881 19.8969 21.7802C19.7261 22.7788 19.466 23.7061 19.466 24.7278C19.466 25.7151 19.3338 26.6962 19.3338 27.6802C19.3338 28.1399 19.3687 28.5988 19.3754 29.0585C19.3829 29.5664 19.4195 30.0986 19.3754 30.6057C19.3728 30.6359 19.2922 30.848 19.3607 30.848C19.7355 30.848 20.0765 30.4152 20.3449 30.214C20.4356 30.1459 20.3914 29.8709 20.3914 29.7953C20.3914 29.1376 20.3914 28.4799 20.3914 27.8222C20.3914 26.2497 20.3399 24.6726 20.6509 23.1218C20.7335 22.7099 20.8373 22.2846 20.9789 21.888C21.0827 21.5973 21.0106 22.5047 21.0083 22.8133C21.0006 23.846 20.8654 24.8643 20.7978 25.8931C20.7912 25.9934 20.7903 26.0186 20.788 26.1085C20.7875 26.1264 20.7874 26.0726 20.788 26.0546C20.8103 25.3338 20.8846 24.6153 20.9251 23.8954C21.0387 21.8731 20.9992 19.8312 21.2629 17.8192C21.3724 16.9841 21.5298 16.1558 21.6497 15.3221C21.6664 15.2061 21.5934 15.0146 21.7036 14.9745C21.7336 14.9636 21.7101 15.0381 21.7109 15.07C21.7134 15.1703 21.7128 15.2707 21.7134 15.3711C21.7234 17.1339 21.9101 18.9686 21.6448 20.7178C21.6294 20.8194 21.6104 20.9204 21.591 21.0213C21.5875 21.0392 21.582 20.9857 21.5812 20.9675C21.5518 20.2927 21.4698 19.6216 21.4 18.9502C21.3471 18.4405 21.2902 17.9342 21.214 17.4275C21.1879 17.2547 21.1901 16.8398 21.0108 16.7322C20.9172 16.6761 20.7742 16.916 20.6338 16.862C20.4149 16.7778 20.4122 17.3113 20.3694 17.4422C20.3354 17.546 20.2993 17.6813 20.2396 17.7751C20.1842 17.8623 20.2147 17.5699 20.2102 17.4667C20.1829 16.8371 19.9905 16.1941 20.007 15.5669C20.0235 14.943 20.5116 14.3754 20.8516 13.8924C21.3125 13.2378 21.6606 12.5362 21.9043 11.7724C21.9502 11.6287 21.9915 11.5003 22.0855 11.3807C22.1635 11.2814 22.1982 11.4931 22.2079 11.53C22.3891 12.2218 22.4443 12.9406 22.4723 13.6525C22.5437 15.4702 22.5066 17.293 22.5066 19.1118C22.5066 20.312 22.3895 21.5246 22.1736 22.7056C22.1647 22.7542 22.1548 22.9019 22.154 22.8525C22.1465 22.3791 22.1271 21.906 22.1198 21.4326C22.0922 19.6485 22.1358 17.8587 22.0365 16.0761C21.9899 15.2378 21.8386 14.4137 21.8015 13.5742C21.7977 13.4888 21.7593 13.4424 21.7232 13.3685C21.6358 13.1901 21.6656 12.9453 21.6718 12.7541C21.6865 12.2977 21.8015 11.8592 21.8015 11.3954C21.8015 11.1542 21.8488 10.9894 21.9337 10.7589C22.0343 10.486 22.2246 10.2562 22.039 9.96322C21.9078 9.75608 21.7236 9.52501 22.11 9.52501" stroke="#F9F9F9" stroke-width="1.2" stroke-linecap="round"/>
<path d="M18.6291 8.68847C18.5165 8.79446 18.4178 8.81797 18.2619 8.82066C18.2491 8.82088 18.0769 8.8356 18.1786 8.79129C18.6099 8.60349 19.1248 8.56126 19.5863 8.51955C20.4326 8.44305 21.2112 8.4116 22.0124 8.69826C22.7852 8.97477 23.6337 9.27947 24.4654 9.12423C25.2125 8.98477 26.0558 8.82836 26.8033 8.99448C26.9322 9.02313 27.1173 8.91188 27.2562 8.9088C27.4145 8.90528 27.4746 8.96041 27.5941 9.05813C27.7322 9.17113 27.7289 9.50564 27.7483 9.67016C27.7714 9.86693 27.7948 10.0522 27.7948 10.2504C27.7948 10.5887 27.801 10.6014 27.4545 10.6543C26.558 10.791 25.7088 11.0161 24.7934 11.024C23.2385 11.0373 21.6821 11.032 20.1273 11.024C19.5975 11.0212 19.0975 10.9566 18.5777 10.8673C17.8256 10.738 17.0739 10.7596 16.3132 10.7596C15.8301 10.7596 15.347 10.7596 14.8639 10.7596C14.7563 10.7596 14.632 10.8007 14.6215 10.6641C14.5812 10.1395 14.7822 9.6397 14.837 9.11933C14.8475 9.01925 14.8683 8.92901 14.8835 8.83046C14.9133 8.63643 15.7003 8.73253 15.8089 8.73253C16.9637 8.73253 18.1434 8.66381 19.2901 8.83046C19.8205 8.90754 20.3193 9.10734 20.8373 9.23439C20.8409 9.23528 21.131 9.28526 20.9891 9.32987C20.6303 9.44261 20.2006 9.42261 19.8311 9.43514C19.2816 9.45377 18.7321 9.45989 18.186 9.53062C17.761 9.58565 17.3458 9.69455 16.9203 9.74605C16.531 9.79317 16.1414 9.79011 15.7501 9.79011C15.7264 9.79011 15.6554 9.79011 15.6791 9.79011C16.0677 9.79011 16.461 9.91077 16.8322 10.0104C18.3838 10.4271 19.8904 10.9955 21.5032 11.1415C22.1065 11.1961 22.7084 11.1807 23.3123 11.2076C23.9782 11.2372 24.6413 11.3372 25.3075 11.3765C25.4893 11.3872 26.6374 11.5355 26.6491 11.068C26.6571 10.7476 26.6362 10.3524 26.3602 10.1377C26.22 10.0287 25.9998 10.0513 25.8363 10.0447C24.9366 10.0084 24.0363 10.0104 23.136 10.0104C22.3565 10.0104 21.622 10.0319 20.852 10.1231C20.7179 10.1389 20.3214 10.1372 20.4505 10.1769C20.5316 10.2019 20.6201 10.1863 20.7051 10.1867C21.1596 10.1889 21.6142 10.1867 22.0687 10.1867C23.3866 10.1867 24.7045 10.1867 26.0224 10.1867C26.1682 10.1867 26.3525 10.2175 26.49 10.1647C26.6113 10.118 26.6314 9.88701 26.6736 9.77543C26.7889 9.47019 24.5743 9.48471 24.4801 9.4841C22.8579 9.4737 21.2354 9.48165 19.6132 9.48165C19.193 9.48165 18.7727 9.48165 18.3524 9.48165C18.1982 9.48165 18.0378 9.46488 17.8897 9.51593C17.6269 9.60658 17.4667 9.6108 17.1822 9.52327C16.9989 9.46686 16.8416 9.38375 16.6461 9.39352C16.3198 9.40983 15.9839 9.51855 15.6595 9.56489C15.4664 9.59248 16.0497 9.57197 16.2446 9.57958C17.646 9.63426 19.0435 9.79501 20.4358 9.95659C22.5199 10.1984 24.5452 10.6857 26.6197 10.9603C27.1597 11.0318 27.7021 11.024 28.2452 11.024C28.5575 11.024 28.6466 11.0738 28.61 10.7302C28.5745 10.3967 28.6583 10.0076 28.5855 9.67995C28.4894 9.24722 28.4793 10.5613 28.4656 11.0044C28.4616 11.1341 28.5804 12.013 28.3603 12.035C28.0029 12.0708 27.5595 12.0694 27.217 11.964C26.5205 11.7497 25.9362 11.4145 25.1827 11.3814C24.2964 11.3424 23.4387 11.5278 22.5705 11.2541C21.806 11.0131 21.0478 11.024 20.2546 11.024C19.6073 11.024 18.8935 11.1276 18.2765 10.8967C17.8649 10.7426 17.4496 10.5815 17.0672 10.363C17.0311 10.3424 17.0259 10.2741 17.0109 10.2406C16.9359 10.0734 16.8226 9.9188 16.7098 9.77543C16.5803 9.61103 16.416 9.65792 16.2177 9.65792C16.0482 9.65792 15.919 9.52572 15.7648 9.52572" stroke="#F9F9F9" stroke-width="1.2" stroke-linecap="round"/>
<path d="M12.9439 30.3246C14.1291 30.1548 15.3055 29.906 16.4937 29.7615C17.742 29.6097 19.0092 29.6636 20.2638 29.6636C20.742 29.6636 21.2202 29.6636 21.6984 29.6636C22.6832 29.6636 23.754 29.5524 24.7291 29.7027C25.3658 29.8009 25.9501 30.0763 26.575 30.2095C26.7472 30.2462 27.0048 30.2206 27.1332 30.349C27.2691 30.485 26.924 31.1294 26.8761 31.2842C26.8096 31.4992 26.7806 31.6914 26.7806 31.9109C26.7806 32.4499 25.5781 32.1237 25.2726 32.0823C23.7932 31.8821 22.3364 31.8816 20.8464 31.8669C19.7216 31.8558 18.5659 31.7213 17.4582 31.5143C16.7589 31.3837 16.0509 31.3071 15.348 31.1961C14.9184 31.1283 12.0234 31.2246 12.0234 31.1129C12.0234 30.8408 12.344 30.5604 12.4886 30.3539C12.6717 30.0924 12.8345 29.5951 13.0982 29.409C13.1781 29.3526 13.3323 29.3606 13.4213 29.3576C13.8591 29.3427 14.2419 29.4778 14.6478 29.6293C16.087 30.1665 17.5475 30.4205 19.0666 30.6159C19.7831 30.708 20.5099 30.7867 21.2185 30.9292C22.056 31.0978 22.8497 31.4315 23.652 31.7151C24.14 31.8876 24.6363 32.047 25.1453 32.146C25.4993 32.2148 24.7234 31.9774 24.7218 31.977C24.1613 31.8509 23.5886 31.7914 23.0228 31.6955C21.7131 31.4736 20.4345 31.1171 19.1425 30.8142C18.7318 30.7179 18.4481 30.6575 18.0458 30.5743C17.8837 30.5407 17.6427 30.5239 17.4827 30.4543C17.2387 30.3482 17.9418 30.1628 18.2025 30.1091C20.1303 29.7123 22.052 29.7621 23.9873 30.0847C24.4319 30.1588 24.8667 30.2647 25.2971 30.398C25.4402 30.4424 25.5588 30.4546 25.3607 30.5302C25.0156 30.662 24.6506 30.7194 24.2836 30.7456C24.244 30.7485 23.3129 30.7993 23.3264 30.7187C23.3526 30.5613 24.3828 30.5681 24.4647 30.5645C25.0154 30.5399 25.5773 30.539 26.127 30.589C26.4228 30.6159 26.0693 30.7798 25.963 30.7897C25.4218 30.84 24.8532 30.8195 24.3178 30.731C23.7115 30.6306 23.1512 30.3658 22.5528 30.2536C22.5208 30.2476 23.0596 30.5168 23.0913 30.5302C23.5934 30.7433 24.1068 30.9176 24.6557 30.9415C24.8274 30.949 24.8455 30.8949 24.9739 30.8093" stroke="#F9F9F9" stroke-width="1.2" stroke-linecap="round"/>
</g>
<defs>
<clipPath id="clip0_191_7681">
<rect width="40" height="40" rx="20" fill="white"/>
</clipPath>
</defs>
</svg>
