<svg width="40" height="40" viewBox="0 0 40 40" fill="none" xmlns="http://www.w3.org/2000/svg">
<rect width="40" height="40" rx="20" fill="#E9E9E9"/>
<path d="M14.3232 10.5518C14.4488 10.5015 14.4981 10.323 14.5619 10.2154C14.7109 9.9646 14.8925 9.7332 15.0755 9.50662C15.3886 9.11889 15.8193 9.02283 16.2725 8.86289C16.977 8.61425 17.7309 8.60367 18.4605 8.49039C19.7111 8.2962 20.9667 8.3385 22.2288 8.3385C22.5557 8.3385 23.1607 8.23116 23.4042 8.51209C23.7142 8.86982 23.8087 9.4426 23.896 9.88634C24.0989 10.918 24.0833 12.0597 23.9249 13.0978C23.8143 13.8231 23.6537 14.3411 23.2993 14.9855C22.9401 15.6386 22.5175 16.3223 21.9178 16.7721C21.5243 17.0672 21.147 17.3902 20.7316 17.6545C20.2869 17.9375 19.823 18.1721 19.4297 18.5297C19.114 18.8166 18.738 19.0798 18.3809 19.3144C17.9501 19.5976 17.5831 19.974 17.1658 20.28C17.0298 20.3798 16.9162 20.5856 16.8258 20.7212C16.6582 20.9727 16.4704 21.404 16.3557 21.676C15.8368 22.9068 15.7132 24.1666 15.3937 25.4443C15.2858 25.8759 15.4257 26.3423 15.325 26.7788C15.2112 27.2718 15.1227 27.7619 15.0068 28.2616C14.8452 28.9576 14.5836 29.6863 14.5836 30.4061C14.5836 30.6508 14.5836 31.385 14.5836 31.1403C14.5836 30.8457 14.7277 30.622 14.9127 30.4061C15.2103 30.059 15.4363 29.9559 15.8928 29.9179C16.3418 29.8805 16.8207 29.8752 17.2634 29.7841C18.0802 29.6159 18.9492 29.625 19.7841 29.625C20.9605 29.625 22.1369 29.7463 23.2812 30.0155C23.8389 30.1468 24.3921 30.3004 24.9412 30.464C25.0925 30.5091 25.4689 30.7197 25.6645 30.652C25.9369 30.5577 26.3041 30.4701 26.4818 30.2398C26.6731 29.9918 26.9746 29.8331 27.1327 29.5599C27.1756 29.4858 27.3425 29.1984 27.3425 29.2344" stroke="#30AB3D" stroke-width="1.2" stroke-linecap="round"/>
<path d="M14.2579 10.6169C14.1801 11.0058 13.9598 11.3184 14.4206 11.4957C14.6536 11.5853 15.235 11.6137 15.3645 11.3691C15.5505 11.0179 15.7296 10.5759 15.5598 10.1937C15.4223 9.88444 15.037 10.4257 14.9739 10.5518" stroke="#30AB3D" stroke-width="1.2" stroke-linecap="round"/>
<path d="M27.2125 29.4288C27.2627 29.2718 27.4053 28.6036 27.198 28.5319C26.8686 28.4179 26.6548 28.7007 26.5616 28.9514C26.4909 29.1414 26.384 29.7164 26.576 29.87C26.7783 30.0318 26.8219 29.2618 26.8219 29.1973C26.8219 28.9699 26.9244 28.4355 26.5616 28.7272C26.2196 29.002 26.171 29.0505 26.171 29.4649C26.171 29.6436 26.0945 29.9887 26.3156 30.0653C26.4754 30.1206 26.6214 30.0901 26.6917 29.9495" stroke="#30AB3D" stroke-width="1.2" stroke-linecap="round"/>
<path d="M16.1307 29.4102C16.1307 27.9919 16.06 26.5708 16.2085 25.1606C16.2745 24.5333 16.4082 23.8905 16.5032 23.2651C16.5561 22.9173 16.5552 22.4193 16.6834 22.086C16.8058 21.7677 16.9756 21.0591 16.8185 21.9264C16.5156 23.5984 16.1897 25.2725 15.9997 26.962C15.936 27.5281 16.0776 28.2741 15.8032 28.7838C15.6965 28.9818 15.6349 30.0098 15.578 29.2137C15.5105 28.2695 15.5868 27.4628 15.8277 26.5526C15.987 25.9507 16.1225 25.355 16.2085 24.7389C16.3289 23.8756 16.6437 22.901 17.015 22.1147C17.3095 21.491 17.2293 20.8089 17.7232 20.2601C18.1369 19.8005 18.8214 19.4737 19.3731 19.1834C20.0197 18.8431 20.5901 18.3663 21.2154 18.0043C21.8374 17.6442 22.617 17.0189 22.9431 16.3667C23.1001 16.0526 23.1141 15.6531 23.2419 15.3187C23.4971 14.6514 23.6472 13.8225 23.6472 13.1079C23.6472 12.7531 23.6472 12.3983 23.6472 12.0435C23.6472 11.6887 23.6472 11.3338 23.6472 10.979C23.6472 10.548 23.4999 10.1508 23.4999 9.73446C23.4999 8.99764 22.6907 8.77647 22.0997 8.77647C21.6445 8.77647 21.2222 8.96771 20.7896 8.99755C20.2735 9.03314 19.8101 9.04507 19.2994 9.14084C18.9005 9.21564 18.4979 9.27345 18.0917 9.28822C17.7635 9.30015 17.3637 9.22382 17.0477 9.32916C16.7491 9.4287 16.3813 9.37655 16.1143 9.5707C15.8531 9.7607 15.5397 10.312 15.4634 10.6556C15.37 11.0756 15.1161 11.2083 14.6937 11.2083C14.1557 11.2083 13.9199 10.5536 13.9199 10.1193C13.9199 9.4506 14.7282 9.0724 15.2464 8.81332C15.955 8.45898 16.5909 8.19986 17.3752 8.08049C18.2418 7.94862 19.1452 7.89217 20.02 7.89217C20.9665 7.89217 22.4408 7.61252 23.2051 8.33432C23.7526 8.85146 23.7966 9.57211 23.8642 10.3158C23.9238 10.971 24.0894 11.6574 24.0894 12.3137C24.0894 13.0888 24.0894 13.8639 24.0894 14.6391C24.0894 15.8735 22.9402 17.1474 22.1202 17.9675C20.9713 19.1163 19.6336 20.0119 18.4888 21.1567C17.3934 22.2521 16.8975 23.9141 16.8676 25.439C16.8423 26.7299 16.9413 27.9863 16.9413 29.2628C16.9413 29.501 17.1235 29.8375 16.9986 30.0734C16.9539 30.1579 16.4826 30.2208 16.3845 30.2208C16.2222 30.2208 14.7904 30.7827 14.7305 30.6629" stroke="#30AB3D" stroke-width="2" stroke-linecap="round"/>
<path d="M16.4997 29.7785C17.066 29.7785 17.5282 29.7616 18.0145 29.4837C18.4548 29.2321 19.3005 29.41 19.8158 29.41C20.3827 29.41 21.0444 29.2946 21.5926 29.4469C22.3622 29.6607 23.0807 29.9647 23.8116 30.278C24.1211 30.4106 24.4761 30.4505 24.7614 30.6055C25.0449 30.7596 25.4208 30.8839 25.748 30.8839C25.9525 30.8839 26.1963 30.8677 26.3785 30.7652C26.5801 30.6518 27.0173 30.5689 27.1277 30.368C27.5629 29.5767 27.5258 27.3711 26.0633 27.9362C25.4831 28.1603 25.048 28.4943 25.048 29.1562C25.048 29.5561 25.1337 29.9996 25.6375 29.9996C25.8053 29.9996 25.8323 29.9984 25.9159 29.8522C26.0541 29.6104 25.7976 30.429 25.6007 30.626C25.2196 31.007 24.6524 30.6838 24.18 30.6628C23.0386 30.6121 21.7573 30.7309 20.6387 30.5072C20.1472 30.4089 19.7377 30.2943 19.2386 30.2943C18.5522 30.2943 17.8657 30.2943 17.1793 30.2943C16.8793 30.2943 16.5786 30.2887 16.2786 30.2943C15.9372 30.3008 15.6497 30.4725 15.3206 30.5195C15.1488 30.5441 14.9317 30.626 14.7761 30.6997C14.7516 30.7113 14.6192 30.8309 14.5837 30.8102C14.459 30.7374 15.0472 29.8008 15.0996 29.7048" stroke="#30AB3D" stroke-width="2" stroke-linecap="round"/>
</svg>
