<svg width="40" height="40" viewBox="0 0 40 40" fill="none" xmlns="http://www.w3.org/2000/svg">
<rect width="40" height="40" rx="20" fill="#0A0A0A"/>
<path d="M20.0237 30.2652C18.7232 30.2652 17.5616 30.041 16.5388 29.5928C15.5224 29.1446 14.7175 28.5227 14.1241 27.7273C13.5369 26.9255 13.2213 25.9975 13.1771 24.9432H16.1506C16.1884 25.5177 16.381 26.0164 16.7282 26.4394C17.0818 26.8561 17.5426 27.178 18.1108 27.4053C18.679 27.6326 19.3103 27.7462 20.0047 27.7462C20.7686 27.7462 21.4441 27.6136 22.0313 27.3485C22.6247 27.0833 23.0887 26.714 23.4233 26.2405C23.7579 25.7607 23.9252 25.2083 23.9252 24.5833C23.9252 23.9331 23.7579 23.3617 23.4233 22.8693C23.095 22.3706 22.6121 21.9792 21.9744 21.6951C21.3431 21.411 20.5792 21.2689 19.6828 21.2689H18.0445V18.8826H19.6828C20.4025 18.8826 21.0338 18.7532 21.5767 18.4943C22.1259 18.2355 22.5552 17.8756 22.8646 17.4148C23.1739 16.9476 23.3286 16.4015 23.3286 15.7765C23.3286 15.1768 23.1929 14.6559 22.9214 14.214C22.6563 13.7658 22.2775 13.4154 21.785 13.1629C21.2989 12.9104 20.7244 12.7841 20.0616 12.7841C19.4302 12.7841 18.84 12.9009 18.2907 13.1345C17.7478 13.3617 17.3059 13.69 16.965 14.1193C16.6241 14.5423 16.441 15.0505 16.4157 15.6439H13.5843C13.6158 14.596 13.9252 13.6742 14.5123 12.8788C15.1057 12.0833 15.8886 11.4615 16.8608 11.0133C17.833 10.565 18.9126 10.3409 20.0994 10.3409C21.3431 10.3409 22.4164 10.584 23.3191 11.0701C24.2282 11.5499 24.929 12.1907 25.4214 12.9924C25.9201 13.7942 26.1664 14.6717 26.16 15.625C26.1664 16.7109 25.8633 17.6326 25.2509 18.3902C24.6449 19.1477 23.8368 19.6559 22.8267 19.9148V20.0663C24.1146 20.262 25.1121 20.7734 25.8191 21.6004C26.5325 22.4274 26.886 23.4533 26.8797 24.678C26.886 25.7449 26.5893 26.7014 25.9896 27.5473C25.3961 28.3933 24.5849 29.0593 23.5559 29.5455C22.5268 30.0253 21.3494 30.2652 20.0237 30.2652Z" fill="#74B8F6"/>
</svg>
