<svg width="74" height="74" viewBox="0 0 74 74" fill="none" xmlns="http://www.w3.org/2000/svg">
<rect width="74" height="74" rx="37" fill="#0A0A0A"/>
<path d="M18 56.2734V48.2749L19.0465 48.1254C20.3173 47.926 21.3701 47.3779 22.2048 46.4808C23.052 45.5713 23.6999 44.1323 24.1484 42.1638C24.6094 40.1829 24.9022 37.4856 25.0268 34.0719L25.6248 18H53.3581V56.2734H43.3412V26.0733H35.1931L34.5951 38.1085C34.3709 42.5688 33.7728 46.1258 32.8011 48.7795C31.8293 51.4332 30.3529 53.3456 28.372 54.5168C26.391 55.6879 23.7809 56.2734 20.5416 56.2734H18Z" fill="#F9F9F9"/>
<path d="M21.4961 52.1016C26.7111 51.5801 31.3004 49.4941 30.8831 22.376L48.0927 22.376V52.6232" stroke="#5195D5" stroke-width="2"/>
<path d="M44.9629 52.1016H51.2209" stroke="#5195D5" stroke-width="2"/>
</svg>
