<svg width="75" height="74" viewBox="0 0 75 74" fill="none" xmlns="http://www.w3.org/2000/svg">
<rect x="0.347656" width="74" height="74" rx="37" fill="#96EEAE"/>
<path d="M36.8865 49.8408H28.5073V25.1135H37.0556C39.5106 25.1135 41.6195 25.6086 43.3823 26.5986C45.1531 27.5806 46.5134 28.9933 47.4632 30.8366C48.4131 32.6798 48.888 34.8853 48.888 37.453C48.888 40.0288 48.409 42.2423 47.4512 44.0937C46.5014 45.945 45.129 47.3657 43.334 48.3557C41.5471 49.3458 39.3979 49.8408 36.8865 49.8408ZM32.9867 45.9651H36.6692C38.3917 45.9651 39.8285 45.6512 40.9796 45.0233C42.1306 44.3875 42.9959 43.4417 43.5755 42.186C44.155 40.9223 44.4448 39.3446 44.4448 37.453C44.4448 35.5615 44.155 33.9919 43.5755 32.7442C42.9959 31.4885 42.1387 30.5508 41.0037 29.931C39.8768 29.3032 38.4763 28.9893 36.802 28.9893H32.9867V45.9651Z" fill="#0A0A0A"/>
</svg>
