<svg width="72" height="72" viewBox="0 0 72 72" fill="none" xmlns="http://www.w3.org/2000/svg">
<rect width="72" height="72" rx="10" fill="#B9B9B9"/>
<rect x="7" y="7" width="60" height="59" fill="#F03890"/>
<path d="M66.647 7.31088C65.0956 5.72986 61.4953 5.40411 59.8108 3.99953C59.2646 3.54409 57.5152 3.62767 58.5 5.63484C58.857 6.36257 61.536 5.25524 62.187 5.63437C62.5226 5.82982 62.6442 6.55253 62.8816 6.62165C63.6751 6.8527 64.5272 6.89308 65.3126 7.14323C67.0708 7.70314 67.5619 6.0318 65.9158 5.96967C64.2323 5.90613 63.0262 6.97558 61.3827 6.97558C52.7424 6.97558 43.654 7.68775 35.0614 6.71479C30.8752 6.24076 26.4406 6.64027 22.2298 6.64027C17.7211 6.64027 13.2123 6.64027 8.70359 6.64027C8.48916 6.64027 4.48499 6.99355 5.28548 7.64618C5.63347 7.92989 2.7805 8.25244 4.62745 8.67071C8.73557 9.60107 12.7665 11.2693 16.9838 12.1541C26.6798 14.1885 36.6678 13.5225 46.5039 13.6816C52.9055 13.7852 59.3321 14.3522 65.7331 14.3522C66.8308 14.3522 67.5868 14.5057 68.4749 15.0228C70.4301 16.1614 66.3475 17.3699 65.6417 17.3699C59.6343 17.3699 53.6537 16.4156 47.6372 16.364C40.601 16.3038 33.5618 16.364 26.5253 16.364C24.0351 16.364 21.6615 16.6993 19.1956 16.6993C15.7737 16.6993 11.4534 16.6348 8.15523 17.6307C7.13701 17.9382 5.89519 17.6767 4.95647 18.2082C3.54087 19.0097 7.54765 19.3169 8.00901 19.4563C9.82958 20.006 12.5742 21.257 10.2207 22.5485C8.95702 23.2419 7.65342 24.2148 6.61983 25.2682C5.7049 26.2006 5.10845 26.0878 7.09507 26.0878C7.65579 26.0878 9.89732 26.3515 8.57564 27.429C7.49657 28.3087 7.81827 29.5202 7.7531 30.782C7.66626 32.4637 6.03709 31.1027 6.10802 33.0546C6.13213 33.718 6.43704 34.2908 6.43704 34.9733C6.43704 35.8407 5.62041 35.1198 5.46827 35.6625C5.08011 37.047 5.43026 39.7547 6.43704 40.8411C7.93885 42.4616 8.4357 44.2754 9.06917 46.3735C9.32853 47.2326 10.2412 49.4071 9.7272 50.0619C9.07467 50.8931 8.01536 49.1054 7.4972 49.6334C7.37109 49.7619 7.4115 50.0937 7.4972 50.2295C7.84924 50.7876 8.22738 48.6525 8.22835 48.6461C8.6159 46.1071 8.41114 43.4429 8.41114 40.8783C8.41114 40.1953 8.41114 39.5123 8.41114 38.8293C8.41114 38.7733 8.40543 41.1595 8.41114 41.7352C8.47252 47.9285 10.3852 53.9656 10.3852 60.1395C10.3852 62.2166 9.7827 61.3005 8.24663 61.6484C7.33 61.856 5.49993 62.6619 4.86507 63.3808C4.36029 63.9524 6.87874 64.2569 7.27786 64.3308C9.94727 64.8254 12.7554 65.3181 15.485 65.3181C17.8791 65.3181 20.2746 65.3438 22.6685 65.3181C24.9398 65.2937 27.2136 64.5482 29.4682 64.2377C33.5473 63.6759 33.34 64.9999 37.5 64.9999C40.184 64.9999 45.776 65.5809 48.5 65.9999C51.3191 66.4336 55.205 63.0456 58.0195 63.5671C61.034 64.1257 63.9537 65.4823 66.976 65.6534C67.2539 65.6691 62.8657 63.1486 63.0095 62.6357C63.2396 61.8151 67.8476 64.5604 67.305 64.1259C65.561 62.7294 63.5079 60.7298 63.0095 58.4444C62.533 56.2592 65.3169 55.4308 67.1222 54.9051C67.4101 54.8213 62.7399 51.4752 62.4429 50.9001C61.778 49.6127 63.8905 49.0496 64.6729 48.6275C65.0552 48.4212 66.8389 46.6561 66.1535 47.0441C64.3652 48.0566 67.9661 45.3849 66.318 46.1314C65.6639 46.4276 65.5634 45.8466 65.8244 45.3676C66.193 44.6915 66.3614 44.8717 65.8427 44.3431C64.8592 43.3408 65.7117 39.5118 66.3363 38.3449C67.0472 37.0165 67.305 36.6682 67.305 35.0664C67.305 32.9677 67.305 30.8689 67.305 28.7702C67.305 25.3045 66.647 22.1305 66.647 18.7111" stroke="#F03890" stroke-width="3" stroke-linecap="round"/>
<path d="M33.8902 19.4463C31.9375 26.369 30.2448 33.4782 27.6378 40.1825C26.0991 44.1393 24.9545 48.3139 23.1473 52.1538C23.0637 52.3313 23.0623 52.4398 22.9331 52.5995C22.4879 53.1501 23.0219 52.1138 23.0983 51.8691" stroke="#F9F9F9" stroke-width="4" stroke-linecap="round"/>
<path d="M34.6562 19C34.6977 19.9216 35.3383 20.9608 35.6657 21.8102C36.198 23.1912 36.7341 24.558 37.397 25.8832C39.1298 29.3469 40.9268 32.7793 42.6584 36.2451C43.1662 37.2616 43.5287 38.3148 44.0043 39.3401C44.8827 41.2334 45.4409 43.2046 46.2924 45.1091C47.3358 47.4427 48.254 49.9435 48.6172 52.4875C48.7025 53.0856 48.9318 53.7927 49.1922 54.3197" stroke="#F9F9F9" stroke-width="4" stroke-linecap="round"/>
<path d="M28.0527 38.499C30.2756 38.499 32.4558 38.4024 34.66 38.0781C35.831 37.9057 37.1479 38.0533 38.3185 38.0533C38.8544 38.0533 41.3479 37.7709 41.5976 38.2761" stroke="#F9F9F9" stroke-width="4" stroke-linecap="round"/>
<path d="M32.1254 20.0029C31.5973 25.0682 29.0627 29.422 27.5493 34.2026C26.9675 36.0403 26.8712 37.9306 26.5949 39.823C26.2097 42.4613 25.5857 45.0211 25.0715 47.6223C24.737 49.315 24.1975 51.0964 23.591 52.6919C23.4923 52.9516 23.3619 53.8742 22.9854 53.8742C22.7045 53.8742 22.3564 53.547 21.9943 53.5399C21.6766 53.5337 20.946 53.7983 21.0032 53.2428C21.0775 52.5209 21.7959 51.7374 22.1289 51.1135C22.559 50.3076 22.9925 49.5076 23.3157 48.6499C23.6754 47.6955 24.0761 46.7509 24.4169 45.7901C25.0123 44.1122 25.4364 42.5377 25.7996 40.7887C26.3781 38.0025 27.5187 35.4098 28.1121 32.6366C28.8383 29.2429 29.6592 26.0714 31.1343 22.8998" stroke="#F9F9F9" stroke-width="4" stroke-linecap="round"/>
<path d="M34.4375 19.2227C36.0427 23.162 37.2435 27.2769 38.6649 31.2868C39.8024 34.4958 40.8184 37.7479 41.834 40.9988C42.3806 42.7487 42.839 44.5266 43.3573 46.285C43.9964 48.4531 44.8735 50.5242 45.4496 52.7101C45.5645 53.1458 45.5782 53.5666 45.7555 53.9852C45.894 54.3123 46.1713 54.4156 46.4958 54.598C46.8016 54.77 47.0791 54.8766 47.4318 54.8766C47.7024 54.8766 47.9838 54.8987 48.2516 54.8518C49.0102 54.719 48.3953 53.9944 48.2026 53.5396" stroke="#F9F9F9" stroke-width="4" stroke-linecap="round"/>
<path d="M28.8223 39.8353C32.5283 39.9764 36.2344 39.9766 39.9078 39.4639C40.4016 39.395 40.8802 39.3896 41.3761 39.3896" stroke="#F9F9F9" stroke-width="4" stroke-linecap="round"/>
</svg>
