<svg width="659" height="257" viewBox="0 0 659 257" fill="none" xmlns="http://www.w3.org/2000/svg">
<path d="M578.133 198.832C562.887 198.832 549.342 196.217 537.498 190.988C525.716 185.696 516.455 178.42 509.714 169.158C502.973 159.897 499.571 149.25 499.508 137.217H552.429C552.492 140.934 553.626 144.273 555.831 147.234C558.099 150.132 561.186 152.4 565.092 154.038C568.998 155.676 573.471 156.495 578.511 156.495C583.362 156.495 587.647 155.645 591.364 153.944C595.081 152.18 597.979 149.754 600.058 146.667C602.137 143.58 603.145 140.052 603.082 136.083C603.145 132.177 601.948 128.712 599.491 125.688C597.097 122.663 593.726 120.301 589.379 118.6C585.032 116.899 580.023 116.048 574.353 116.048H554.697V79.7596H574.353C579.582 79.7596 584.182 78.9091 588.151 77.208C592.183 75.507 595.301 73.1445 597.506 70.1204C599.774 67.0963 600.877 63.6313 600.814 59.7252C600.877 55.9451 599.963 52.6061 598.073 49.708C596.183 46.8099 593.537 44.5419 590.135 42.9039C586.796 41.2658 582.921 40.4468 578.511 40.4468C573.723 40.4468 569.439 41.2973 565.659 42.9984C561.942 44.6994 559.012 47.0619 556.87 50.086C554.728 53.1101 553.626 56.5751 553.563 60.4812H503.288C503.351 48.637 506.595 38.1788 513.022 29.1066C519.511 20.0344 528.394 12.9153 539.671 7.74916C550.948 2.58305 563.895 0 578.511 0C592.813 0 605.444 2.42555 616.407 7.27665C627.432 12.1277 636.032 18.8059 642.206 27.3111C648.443 35.7532 651.53 45.4239 651.467 56.3231C651.593 67.1593 647.876 76.0425 640.316 82.9727C632.818 89.9028 623.305 93.9979 611.776 95.2579V96.7699C627.4 98.471 639.15 103.259 647.025 111.134C654.9 118.946 658.775 128.775 658.649 140.619C658.712 151.959 655.31 162.008 648.443 170.765C641.639 179.522 632.157 186.389 619.998 191.366C607.901 196.343 593.947 198.832 578.133 198.832Z" fill="#0A0A0A"/>
<path d="M539.43 46.8846C533.758 46.2769 527.898 45.4915 522.429 43.8371C520.52 43.2596 519.6 42.3488 518.489 40.833C516.496 38.1155 519.527 36.7801 521.798 36.1093C528.881 34.0165 536.525 34.7379 543.827 34.7379C545.471 34.7379 560.469 33.4847 560.589 36.61C560.715 39.8826 549.486 36.1512 547.419 35.4345C544.009 34.2523 540.861 32.279 537.754 30.4713C536.613 29.8074 534.971 29.1423 533.988 28.2292C533.014 27.3249 533.553 24.4189 533.553 23.3749C533.553 20.4467 532.812 15.7739 535.446 13.6662C538.117 11.5295 542.538 11.7034 545.743 11.6418C550.101 11.5579 554.598 11.6065 558.826 12.7955C561.722 13.6102 566 16.2354 566.074 19.5872C566.092 20.3654 566.364 21.8013 565.465 22.1994C563.514 23.0637 560.694 22.888 558.673 22.9395C555.57 23.0186 552.46 22.998 549.356 22.983C547.239 22.9729 543.804 23.3986 541.933 22.1123C540.357 21.0284 540.241 17.7083 541.389 16.3655C547.142 9.63802 559.174 10.027 566.858 11.7506C569.892 12.431 573.407 13.2756 575.696 15.5818C577.146 17.0423 578.16 18.9784 579.571 20.5015C580.427 21.4257 587.208 27.7379 582.836 28.7734C578.404 29.823 572.939 29.3983 568.643 27.9897C567.897 27.7451 562.162 25.9624 562.548 24.4633C563.437 21.0063 573.161 20.8023 575.522 20.7191C585.463 20.3689 595.521 21.3511 604.953 24.6374C609.091 26.0794 616.108 28.5677 617.927 33.2141C619.279 36.6695 616.807 37.7445 613.791 37.7855C603.731 37.922 588.073 33.4205 588.539 21.0674C588.798 14.2112 595.641 13.9424 601.165 13.6662C607.493 13.3498 614.158 14.1589 619.516 17.8457C622.552 19.935 622.852 23.5315 623.107 26.9449C623.363 30.3661 620.9 30.2539 618.057 29.7747C614.383 29.1556 609.558 27.5821 606.781 24.9422C605.742 23.9538 605.656 22.2155 607.26 21.8946C620.594 19.2277 639.754 24.5789 644.571 38.5909C646.266 43.5222 645.589 49.1284 641.785 52.8927C636.755 57.8686 629.18 58.6844 622.476 57.7905C611.833 56.3714 616.727 40.8038 623.652 37.1542C627.299 35.2319 631.44 37.0434 633.556 40.2671C637.484 46.2493 637.208 53.3691 635.102 59.9456C633.538 64.828 631.335 68.3024 626.198 69.6543C621.757 70.8231 616.465 70.4012 614.052 65.9537C611.817 61.8362 611.857 55.8732 613.834 51.6737C616.035 47.0008 620.325 45.1962 625.284 45.0126C636.252 44.6063 640.505 62.2129 634.601 69.4366C630.352 74.6354 623.94 74.9901 617.731 75.0746C614.334 75.1208 609.284 75.9898 607.151 72.593C603.563 66.8785 615.484 66.8803 618.318 67.608C621.851 68.5151 622.732 71.6631 622.324 74.9657C621.3 83.2419 612.336 85.9922 605.606 88.6362C602.384 89.9017 599.098 91.0404 595.745 91.9015C593.54 92.4676 589.896 93.7798 587.538 93.4252C585.317 93.0912 587.822 88.7522 589.018 86.8512C590.999 83.7037 593.439 80.67 597.377 80.1901C599.981 79.8728 603.13 80.656 605.649 81.1915C606.505 81.3733 609.404 81.7449 610.264 82.5411C611.381 83.5751 604.689 88.2647 604.387 88.4621C600.107 91.254 595.157 92.7806 590.15 93.6212C585.98 94.3213 580.534 94.9897 576.61 92.9028C574.318 91.6833 574.661 89.8192 575.957 87.8743C578.097 84.6644 582.259 84.543 585.797 84.6091C589.718 84.6824 592.782 86.1975 593.851 90.2471C595.415 96.1738 591.063 101.43 587.233 105.398C582.995 109.789 578.493 111.649 572.344 110.709C567.427 109.958 563.459 107.808 562.722 102.611C562.227 99.1247 563.362 97.8342 566.815 96.9299C573.414 95.2015 581.37 95.3063 587.93 97.1259C592.144 98.2948 595.298 99.7156 594.351 104.505C593.303 109.807 589.57 110.061 584.817 110.731C580.7 111.312 576.366 112.248 572.692 109.773C570.833 108.521 570.818 107.059 572.627 105.637C574.593 104.092 577.144 103.506 579.571 103.177C584.767 102.474 590.171 102.506 595.396 102.655C603.385 102.883 613.203 103.776 618.645 110.579C620.504 112.903 621.25 116.785 620.843 119.721C620.287 123.736 610.979 118.426 609.698 117.762C605.849 115.766 602.174 113.403 598.879 110.579C597.475 109.375 595.161 107.672 596.332 105.485C600.041 98.56 610.472 98.7905 617.012 99.4333C623.767 100.097 632.161 101.984 636.103 108.141C638.831 112.401 641.802 122.604 635.755 125.468C630.975 127.732 623.778 128.211 618.58 127.188C615.129 126.509 608.884 124.728 608.457 120.461C608.085 116.738 610.311 115.516 613.791 115.019C620.316 114.087 628.37 114.173 633.948 118.154C639.144 121.863 639.026 127.311 635.777 132.303C633.385 135.978 628.545 141.794 623.935 142.709C620.728 143.345 618.139 141.784 616.49 139.095C615.107 136.84 613.071 130.67 617.099 129.822C622.59 128.666 627.226 133.1 630.465 136.918C634.892 142.138 636.273 151.132 635.559 157.772C635.094 162.092 632.099 164.368 627.962 164.999C622.806 165.786 618.707 163.127 616.142 158.752C613.591 154.404 611.803 147.596 615.946 143.645C620.95 138.871 630.035 139.91 636.147 141.272C641.314 142.424 644.828 144.656 646.617 149.762C648.814 156.032 648.95 163.445 643.047 167.786C636.124 172.876 624.883 171.572 617.143 169.571C610.98 167.977 602.995 164.799 602.079 157.555C601.296 151.356 604.768 147.473 610.373 145.582C617.205 143.277 627.231 141.632 633.839 145.408C640.187 149.035 638.484 157.934 635.689 163.258C630.273 173.577 618.064 174.597 607.63 172.988C605.028 172.587 599.265 171.727 598.117 168.439C596.95 165.094 601.29 162.772 603.581 161.952C608.935 160.035 616.341 161.232 615.946 168.286C615.527 175.754 608.643 178.853 602.297 180.346C595.995 181.829 588.433 181.905 582.814 178.104C580.48 176.525 578.213 172.484 578.178 169.658C578.108 164.023 590.713 164.063 594.199 164.042C598.007 164.018 605.254 163.733 606.259 168.7C607.62 175.431 603.27 179.397 597.769 182.327C589.162 186.911 574.371 187.439 566.771 180.39C564.125 177.936 561.515 173.143 564.768 170.093C568.594 166.506 576.705 167.916 581.247 168.831C584.398 169.465 587.305 170.468 587.146 174.186C586.81 182.051 575.434 186.194 569.296 187.943C564.346 189.354 555.329 191.264 550.924 187.334C548.203 184.906 546.394 181.15 544.894 177.93C543.426 174.78 541.753 171.058 541.737 167.481C541.71 160.822 548.214 158.655 553.71 157.946C558.305 157.354 566.182 156.049 570.254 159.078C572.491 160.743 570.166 163.372 568.512 164.216C562.957 167.049 555.592 167.878 549.531 166.48C546.165 165.703 541.983 164.199 539.517 161.625C536.813 158.803 537.871 157.159 541.607 157.098C549.338 156.97 556.174 159.946 561.764 165.239C564.353 167.69 566.458 172.613 563.332 175.644C560.034 178.842 553.477 179.021 549.226 178.757C541.839 178.298 535.021 174.8 529.896 169.484C526.498 165.96 523.287 158.543 526.674 153.941C529.932 149.515 539.629 150.967 544.045 151.721C548.321 152.451 554.09 154.41 554.864 159.383C555.943 166.32 548.75 169.466 543.152 170.441C537.137 171.49 530.205 171.461 524.824 168.199C521.488 166.178 517.809 162.208 518.054 157.99C518.379 152.378 526.663 152.288 530.636 151.96C536.453 151.48 545.625 150.015 550.575 154.115C554.175 157.096 551.793 161.461 549.269 164.303C544.815 169.32 538.691 169.139 532.442 168.308C525.334 167.363 519.135 164.203 513.352 160.08C510.749 158.224 508.379 156.273 508.476 152.853C508.603 148.358 514.928 146.77 518.358 145.756C523.101 144.355 528.83 143.798 533.509 145.8C537.2 147.379 539.604 151.23 541.607 154.507C543.432 157.494 545.191 160.421 540.758 161.604C537.718 162.414 533.747 162.818 530.636 162.474C529.858 162.388 528.569 162.48 528.415 161.712C528.232 160.798 529.231 159.914 530.026 159.427C532.207 158.09 534.603 157.045 537.079 156.401C546.714 153.895 555.849 154.899 564.246 160.341C566.418 161.749 568.814 164.158 569.579 166.741C569.794 167.467 570.854 169.812 569.732 170.311C569.063 170.608 566.248 170.876 565.987 169.832C565.421 167.568 574.344 167.509 574.956 167.525C582.93 167.726 594.142 170.142 599.772 176.362C604.303 181.369 598.334 184.83 594.068 186.637C590.267 188.248 582.984 191.053 578.918 188.64C576.941 187.467 577.4 184.651 578.091 182.936C579.96 178.295 584.242 175.137 588.583 172.967C594.407 170.055 600.846 168.866 607.282 168.439C611.369 168.167 616.608 167.835 620.495 169.658C623.253 170.951 626.223 175.304 623.869 178.191C622.118 180.339 618.456 180.732 615.967 181.021C612.028 181.479 607.61 181.723 603.755 180.564C598.836 179.085 592.903 174.402 593.894 168.7C595.426 159.895 602.824 151.437 611.548 149.326C617.195 147.96 624.444 148.265 628.506 152.983C630.969 155.844 635.043 163.896 631.815 167.525C630.109 169.442 623.931 170.694 622.15 168.221C621.125 166.798 621.359 164.208 621.475 162.648C621.798 158.284 622.939 154.059 625.241 150.284C628.931 144.229 635.035 139.092 642.176 137.985C646.094 137.378 649.833 137.04 650.252 141.598C650.959 149.279 638.67 147.481 633.904 146.932C626.736 146.106 619.624 144.082 619.624 135.765C619.624 128.346 625.487 122.375 632.49 120.549C637.678 119.195 646.402 119.795 647.967 126.165C649.236 131.333 645.03 136.191 640.108 137.049C633.514 138.198 624.968 136.595 620.386 131.411C617.79 128.474 616.133 122.258 618.275 118.589C619.954 115.713 624.318 115.258 627.156 114.802C630.896 114.2 634.769 113.855 638.563 113.887C641.189 113.91 645.904 115.458 642.742 118.807C638.331 123.48 630.17 124.042 624.283 122.595C618.982 121.291 613.932 117.778 610.373 113.692C607.741 110.669 605.483 104.752 607.456 100.805C608.343 99.0302 612.007 97.6267 613.965 97.8877C614.419 97.9483 614.288 99.1276 614.269 99.3027C614.051 101.348 613.16 102.728 611.352 103.809C605.88 107.082 598.243 107.691 592.022 107.444C588.799 107.316 583.877 107.288 581.53 104.571C580.075 102.886 581.924 103.018 581.748 103.395C581.29 104.376 579.14 105.037 578.417 105.311C575.778 106.309 572.987 107.142 570.21 107.662C567.002 108.262 563.297 107.293 561.982 104.048C560.56 100.54 558.628 93.8331 561.242 90.3777C563.054 87.9828 569.947 88.2472 572.474 89.1587C575.149 90.1232 575.344 94.0904 575.413 96.4293C575.481 98.7548 574.558 99.1851 572.365 98.9544C570.689 98.7779 569.071 97.9613 568.708 96.1898C567.833 91.9095 575.347 91.0278 578.069 90.7042C581.104 90.3434 585.905 89.6267 588.801 91.0743C590.464 91.9058 588.587 92.6333 587.625 92.9028C584.851 93.6796 581.959 94.0254 579.092 94.2089C578.034 94.2766 575.085 94.7213 574.042 93.8606C571.58 91.8309 582.888 84.8946 583.75 84.3261C590.384 79.9549 598.193 77.7956 606.15 77.7956C609.313 77.7956 612.581 78.2151 615.14 80.2337C615.434 80.4651 616.851 81.7508 616.316 82.367C614.585 84.3573 607.832 86.0529 605.562 84.5656C600.983 81.5651 609.885 72.64 611.831 70.6556C615.609 66.8043 619.704 64.971 624.914 67.2815C629.448 69.2922 631.001 73.1953 626.177 75.88C622.895 77.7063 615.702 81.1717 611.788 79.4065C608.006 77.7011 608.615 72.8772 610.025 69.8719C612.525 64.5394 617.667 58.1804 623.586 56.4191C629.997 54.5117 637.7 60.4628 640.391 65.8666C641.358 67.8075 642.458 71.0407 641.023 73.0719C639.312 75.4924 634.778 75.7413 632.25 75.9235C621.788 76.6778 612.133 74.1485 604.169 67.1727C592.358 56.8268 608.394 45.3763 618.601 42.4874C621.228 41.7441 626.541 43.2826 623.39 46.6669C618.153 52.292 612.765 42.634 612.484 38.0902C612.202 33.5187 615.071 29.9128 619.45 28.7299C621.231 28.2489 627.732 27.4328 628.767 29.6877C631.421 35.4683 608.122 33.1326 605.04 29.6877C602.431 26.7725 604.649 23.039 607.652 21.8076C609.389 21.0949 617.51 18.0791 618.928 20.8497C621.362 25.6078 613.934 29.7588 610.852 30.9502C604.679 33.3363 597.933 33.9875 591.543 31.908C587.812 30.6936 580.015 27.0525 579.484 22.1994C578.918 17.0236 590.939 15.5916 594.177 17.2362C598.93 19.6504 588.084 24.8924 586.645 25.617C581.053 28.4333 574.957 29.7487 568.687 29.5135C565.723 29.4024 562.101 29.4373 562.548 25.7694C563.014 21.9484 569.974 19.4651 572.91 18.4117C573.943 18.041 579.861 15.8817 580.877 17.541C586.17 26.187 555.793 32.2789 551.228 32.8223C548.405 33.1584 546.227 33.5489 546.113 30.3407C545.918 24.8731 550.986 21.8375 555.604 20.1532C557.622 19.4171 565.372 16.7722 566.51 20.3055C568.385 26.1279 564.55 32.8296 560.088 36.1964C557.012 38.518 552.631 40.647 548.79 41.3119C544.448 42.0638 544.571 38.5845 545.525 35.3474C546.412 32.3371 548.274 28.2564 551.403 26.8578C552.968 26.1579 553.048 27.9123 553.101 28.8387C553.607 37.8342 541.597 42.4686 533.944 41.3555C530.549 40.8616 528.331 40.0631 527.936 36.3923C527.31 30.5566 533.587 27.6602 538.255 26.3789C540.67 25.7157 547.151 23.649 549.443 25.7694C550.892 27.1089 550.435 30.2251 550.184 31.821C549.441 36.533 547.741 41.1124 545.112 45.0996C540.599 51.9418 533.668 53.9654 525.847 54.2423C522.405 54.3641 519.459 53.5886 516.856 51.2601C511.11 46.1183 534.885 41.4507 537.471 41.0507C541.185 40.4762 542.9 41.374 541.825 45.3173C540.712 49.3969 537.298 53.0215 533.03 53.6763C530.195 54.1114 524.336 53.1063 523.539 49.7145C522.802 46.5765 521.947 40.7377 523.67 37.829C527.778 30.8933 537.071 29.9739 544.132 31.6033" stroke="#79EC84" stroke-width="1.77979" stroke-linecap="round"/>
<path d="M349.952 196.186V158.385L422.151 98.66C426.939 94.6909 431.035 90.9738 434.437 87.5087C437.902 83.9807 440.548 80.3581 442.375 76.641C444.265 72.924 445.21 68.7974 445.21 64.2613C445.21 59.2842 444.139 55.0316 441.997 51.5035C439.918 47.9755 437.02 45.2664 433.303 43.3764C429.586 41.4233 425.301 40.4468 420.45 40.4468C415.599 40.4468 411.315 41.4233 407.598 43.3764C403.944 45.3294 401.109 48.196 399.093 51.976C397.077 55.7561 396.069 60.3552 396.069 65.7733H346.172C346.172 52.165 349.227 40.4468 355.339 30.6186C361.45 20.7904 370.081 13.2303 381.232 7.93816C392.383 2.64606 405.456 0 420.45 0C435.949 0 449.368 2.48855 460.708 7.46566C472.111 12.3798 480.9 19.3099 487.074 28.2561C493.311 37.2022 496.43 47.6919 496.43 59.7252C496.43 67.1593 494.886 74.562 491.799 81.9331C488.712 89.2413 483.168 97.3369 475.167 106.22C467.166 115.103 455.794 125.688 441.052 137.973L422.907 153.093V154.227H498.509V196.186H349.952Z" fill="#0A0A0A"/>
<path d="M482.312 163.438L482.313 186.591" stroke="#74B8F6" stroke-width="6.49932"/>
<path d="M482.312 32.6875L482.313 88.5288" stroke="#74B8F6" stroke-width="6.49932"/>
<path d="M442.812 163.438L442.813 186.591" stroke="#74B8F6" stroke-width="6.49932"/>
<path d="M442.812 91.2539L442.813 128.027" stroke="#74B8F6" stroke-width="6.49932"/>
<path d="M442.812 9.53516L442.813 40.8608" stroke="#74B8F6" stroke-width="6.49932"/>
<path d="M403.32 126.664L403.32 186.591" stroke="#74B8F6" stroke-width="6.49932"/>
<path d="M403.32 9.53516L403.32 36.7748" stroke="#74B8F6" stroke-width="6.49932"/>
<path d="M363.82 163.438L363.82 186.591" stroke="#74B8F6" stroke-width="6.49932"/>
<path d="M363.82 35.4121L363.82 58.5658" stroke="#74B8F6" stroke-width="6.49932"/>
<path d="M463.246 163.438L463.246 186.591" stroke="#74B8F6" stroke-width="6.49932"/>
<path d="M463.246 16.3438L463.246 110.321" stroke="#74B8F6" stroke-width="6.49932"/>
<path d="M423.746 163.438L423.746 186.591" stroke="#74B8F6" stroke-width="6.49932"/>
<path d="M423.746 108.959L423.746 143.009" stroke="#74B8F6" stroke-width="6.49932"/>
<path d="M423.746 5.44727L423.746 32.6869" stroke="#74B8F6" stroke-width="6.49932"/>
<path d="M384.25 143.008L384.25 186.591" stroke="#74B8F6" stroke-width="6.49932"/>
<path d="M384.25 14.9824L384.25 58.5659" stroke="#74B8F6" stroke-width="6.49932"/>
<path d="M259.743 201.478C242.166 201.415 226.982 197.351 214.193 189.287C201.404 181.223 191.544 169.599 184.614 154.416C177.684 139.233 174.25 121.025 174.313 99.794C174.376 78.4996 177.841 60.4182 184.709 45.5499C191.639 30.6816 201.467 19.3729 214.193 11.6237C226.982 3.87458 242.166 0 259.743 0C277.32 0 292.504 3.90608 305.293 11.7182C318.082 19.4674 327.942 30.7761 334.872 45.6444C341.802 60.5127 345.236 78.5626 345.173 99.794C345.173 121.151 341.708 139.422 334.778 154.605C327.847 169.788 317.988 181.412 305.198 189.476C292.472 197.477 277.32 201.478 259.743 201.478ZM259.743 158.763C268.815 158.763 276.249 154.038 282.045 144.588C287.905 135.075 290.803 120.143 290.74 99.794C290.74 86.5007 289.417 75.633 286.771 67.1908C284.125 58.7487 280.47 52.5115 275.808 48.4795C271.146 44.3844 265.791 42.3368 259.743 42.3368C250.671 42.3368 243.268 46.9359 237.535 56.1341C231.802 65.3323 228.872 79.8856 228.746 99.794C228.683 113.339 229.975 124.49 232.621 133.248C235.267 141.942 238.921 148.368 243.583 152.526C248.308 156.684 253.695 158.763 259.743 158.763Z" fill="#0A0A0A"/>
<path d="M24.7566 196.186V158.385L96.9561 98.66C101.744 94.6909 105.839 90.9738 109.241 87.5087C112.706 83.9807 115.352 80.3581 117.179 76.641C119.07 72.924 120.015 68.7974 120.015 64.2613C120.015 59.2842 118.944 55.0316 116.801 51.5035C114.722 47.9755 111.824 45.2664 108.107 43.3764C104.39 41.4233 100.106 40.4468 95.255 40.4468C90.4039 40.4468 86.1199 41.4233 82.4028 43.3764C78.7487 45.3294 75.9137 48.196 73.8976 51.976C71.8816 55.7561 70.8736 60.3552 70.8736 65.7733H20.9766C20.9766 52.165 24.0321 40.4468 30.1432 30.6186C36.2544 20.7904 44.8855 13.2303 56.0368 7.93816C67.188 2.64606 80.2607 0 95.255 0C110.753 0 124.173 2.48855 135.513 7.46566C146.916 12.3798 155.705 19.3099 161.879 28.2561C168.116 37.2022 171.235 47.6919 171.235 59.7252C171.235 67.1593 169.691 74.562 166.604 81.9331C163.517 89.2413 157.973 97.3369 149.972 106.22C141.97 115.103 130.599 125.688 115.856 137.973L97.7121 153.093V154.227H173.314V196.186H24.7566Z" fill="#0A0A0A"/>
<path d="M48.3515 6.14258C54.4635 6.36383 60.5874 6.69319 66.7054 6.69319C68.6677 6.69319 68.5544 6.98704 66.7666 7.79443C66.1876 8.0559 62.0083 10.1796 63.2182 11.6487C63.5368 12.0357 64.7603 12.0607 64.9312 12.077C69.1275 12.4781 73.3126 12.8189 77.5036 13.3006C82.0261 13.8204 95.6684 14.4018 91.1161 14.4018C88.4489 14.4018 85.8699 13.7973 83.2239 13.5453C79.0613 13.1489 66.5007 13.3006 70.6821 13.3006C73.4352 13.3006 76.1882 13.3006 78.9413 13.3006C81.5008 13.3006 82.8363 13.6182 79.3084 14.7077C74.8383 16.0882 70.1397 16.4799 65.6042 17.5832C61.1057 18.6774 64.8532 18.7957 67.3784 18.8068C75.6067 18.8427 83.8359 18.8068 92.0643 18.8068C93.706 18.8068 98.631 18.8068 96.9893 18.8068C94.9194 18.8068 92.8495 18.8068 90.7796 18.8068C84.4081 18.8068 78.032 18.8775 71.661 18.8068C66.1876 18.7459 77.4787 16.8029 78.8801 16.2984C81.7581 15.2623 79.5784 14.4279 77.6566 14.1877C73.1004 13.6182 66.5784 12.8515 62.1169 14.3101C61.0136 14.6708 51.96 20.9183 56.8555 21.4375C61.4634 21.9262 67.1434 20.4614 70.7127 17.522C72.988 15.6482 76.8709 10.2741 71.8751 9.75217C65.9619 9.13438 59.9063 9.81499 54.1024 10.9758C52.6712 11.262 48.4603 11.8039 49.881 12.1382C52.7451 12.8121 57.501 12.1994 60.2204 12.1994C66.8085 12.1994 86.403 11.0948 79.9814 12.5664C72.37 14.3107 64.4637 14.9956 56.7637 16.2678C54.5728 16.6298 48.5548 17.1549 54.4083 17.1549C59.5401 17.1549 74.6798 16.7815 69.7644 18.2561C68.0227 18.7787 61.959 19.1679 60.9545 19.235C54.3974 19.6732 47.8208 19.8945 41.2547 20.1527C38.6463 20.2553 30.9587 20.9505 33.4237 20.0915C37.0706 18.8206 41.9832 19.0086 45.7208 18.9291C50.8644 18.8197 61.8799 17.5927 66.1548 21.621C67.3381 22.736 63.0084 22.6027 61.3828 22.6305C57.4275 22.6981 53.4696 22.6611 49.5139 22.6611C48.9187 22.6611 43.1442 22.6611 47.3421 22.6611C49.8406 22.6611 52.3401 22.6609 54.8366 22.7834C55.5614 22.819 56.2866 22.8612 57.0084 22.9364C59.0169 23.1456 56.5559 23.1722 56.1825 23.1811C48.4349 23.3656 40.6819 23.0758 32.9343 23.334C31.8702 23.3695 22.6063 23.9903 28.7741 24.6188C35.3878 25.2928 42.1137 24.7195 48.7492 24.8941C53.9943 25.0322 47.6034 26.5381 46.2714 26.7601C42.3789 27.4089 30.5175 27.6166 34.4638 27.6166C43.5943 27.6166 52.7457 27.4309 61.8722 27.739C63.3432 27.7886 64.8633 27.6356 66.2771 28.0449C68.4367 28.67 61.84 28.7808 59.6086 29.0543C48.4775 30.4188 37.2765 32.3062 26.0821 33.0004C25.8106 33.0173 16.4378 33.1228 21.8608 33.1228C28.7726 33.1228 35.6893 33.0415 42.6006 33.1228C44.7228 33.1477 44.3752 33.7526 42.4783 34.5605C36.9513 36.9146 30.829 36.9874 25.1645 38.8431C24.7103 38.9919 23.5067 39.5269 23.9715 39.6384C27.1194 40.3939 32.1978 39.7302 35.1979 39.7302C41.3974 39.7302 47.597 39.7302 53.7965 39.7302C54.4287 39.7302 55.0615 39.7021 55.6931 39.7302C56.8166 39.7801 53.451 39.9114 52.3282 39.9749C43.8344 40.4551 35.3253 40.8314 26.8163 40.8314C23.7083 40.8314 37.5844 39.612 36.0238 42.2997C34.1518 45.5239 25.8134 45.3049 22.5949 46.0317C20.7209 46.4548 14.6804 47.3 19.903 47.5612C26.294 47.8807 32.6921 47.9825 39.0828 48.2953C39.3653 48.3092 46.4298 48.1346 46.9444 49.3354C47.7167 51.1374 43.3144 50.9313 41.377 51.2319C36.0982 52.0511 30.6678 52.0702 25.5315 53.6791C23.5214 54.3088 26.2276 54.4407 26.8775 54.7192C27.1808 54.8492 28.1214 55.1979 27.4281 55.4533C22.1283 57.4059 16.0556 57.7886 10.6037 59.43C9.8211 59.6656 4.84853 60.5218 8.03417 61.3266C15.9128 63.317 24.7158 62.2151 32.7507 62.4278C33.401 62.445 47.6081 62.3209 41.0406 64.5385C36.604 66.0366 31.787 66.5931 27.734 69.0964C25.7792 70.3038 29.0131 69.8111 29.447 69.7694C34.9295 69.2416 40.3964 68.3281 45.8432 67.5363C51.1309 66.7676 56.4925 66.1533 61.7499 65.1809C62.2596 65.0866 65.3508 64.6029 63.2182 63.682C57.2593 61.1089 49.0072 61.2568 42.6618 60.3477C38.7411 59.786 34.7552 59.4492 30.8542 58.757C29.0029 58.4286 29.5883 58.1366 30.9153 58.0229C39.1579 57.3164 63.957 57.9193 55.7237 58.7264C48.9815 59.3874 41.8725 59.2379 35.1367 58.6347C33.7227 58.508 24.2906 57.8847 30.1812 56.1263C35.9569 54.4022 42.0858 54.5968 48.0456 54.5968C49.881 54.5968 55.3872 54.5968 53.5518 54.5968C50.3603 54.5968 47.1687 54.5968 43.9772 54.5968C40.3572 54.5968 29.5588 55.1366 33.1178 54.4745C39.7963 53.232 47.2189 54.0119 53.98 54.0462C54.8258 54.0505 56.9353 54.0484 57.9567 54.1686C59.277 54.3239 57.948 54.5502 57.6508 54.5662C53.2617 54.8035 48.3685 54.9966 44.1913 53.465C40.1341 51.9774 42.9771 51.2021 45.7208 50.7425C55.9653 49.0264 66.6412 49.6042 76.9836 49.6413C78.0452 49.6451 80.9399 49.6365 82.3062 49.7636C83.5934 49.8834 83.0797 50.1211 82.0003 50.1919C75.0564 50.6472 68.0648 50.7425 61.1075 50.7425C58.8835 50.7425 52.9307 51.6752 54.4695 50.0695C55.558 48.9337 59.826 49.1883 60.8933 49.1518C64.6573 49.0232 68.3608 49.1288 72.0892 49.7025C74.0258 50.0004 77.9362 50.8105 79.9202 51.2319C80.9615 51.4532 83.9165 51.6449 82.9792 52.1496C81.39 53.0053 77.5748 52.7811 76.1271 52.8226C69.6459 53.0084 63.1547 52.945 56.6719 52.945C51.2066 52.945 34.8104 52.945 40.2758 52.945C49.6566 52.945 59.0377 52.9719 68.4184 52.945C68.8019 52.9439 73.6791 52.9543 74.9035 52.8226C76.2636 52.6764 74.9986 52.0163 74.567 51.8131C71.793 50.5078 69.0642 49.7632 66.6442 47.7753C65.1012 46.5078 66.0004 45.7782 67.7455 45.3587C76.4086 43.2762 86.3678 44.8419 95.2151 44.6857C107.114 44.4758 48.3772 38.7844 60.2204 37.6195C67.0895 36.9438 74.2516 37.5522 81.1438 37.5277C82.9425 37.5213 88.0843 38.0619 86.5276 37.1606C84.2821 35.8606 79.9268 35.4511 77.5954 34.9582C69.288 33.2018 60.9735 31.8412 52.4811 31.5015C44.1663 31.1689 69.1286 31.4611 77.4424 31.1039C84.761 30.7894 106.531 29.24 99.253 28.412C85.7829 26.8794 71.5662 28.1672 58.0179 28.1672C55.9582 28.1672 53.8985 28.1672 51.8388 28.1672C48.7798 28.1672 57.9567 28.1672 61.0157 28.1672C68.7243 28.1672 76.433 28.1672 84.1416 28.1672C88.0827 28.1672 93.6499 28.9873 97.6011 28.0755C99.081 27.734 94.6163 27.4848 93.1044 27.3413C87.249 26.7854 81.3934 26.5938 75.5153 26.5154C73.8203 26.4928 68.749 26.3908 70.4374 26.2401C76.1734 25.7279 82.0054 25.8951 87.7512 25.5977C93.164 25.3176 101.543 24.7746 106.962 23.9458C109.209 23.602 111.461 23.1916 113.63 22.5081C116.174 21.7065 119.156 20.7367 115.282 18.4703C107.039 13.6476 96.6793 12.4219 87.7512 9.32392C80.2862 6.73366 87.4704 7.24381 89.6783 7.24381C96.6018 7.24381 103.525 7.24381 110.449 7.24381C111.03 7.24381 111.611 7.24381 112.192 7.24381C113.549 7.24381 109.48 7.24381 108.124 7.24381C102.292 7.24381 96.4591 7.24381 90.6266 7.24381C80.892 7.24381 99.0898 7.24381 99.3753 7.24381C112.45 7.24381 125.684 6.63522 138.744 7.30499C140.415 7.39064 140.777 7.56435 138.683 7.79443C131.599 8.57291 124.404 8.51531 117.301 9.0792C109.34 9.71123 101.031 10.28 93.2268 12.1382C88.2021 13.3345 92.601 14.6465 95.2151 15.3195C108.614 18.7691 122.832 20.5346 136.603 21.6822C139.137 21.8934 146.632 21.3063 144.22 22.1105C142.482 22.6898 136.987 22.2013 135.777 22.2634C124.204 22.8569 112.527 24.3609 101.15 26.5766C93.3354 28.0983 117.054 27.3299 125.01 27.6166C128.689 27.7492 139.556 27.4422 136.022 28.4731C130.296 30.1431 123.494 29.1151 117.607 29.2991C115.753 29.357 116.89 29.445 117.974 29.605C119.903 29.8895 122.291 29.9468 124.092 30.798C125.892 31.6491 120.178 31.6408 118.188 31.7157C110.228 32.0152 102.259 32.0024 94.2974 32.2663C90.3412 32.3974 86.1028 32.5996 82.1227 32.8781C81.3159 32.9345 80.5096 33.0012 79.7061 33.0922C78.6096 33.2163 78.5875 33.2488 79.7367 33.5204C91.4616 36.2918 103.428 38.4179 115.221 40.9232C116.746 41.2472 131.069 43.0205 122.44 45.4199C116.684 47.0205 98.6022 46.7524 104.576 46.8882C115.411 47.1344 126.156 48.0713 136.909 49.4577C144.558 50.444 152.189 51.6499 159.76 53.1285C160.506 53.2743 166.68 54.0904 161.687 54.8415C148.72 56.7924 135.017 55.6981 121.951 55.6981C117.219 55.6981 112.488 55.6981 107.757 55.6981C106.248 55.6981 110.775 55.6913 112.284 55.6981C118.522 55.7259 126.837 54.2848 132.045 58.4511" stroke="#F9F9F9" stroke-width="6.50218" stroke-linecap="round"/>
<path d="M100.485 20.4287C106.597 20.65 112.721 20.9793 118.839 20.9793C120.801 20.9793 120.688 21.2732 118.9 22.0806C118.321 22.342 114.142 24.4657 115.352 25.9349C115.671 26.3218 116.894 26.3468 117.065 26.3631C121.261 26.7642 125.446 27.105 129.637 27.5867C134.16 28.1066 147.802 28.688 143.25 28.688C140.583 28.688 138.004 28.0834 135.358 27.8314C131.195 27.435 118.634 27.5867 122.816 27.5867C125.569 27.5867 128.322 27.5867 131.075 27.5867C133.635 27.5867 134.97 27.9044 131.442 28.9939C126.972 30.3743 122.274 30.766 117.738 31.8693C113.24 32.9635 116.987 33.0819 119.512 33.0929C127.74 33.1288 135.97 33.0929 144.198 33.0929C145.84 33.0929 150.765 33.0929 149.123 33.0929C147.053 33.0929 144.983 33.0929 142.913 33.0929C136.542 33.0929 130.166 33.1637 123.795 33.0929C118.321 33.0321 129.613 31.089 131.014 30.5845C133.892 29.5484 131.712 28.7141 129.79 28.4738C125.234 27.9043 118.712 27.1376 114.251 28.5962C113.147 28.9569 104.094 35.2044 108.989 35.7236C113.597 36.2123 119.277 34.7475 122.846 31.8081C125.122 29.9343 129.005 24.5603 124.009 24.0383C118.096 23.4205 112.04 24.1011 106.236 25.2619C104.805 25.5481 100.594 26.09 102.015 26.4243C104.879 27.0982 109.635 26.4855 112.354 26.4855C118.942 26.4855 138.537 25.3809 132.115 26.8526C124.504 28.5968 116.597 29.2818 108.898 30.5539C106.707 30.9159 100.689 31.441 106.542 31.441C111.674 31.441 126.814 31.0676 121.898 32.5423C120.156 33.0648 114.093 33.454 113.088 33.5211C106.531 33.9594 99.9545 34.1806 93.3885 34.4388C90.7801 34.5414 83.0925 35.2367 85.5575 34.3777C89.2044 33.1068 94.117 33.2948 97.8546 33.2152C102.998 33.1058 114.014 31.8789 118.289 35.9071C119.472 37.0222 115.142 36.8888 113.517 36.9166C109.561 36.9842 105.603 36.9472 101.648 36.9472C101.052 36.9472 95.278 36.9472 99.4758 36.9472C101.974 36.9472 104.474 36.947 106.97 37.0696C107.695 37.1051 108.42 37.1473 109.142 37.2225C111.151 37.4317 108.69 37.4583 108.316 37.4672C100.569 37.6517 92.8157 37.3619 85.0681 37.6202C84.004 37.6556 74.7401 38.2764 80.9078 38.905C87.5216 39.579 94.2475 39.0056 100.883 39.1803C106.128 39.3183 99.7371 40.8242 98.4052 41.0462C94.5127 41.695 82.6513 41.9028 86.5975 41.9028C95.728 41.9028 104.88 41.717 114.006 42.0251C115.477 42.0748 116.997 41.9217 118.411 42.331C120.57 42.9561 113.974 43.0669 111.742 43.3405C100.611 44.7049 89.4103 46.5923 78.2159 47.2866C77.9444 47.3034 68.5716 47.4089 73.9945 47.4089C80.9064 47.4089 87.8231 47.3276 94.7344 47.4089C96.8566 47.4339 96.509 48.0387 94.6121 48.8466C89.0851 51.2007 82.9628 51.2736 77.2982 53.1292C76.8441 53.278 75.6405 53.813 76.1052 53.9245C79.2532 54.6801 84.3316 54.0163 87.3317 54.0163C93.5312 54.0163 99.7308 54.0163 105.93 54.0163C106.562 54.0163 107.195 53.9882 107.827 54.0163C108.95 54.0662 105.585 54.1976 104.462 54.261C95.9681 54.7412 87.4591 55.1175 78.9501 55.1175C75.8421 55.1175 89.7182 53.8981 88.1576 56.5859C86.2855 59.81 77.9472 59.5911 74.7287 60.3178C72.8547 60.741 66.8142 61.5862 72.0368 61.8473C78.4278 62.1669 84.8259 62.2686 91.2166 62.5815C91.4991 62.5953 98.5636 62.4207 99.0782 63.6215C99.8505 65.4235 95.4482 65.2175 93.5108 65.5181C88.232 66.3372 82.8015 66.3563 77.6653 67.9653C75.6551 68.595 78.3614 68.7268 79.0113 69.0053C79.3146 69.1353 80.2552 69.484 79.5619 69.7395C74.2621 71.692 68.1894 72.0747 62.7375 73.7161C61.9549 73.9518 56.9823 74.8079 60.168 75.6127C68.0465 77.6031 76.8496 76.5013 84.8845 76.7139C85.5348 76.7312 99.7419 76.607 93.1743 78.8246C88.7377 80.3227 83.9208 80.8792 79.8678 83.3825C77.913 84.5899 81.1469 84.0973 81.5808 84.0555C87.0633 83.5278 92.5302 82.6143 97.9769 81.8224C103.265 81.0537 108.626 80.4395 113.884 79.467C114.393 79.3727 117.485 78.889 115.352 77.9681C109.393 75.395 101.141 75.5429 94.7956 74.6338C90.8749 74.0721 86.889 73.7353 82.9879 73.0432C81.1367 72.7147 81.7221 72.4228 83.0491 72.309C91.2917 71.6025 116.091 72.2054 107.857 73.0126C101.115 73.6736 94.0063 73.524 87.2705 72.9208C85.8565 72.7942 76.4244 72.1708 82.315 70.4124C88.0907 68.6883 94.2196 68.883 100.179 68.883C102.015 68.883 107.521 68.883 105.686 68.883C102.494 68.883 99.3025 68.883 96.111 68.883C92.4909 68.883 81.6926 69.4227 85.2516 68.7606C91.9301 67.5181 99.3527 68.298 106.114 68.3323C106.96 68.3366 109.069 68.3345 110.091 68.4547C111.411 68.61 110.082 68.8363 109.785 68.8524C105.395 69.0896 100.502 69.2827 96.3251 67.7511C92.2679 66.2635 95.1108 65.4883 97.8546 65.0286C108.099 63.3126 118.775 63.8903 129.117 63.9274C130.179 63.9312 133.074 63.9227 134.44 64.0498C135.727 64.1695 135.214 64.4072 134.134 64.478C127.19 64.9334 120.199 65.0286 113.241 65.0286C111.017 65.0286 105.064 65.9614 106.603 64.3557C107.692 63.2198 111.96 63.4745 113.027 63.438C116.791 63.3093 120.495 63.415 124.223 63.9886C126.16 64.2865 130.07 65.0966 132.054 65.5181C133.095 65.7393 136.05 65.9311 135.113 66.4358C133.524 67.2915 129.709 67.0672 128.261 67.1087C121.78 67.2945 115.289 67.2311 108.806 67.2311C103.34 67.2311 86.9442 67.2311 92.4096 67.2311C101.79 67.2311 111.172 67.258 120.552 67.2311C120.936 67.23 125.813 67.2404 127.037 67.1087C128.397 66.9625 127.132 66.3024 126.701 66.0993C123.927 64.7939 121.198 64.0493 118.778 62.0614C117.235 60.7939 118.134 60.0643 119.879 59.6448C128.542 57.5624 138.502 59.128 147.349 58.9719C159.247 58.7619 100.511 53.0705 112.354 51.9056C119.223 51.23 126.385 51.8383 133.278 51.8138C135.076 51.8075 140.218 52.348 138.661 51.4468C136.416 50.1467 132.061 49.7372 129.729 49.2443C121.422 47.4879 113.107 46.1273 104.615 45.7877C96.3001 45.4551 121.262 45.7472 129.576 45.39C136.895 45.0755 158.665 43.5262 151.387 42.6981C137.917 41.1656 123.7 42.4534 110.152 42.4534C108.092 42.4534 106.032 42.4534 103.973 42.4534C100.914 42.4534 110.091 42.4534 113.149 42.4534C120.858 42.4534 128.567 42.4534 136.275 42.4534C140.217 42.4534 145.784 43.2734 149.735 42.3616C151.215 42.0201 146.75 41.771 145.238 41.6274C139.383 41.0715 133.527 40.8799 127.649 40.8015C125.954 40.7789 120.883 40.677 122.571 40.5262C128.307 40.0141 134.139 40.1812 139.885 39.8838C145.298 39.6037 153.677 39.0608 159.095 38.232C161.343 37.8881 163.595 37.4777 165.764 36.7943C168.307 35.9927 171.29 35.0228 167.416 32.7564C159.172 27.9337 148.813 26.708 139.885 23.6101C132.42 21.0198 139.604 21.5299 141.812 21.5299C148.736 21.5299 155.659 21.5299 162.583 21.5299C163.164 21.5299 163.745 21.5299 164.326 21.5299C165.682 21.5299 161.614 21.5299 160.258 21.5299C154.425 21.5299 148.593 21.5299 142.76 21.5299C133.026 21.5299 151.224 21.5299 151.509 21.5299C164.584 21.5299 177.818 20.9214 190.878 21.5911C192.548 21.6768 192.911 21.8505 190.817 22.0806C183.733 22.859 176.538 22.8014 169.435 23.3653C161.474 23.9974 153.165 24.5662 145.361 26.4243C140.336 27.6207 144.735 28.9326 147.349 29.6057C160.748 33.0552 174.965 34.8207 188.737 35.9683C191.271 36.1795 198.766 35.5924 196.354 36.3966C194.616 36.976 189.121 36.4875 187.911 36.5495C176.338 37.143 164.661 38.647 153.283 40.8627C145.469 42.3844 169.188 41.6161 177.143 41.9028C180.823 42.0353 191.69 41.7283 188.156 42.7593C182.43 44.4292 175.627 43.4012 169.741 43.5852C167.887 43.6431 169.024 43.7312 170.108 43.8911C172.036 44.1757 174.425 44.2329 176.226 45.0841C178.026 45.9352 172.312 45.9269 170.322 46.0018C162.361 46.3014 154.393 46.2886 146.431 46.5524C142.475 46.6835 138.237 46.8857 134.256 47.1642C133.45 47.2206 132.643 47.2874 131.84 47.3783C130.743 47.5024 130.721 47.535 131.87 47.8066C143.595 50.5779 155.562 52.7041 167.355 55.2093C168.88 55.5333 183.203 57.3067 174.574 59.706C168.817 61.3066 150.736 61.0386 156.709 61.1743C167.544 61.4206 178.29 62.3574 189.043 63.7439C196.692 64.7301 204.323 65.9361 211.893 67.4146C212.64 67.5605 218.814 68.3765 213.821 69.1277C200.853 71.0785 187.151 69.9842 174.084 69.9842C169.353 69.9842 164.622 69.9842 159.891 69.9842C158.382 69.9842 162.909 69.9775 164.418 69.9842C170.655 70.012 178.971 68.5709 184.179 72.7373" stroke="#F9F9F9" stroke-width="4.74611" stroke-linecap="round"/>
<path d="M85.5048 147.094C91.6169 147.315 97.7407 147.644 103.859 147.644C105.821 147.644 105.708 147.938 103.92 148.746C103.341 149.007 99.1616 151.131 100.371 152.6C100.69 152.987 101.914 153.012 102.085 153.028C106.281 153.429 110.466 153.77 114.657 154.252C119.179 154.772 132.822 155.353 128.269 155.353C125.602 155.353 123.023 154.748 120.377 154.496C116.215 154.1 103.654 154.252 107.835 154.252C110.588 154.252 113.342 154.252 116.095 154.252C118.654 154.252 119.99 154.569 116.462 155.659C111.992 157.039 107.293 157.431 102.757 158.534C98.2591 159.629 102.007 159.747 104.532 159.758C112.76 159.794 120.989 159.758 129.218 159.758C130.859 159.758 135.784 159.758 134.143 159.758C132.073 159.758 130.003 159.758 127.933 159.758C121.561 159.758 115.185 159.829 108.814 159.758C103.341 159.697 114.632 157.754 116.033 157.25C118.911 156.213 116.732 155.379 114.81 155.139C110.254 154.569 103.732 153.803 99.2703 155.261C98.1669 155.622 89.1133 161.869 94.0088 162.389C98.6167 162.877 104.297 161.413 107.866 158.473C110.141 156.599 114.024 151.225 109.028 150.703C103.115 150.086 97.0596 150.766 91.2557 151.927C89.8246 152.213 85.6136 152.755 87.0343 153.089C89.8984 153.763 94.6543 153.151 97.3737 153.151C103.962 153.151 123.556 152.046 117.135 153.518C109.523 155.262 101.617 155.947 93.917 157.219C91.7261 157.581 85.7081 158.106 91.5616 158.106C96.6935 158.106 111.833 157.733 106.918 159.207C105.176 159.73 99.1124 160.119 98.1078 160.186C91.5507 160.624 84.9741 160.846 78.408 161.104C75.7996 161.206 68.112 161.902 70.577 161.043C74.2239 159.772 79.1365 159.96 82.8741 159.88C88.0177 159.771 99.0332 158.544 103.308 162.572C104.491 163.687 100.162 163.554 98.5361 163.582C94.5808 163.649 90.6229 163.612 86.6673 163.612C86.072 163.612 80.2976 163.612 84.4954 163.612C86.994 163.612 89.4934 163.612 91.9899 163.735C92.7148 163.77 93.4399 163.812 94.1618 163.888C96.1702 164.097 93.7092 164.123 93.3358 164.132C85.5882 164.317 77.8352 164.027 70.0876 164.285C69.0236 164.321 59.7596 164.941 65.9274 165.57C72.5412 166.244 79.267 165.671 85.9025 165.845C91.1476 165.983 84.7567 167.489 83.4247 167.711C79.5322 168.36 67.6708 168.568 71.6171 168.568C80.7476 168.568 89.8991 168.382 99.0255 168.69C100.497 168.74 102.017 168.587 103.43 168.996C105.59 169.621 98.9934 169.732 96.7619 170.006C85.6308 171.37 74.4298 173.257 63.2355 173.952C62.9639 173.968 53.5911 174.074 59.0141 174.074C65.9259 174.074 72.8426 173.993 79.754 174.074C81.8761 174.099 81.5285 174.704 79.6316 175.512C74.1047 177.866 67.9823 177.939 62.3178 179.794C61.8636 179.943 60.66 180.478 61.1248 180.59C64.2727 181.345 69.3511 180.681 72.3512 180.681C78.5508 180.681 84.7503 180.681 90.9498 180.681C91.582 180.681 92.2148 180.653 92.8464 180.681C93.9699 180.731 90.6043 180.863 89.4815 180.926C80.9877 181.406 72.4787 181.783 63.9696 181.783C60.8617 181.783 74.7378 180.563 73.1772 183.251C71.3051 186.475 62.9667 186.256 59.7482 186.983C57.8742 187.406 51.8338 188.251 57.0563 188.512C63.4474 188.832 69.8454 188.934 76.2361 189.246C76.5186 189.26 83.5831 189.086 84.0977 190.287C84.87 192.089 80.4677 191.882 78.5304 192.183C73.2515 193.002 67.8211 193.021 62.6849 194.63C60.6747 195.26 63.3809 195.392 64.0308 195.67C64.3341 195.8 65.2748 196.149 64.5814 196.405C59.2816 198.357 53.2089 198.74 47.757 200.381C46.9744 200.617 42.0019 201.473 45.1875 202.278C53.0661 204.268 61.8692 203.166 69.904 203.379C70.5544 203.396 84.7614 203.272 78.1939 205.49C73.7573 206.988 68.9403 207.544 64.8873 210.048C62.9325 211.255 66.1664 210.762 66.6003 210.721C72.0828 210.193 77.5497 209.279 82.9965 208.487C88.2842 207.719 93.6458 207.105 98.9032 206.132C99.4129 206.038 102.504 205.554 100.371 204.633C94.4127 202.06 86.1605 202.208 79.8151 201.299C75.8944 200.737 71.9085 200.4 68.0075 199.708C66.1562 199.38 66.7417 199.088 68.0687 198.974C76.3112 198.268 101.11 198.87 92.877 199.678C86.1348 200.339 79.0258 200.189 72.2901 199.586C70.876 199.459 61.4439 198.836 67.3345 197.077C73.1103 195.353 79.2391 195.548 85.1989 195.548C87.0343 195.548 92.5405 195.548 90.7051 195.548C87.5136 195.548 84.322 195.548 81.1305 195.548C77.5105 195.548 66.7122 196.088 70.2711 195.426C76.9496 194.183 84.3722 194.963 91.1334 194.997C91.9791 195.002 94.0886 195 95.11 195.12C96.4304 195.275 95.1013 195.501 94.8041 195.517C90.415 195.755 85.5218 195.948 81.3446 194.416C77.2874 192.929 80.1304 192.153 82.8741 191.694C93.1186 189.978 103.795 190.555 114.137 190.592C115.199 190.596 118.093 190.588 119.46 190.715C120.747 190.835 120.233 191.072 119.154 191.143C112.21 191.598 105.218 191.694 98.2608 191.694C96.0368 191.694 90.084 192.626 91.6228 191.021C92.7113 189.885 96.9793 190.14 98.0467 190.103C101.811 189.974 105.514 190.08 109.243 190.654C111.179 190.952 115.09 191.762 117.074 192.183C118.115 192.404 121.07 192.596 120.132 193.101C118.543 193.957 114.728 193.732 113.28 193.774C106.799 193.96 100.308 193.896 93.8253 193.896C88.3599 193.896 71.9638 193.896 77.4291 193.896C86.8099 193.896 96.191 193.923 105.572 193.896C105.955 193.895 110.832 193.905 112.057 193.774C113.417 193.628 112.152 192.967 111.72 192.764C108.946 191.459 106.218 190.714 103.798 188.726C102.254 187.459 103.154 186.729 104.899 186.31C113.562 184.227 123.521 185.793 132.368 185.637C144.267 185.427 85.5305 179.736 97.3737 178.571C104.243 177.895 111.405 178.503 118.297 178.479C120.096 178.473 125.238 179.013 123.681 178.112C121.435 176.812 117.08 176.402 114.749 175.909C106.441 174.153 98.1268 172.792 89.6345 172.453C81.3196 172.12 106.282 172.412 114.596 172.055C121.914 171.741 143.685 170.191 136.406 169.363C122.936 167.831 108.72 169.118 95.1712 169.118C93.1115 169.118 91.0518 169.118 88.9921 169.118C85.9331 169.118 95.11 169.118 98.169 169.118C105.878 169.118 113.586 169.118 121.295 169.118C125.236 169.118 130.803 169.938 134.754 169.027C136.234 168.685 131.77 168.436 130.258 168.292C124.402 167.737 118.547 167.545 112.669 167.467C110.974 167.444 105.902 167.342 107.591 167.191C113.327 166.679 119.159 166.846 124.905 166.549C130.317 166.269 138.697 165.726 144.115 164.897C146.363 164.553 148.615 164.143 150.783 163.459C153.327 162.658 156.309 161.688 152.435 159.421C144.192 154.599 133.833 153.373 124.905 150.275C117.44 147.685 124.624 148.195 126.832 148.195C133.755 148.195 140.679 148.195 147.602 148.195C148.183 148.195 148.765 148.195 149.346 148.195C150.702 148.195 146.633 148.195 145.277 148.195C139.445 148.195 133.612 148.195 127.78 148.195C118.045 148.195 136.243 148.195 136.529 148.195C149.603 148.195 162.837 147.586 175.898 148.256C177.568 148.342 177.93 148.516 175.837 148.746C168.752 149.524 161.557 149.466 154.454 150.03C146.493 150.662 138.184 151.231 130.38 153.089C125.355 154.286 129.754 155.598 132.368 156.271C145.767 159.72 159.985 161.486 173.756 162.633C176.291 162.845 183.786 162.257 181.373 163.062C179.635 163.641 174.141 163.153 172.93 163.215C161.357 163.808 149.681 165.312 138.303 167.528C130.489 169.049 154.207 168.281 162.163 168.568C165.842 168.7 176.71 168.393 173.175 169.424C167.45 171.094 160.647 170.066 154.76 170.25C152.906 170.308 154.043 170.396 155.127 170.556C157.056 170.841 159.445 170.898 161.245 171.749C163.046 172.6 157.332 172.592 155.341 172.667C147.381 172.966 139.412 172.954 131.451 173.217C127.495 173.349 123.256 173.551 119.276 173.829C118.469 173.886 117.663 173.952 116.859 174.043C115.763 174.167 115.741 174.2 116.89 174.472C128.615 177.243 140.581 179.369 152.374 181.874C153.899 182.198 168.223 183.972 159.593 186.371C153.837 187.972 135.756 187.704 141.729 187.839C152.564 188.086 163.31 189.022 174.062 190.409C181.711 191.395 189.343 192.601 196.913 194.08C197.659 194.225 203.833 195.042 198.84 195.793C185.873 197.744 172.17 196.649 159.104 196.649C154.373 196.649 149.641 196.649 144.91 196.649C143.401 196.649 147.928 196.642 149.438 196.649C155.675 196.677 163.991 195.236 169.199 199.402" stroke="#F9F9F9" stroke-width="6.50218" stroke-linecap="round"/>
<path d="M82.7783 78.9922C88.8903 79.2134 95.0142 79.5428 101.132 79.5428C103.094 79.5428 102.981 79.8367 101.193 80.644C100.614 80.9055 96.435 83.0292 97.6449 84.4984C97.9636 84.8853 99.187 84.9103 99.358 84.9266C103.554 85.3277 107.739 85.6685 111.93 86.1502C116.453 86.67 130.095 87.2514 125.543 87.2514C122.876 87.2514 120.297 86.6469 117.651 86.3949C113.488 85.9985 100.927 86.1502 105.109 86.1502C107.862 86.1502 110.615 86.1502 113.368 86.1502C115.928 86.1502 117.263 86.4678 113.735 87.5573C109.265 88.9378 104.566 89.3295 100.031 90.4328C95.5325 91.527 99.28 91.6453 101.805 91.6564C110.033 91.6923 118.263 91.6564 126.491 91.6564C128.133 91.6564 133.058 91.6564 131.416 91.6564C129.346 91.6564 127.276 91.6564 125.206 91.6564C118.835 91.6564 112.459 91.7272 106.088 91.6564C100.614 91.5956 111.905 89.6525 113.307 89.148C116.185 88.1119 114.005 87.2775 112.083 87.0373C107.527 86.4678 101.005 85.7011 96.5437 87.1597C95.4404 87.5204 86.3867 93.7679 91.2822 94.2871C95.8902 94.7758 101.57 93.311 105.139 90.3716C107.415 88.4978 111.298 83.1237 106.302 82.6018C100.389 81.984 94.333 82.6646 88.5292 83.8254C87.098 84.1116 82.8871 84.6535 84.3078 84.9878C87.1718 85.6617 91.9278 85.049 94.6471 85.049C101.235 85.049 120.83 83.9444 114.408 85.416C106.797 87.1603 98.8904 87.8452 91.1905 89.1174C88.9996 89.4794 82.9815 90.0045 88.8351 90.0045C93.9669 90.0045 109.107 89.6311 104.191 91.1057C102.449 91.6283 96.3858 92.0175 95.3813 92.0846C88.8242 92.5228 82.2475 92.7441 75.6814 93.0023C73.0731 93.1049 65.3854 93.8002 67.8505 92.9411C71.4974 91.6702 76.41 91.8582 80.1476 91.7787C85.2911 91.6693 96.3066 90.4423 100.582 94.4706C101.765 95.5856 97.4352 95.4523 95.8095 95.4801C91.8543 95.5477 87.8964 95.5107 83.9407 95.5107C83.3455 95.5107 77.571 95.5107 81.7688 95.5107C84.2674 95.5107 86.7669 95.5105 89.2633 95.633C89.9882 95.6686 90.7133 95.7108 91.4352 95.786C93.4436 95.9952 90.9826 96.0218 90.6093 96.0307C82.8616 96.2152 75.1087 95.9254 67.361 96.1837C66.297 96.2191 57.0331 96.8399 63.2008 97.4684C69.8146 98.1424 76.5404 97.5691 83.1759 97.7437C88.421 97.8818 82.0301 99.3877 80.6982 99.6097C76.8056 100.258 64.9443 100.466 68.8905 100.466C78.021 100.466 87.1725 100.281 96.299 100.589C97.77 100.638 99.2901 100.485 100.704 100.894C102.863 101.52 96.2668 101.63 94.0353 101.904C82.9043 103.268 71.7033 105.156 60.5089 105.85C60.2374 105.867 50.8645 105.972 56.2875 105.972C63.1994 105.972 70.1161 105.891 77.0274 105.972C79.1496 105.997 78.8019 106.602 76.905 107.41C71.3781 109.764 65.2558 109.837 59.5912 111.693C59.137 111.841 57.9335 112.376 58.3982 112.488C61.5462 113.244 66.6245 112.58 69.6247 112.58C75.8242 112.58 82.0237 112.58 88.2233 112.58C88.8555 112.58 89.4883 112.552 90.1198 112.58C91.2433 112.63 87.8778 112.761 86.755 112.825C78.2611 113.305 69.7521 113.681 61.2431 113.681C58.1351 113.681 72.0112 112.462 70.4506 115.149C68.5785 118.373 60.2402 118.155 57.0217 118.881C55.1477 119.304 49.1072 120.15 54.3298 120.411C60.7208 120.73 67.1189 120.832 73.5096 121.145C73.7921 121.159 80.8565 120.984 81.3711 122.185C82.1434 123.987 77.7411 123.781 75.8038 124.082C70.5249 124.901 65.0945 124.92 59.9583 126.529C57.9481 127.158 60.6544 127.29 61.3042 127.569C61.6075 127.699 62.5482 128.048 61.8549 128.303C56.555 130.256 50.4823 130.638 45.0305 132.28C44.2479 132.515 39.2753 133.371 42.4609 134.176C50.3395 136.167 59.1426 135.065 67.1775 135.277C67.8278 135.295 82.0349 135.171 75.4673 137.388C71.0307 138.886 66.2138 139.443 62.1608 141.946C60.206 143.153 63.4398 142.661 63.8738 142.619C69.3563 142.091 74.8232 141.178 80.2699 140.386C85.5577 139.617 90.9193 139.003 96.1766 138.03C96.6864 137.936 99.7776 137.453 97.6449 136.532C91.6861 133.958 83.434 134.106 77.0886 133.197C73.1679 132.636 69.182 132.299 65.2809 131.607C63.4296 131.278 64.0151 130.986 65.3421 130.872C73.5846 130.166 98.3837 130.769 90.1504 131.576C83.4083 132.237 76.2992 132.087 69.5635 131.484C68.1494 131.358 58.7173 130.734 64.6079 128.976C70.3837 127.252 76.5125 127.446 82.4724 127.446C84.3078 127.446 89.8139 127.446 87.9785 127.446C84.787 127.446 81.5955 127.446 78.4039 127.446C74.7839 127.446 63.9856 127.986 67.5446 127.324C74.223 126.082 81.6457 126.861 88.4068 126.896C89.2525 126.9 91.362 126.898 92.3835 127.018C93.7038 127.174 92.3748 127.4 92.0776 127.416C87.6884 127.653 82.7952 127.846 78.6181 126.315C74.5609 124.827 77.4038 124.052 80.1476 123.592C90.3921 121.876 101.068 122.454 111.41 122.491C112.472 122.495 115.367 122.486 116.733 122.613C118.02 122.733 117.506 122.971 116.427 123.042C109.483 123.497 102.492 123.592 95.5342 123.592C93.3102 123.592 87.3574 124.525 88.8962 122.919C89.9848 121.783 94.2527 122.038 95.3201 122.001C99.084 121.873 102.788 121.978 106.516 122.552C108.453 122.85 112.363 123.66 114.347 124.082C115.388 124.303 118.343 124.495 117.406 124.999C115.817 125.855 112.002 125.631 110.554 125.672C104.073 125.858 97.5815 125.795 91.0987 125.795C85.6333 125.795 69.2372 125.795 74.7026 125.795C84.0833 125.795 93.4645 125.821 102.845 125.795C103.229 125.793 108.106 125.804 109.33 125.672C110.69 125.526 109.425 124.866 108.994 124.663C106.22 123.357 103.491 122.613 101.071 120.625C99.5279 119.357 100.427 118.628 102.172 118.208C110.835 116.126 120.795 117.691 129.642 117.535C141.54 117.325 82.8039 111.634 94.6471 110.469C101.516 109.793 108.678 110.402 115.571 110.377C117.369 110.371 122.511 110.911 120.954 110.01C118.709 108.71 114.354 108.301 112.022 107.808C103.715 106.051 95.4002 104.691 86.9079 104.351C78.5931 104.019 103.555 104.311 111.869 103.953C119.188 103.639 140.958 102.09 133.68 101.262C120.21 99.729 105.993 101.017 92.4447 101.017C90.3849 101.017 88.3252 101.017 86.2655 101.017C83.2065 101.017 92.3835 101.017 95.4425 101.017C103.151 101.017 110.86 101.017 118.568 101.017C122.509 101.017 128.077 101.837 132.028 100.925C133.508 100.584 129.043 100.334 127.531 100.191C121.676 99.635 115.82 99.4434 109.942 99.365C108.247 99.3424 103.176 99.2404 104.864 99.0897C110.6 98.5775 116.432 98.7447 122.178 98.4473C127.591 98.1672 135.97 97.6243 141.388 96.7955C143.636 96.4516 145.888 96.0412 148.057 95.3577C150.6 94.5561 153.583 93.5863 149.709 91.3199C141.465 86.4972 131.106 85.2715 122.178 82.1735C114.713 79.5833 121.897 80.0934 124.105 80.0934C131.029 80.0934 137.952 80.0934 144.876 80.0934C145.457 80.0934 146.038 80.0934 146.619 80.0934C147.975 80.0934 143.907 80.0934 142.551 80.0934C136.718 80.0934 130.886 80.0934 125.053 80.0934C115.319 80.0934 133.517 80.0934 133.802 80.0934C146.877 80.0934 160.111 79.4848 173.171 80.1546C174.841 80.2403 175.204 80.414 173.11 80.644C166.026 81.4225 158.831 81.3649 151.728 81.9288C143.767 82.5608 135.458 83.1296 127.654 84.9878C122.629 86.1841 127.028 87.4961 129.642 88.1691C143.041 91.6187 157.258 93.3842 171.03 94.5318C173.564 94.743 181.059 94.1559 178.647 94.9601C176.909 95.5395 171.414 95.051 170.204 95.113C158.631 95.7065 146.954 97.2105 135.576 99.4262C127.762 100.948 151.481 100.18 159.436 100.466C163.116 100.599 173.983 100.292 170.449 101.323C164.723 102.993 157.92 101.965 152.034 102.149C150.18 102.207 151.317 102.295 152.401 102.455C154.329 102.739 156.718 102.796 158.519 103.648C160.319 104.499 154.605 104.49 152.615 104.565C144.654 104.865 136.686 104.852 128.724 105.116C124.768 105.247 120.53 105.449 116.549 105.728C115.743 105.784 114.936 105.851 114.133 105.942C113.036 106.066 113.014 106.098 114.163 106.37C125.888 109.141 137.855 111.268 149.648 113.773C151.173 114.097 165.496 115.87 156.867 118.269C151.11 119.87 133.029 119.602 139.002 119.738C149.837 119.984 160.583 120.921 171.336 122.307C178.985 123.294 186.616 124.5 194.186 125.978C194.933 126.124 201.107 126.94 196.113 127.691C183.146 129.642 169.444 128.548 156.377 128.548C151.646 128.548 146.915 128.548 142.184 128.548C140.675 128.548 145.202 128.541 146.711 128.548C152.948 128.576 161.264 127.134 166.472 131.301" stroke="#F9F9F9" stroke-width="6.50218" stroke-linecap="round"/>
<path d="M230.054 18.8074C237.197 16.3346 245.046 15.3911 252.445 13.9742C255.197 13.4473 257.761 12.6588 260.521 12.8729C264.241 13.1615 268.025 13.2915 271.717 13.8518C273.692 14.1516 271.776 14.245 270.922 14.2801C268.199 14.392 260.835 14.3981 258.686 14.4024C250.63 14.4188 242.575 14.4024 234.52 14.4024C233.928 14.4024 232.154 14.3915 232.745 14.4024C234.006 14.4258 236.173 14.4538 237.273 14.5248C243.575 14.9314 249.635 16.3894 255.688 18.1344C260.717 19.5843 267.548 20.9344 271.717 24.3747C274.698 26.8345 262.727 26.5158 262.662 26.516C255.85 26.5372 249.016 26.2331 242.228 25.6595C236.96 25.2143 241.729 24.675 243.574 24.5582C252.031 24.023 260.66 24.4815 269.086 25.2312C273.027 25.5819 277.796 26.1901 281.75 26.8219C283.705 27.1342 285.832 27.084 287.562 28.0455C288.329 28.4715 285.924 28.7295 285.054 28.8408C282.218 29.2037 277.626 29.5139 274.959 29.6973C271.103 29.9626 266.112 30.2178 262.234 30.615C260.256 30.8176 257.928 30.431 256.361 31.6551C255.408 32.3996 258.761 32.0075 259.97 32.0222C263.559 32.0656 267.149 32.0137 270.738 32.0222C280.425 32.045 290.12 32.1195 299.798 32.5728C302.163 32.6835 309.043 33.2454 306.773 33.9187C298.115 36.4866 287.765 35.9099 278.875 36.1824C269.639 36.4654 260.399 36.4271 251.161 36.4271C249.201 36.4271 246.246 36.4271 250.059 36.4271C255.177 36.4271 260.252 36.4285 265.354 36.9165C273.823 37.7265 282.259 38.6481 290.744 39.3025C294.297 39.5766 304.935 39.9268 301.389 40.2814C294.805 40.9398 287.94 40.3492 281.322 40.7708C272.093 41.3589 263.25 43.0915 254.158 44.564C252.417 44.846 231.334 46.4934 231.705 49.0913C232.267 53.0231 242.102 55.1387 244.981 56.2493C245.202 56.3342 249.971 57.7968 247.979 58.5741C241.953 60.9259 235.127 62.2458 228.891 63.9273C223.165 65.4714 217.407 66.7705 211.608 67.9958C210.36 68.2595 208.405 68.5277 210.231 69.8006C212.993 71.7256 216.706 72.2804 219.898 73.0431C220.378 73.1578 229.985 74.9627 224.456 75.7044C218.617 76.4876 212.489 76.0715 206.622 76.0715C203.94 76.0715 201.258 76.0715 198.577 76.0715C197.381 76.0715 198.971 76.0681 200.81 76.1632C209.096 76.5918 217.36 77.4584 225.587 78.5186C228.259 78.8629 235.517 78.7837 237.915 80.7823C239.709 82.277 234.08 83.5833 231.858 84.3001C226.903 85.8985 221.853 86.6394 216.716 87.3285C212.503 87.8937 214.578 88.6622 217.634 89.7757C224.973 92.4501 232.471 94.7564 239.934 97.0561C244.601 98.4942 243.662 98.1856 247.551 99.2891C248.145 99.4576 249.83 99.7453 249.264 99.9927C245.556 101.615 238.185 100.473 234.367 100.757C225.249 101.437 216.125 102.682 207.172 104.551C205.684 104.861 202.687 105.137 204.97 106.722C211.286 111.108 218.889 114.471 225.649 118.132C228.281 119.558 229.743 120.302 232.378 121.528C233.238 121.928 235.687 122.705 234.795 123.027C232.28 123.935 229.455 123.368 226.78 123.394C222.564 123.434 216.946 123.424 212.709 123.424C211.25 123.424 206.249 123.408 204.266 123.455C203.465 123.474 201.313 123.194 201.88 123.761C202.834 124.714 204.503 124.393 205.826 124.648C209.282 125.315 210.798 125.56 214.239 126.575C218.745 127.904 223.219 129.704 227.423 131.806C228.93 132.56 230.071 133.415 227.943 134.437C223.282 136.674 216.965 136.101 211.975 136.364C211.363 136.396 199.175 136.581 207.172 138.597C217.723 141.256 229.049 141.321 239.812 142.543C251.498 143.87 263.316 145.313 274.837 147.743C277.288 148.26 278.63 148.493 275.296 148.692C272.527 148.857 259.541 149.042 258.655 149.059C244.023 149.336 229.393 149.712 214.759 149.823C209.973 149.86 207.947 149.854 203.624 149.854C201.393 149.854 202.359 149.834 204.297 149.946C213.989 150.505 223.676 151.334 233.357 152.057" stroke="#E9E9E9" stroke-width="6.50218" stroke-linecap="round"/>
<path d="M219.039 138.288C239.14 132.889 259.343 127.476 279.607 122.871" stroke="#E9E9E9" stroke-width="6.50218" stroke-linecap="round"/>
<path d="M208.579 120.122C223.588 120.122 238.598 120.183 253.607 120.122C257.084 120.108 260.563 120.126 264.038 120C269.676 119.794 266.194 119.335 262.661 118.684C243.135 115.087 223.15 113.154 203.99 107.764C202.425 107.323 199.779 107.411 199.524 105.806C199.468 105.457 200.083 105.356 200.411 105.225C202.199 104.51 204.897 104.138 206.621 103.909C218.472 102.334 230.603 102.419 242.533 102.625C244.549 102.659 249.013 102.799 251.343 102.93C253.176 103.034 247.673 103.053 245.837 103.053C234.746 103.053 223.504 103.589 212.433 102.808C209.601 102.608 205.889 101.637 210.903 100.3C220.991 97.6097 232.386 98.4174 242.717 98.2196C249.455 98.0905 247.571 98.1547 253.179 98.0972C253.79 98.0909 254.403 98.098 255.014 98.0666C256.185 98.0066 255.231 97.8477 254.525 97.6995C242.276 95.1313 230.042 92.779 217.878 89.7768C213.464 88.6874 205.908 86.7835 201.359 85.433C198.806 84.675 192.665 83.4545 190.622 81.1199C188.566 78.7695 204.252 77.4207 204.296 77.4185C213.7 76.9609 223.149 77.1738 232.561 77.1738C232.722 77.1738 237.736 77.229 238.74 77.082C240.423 76.8358 235.611 75.7166 233.968 75.2772C227.781 73.6224 221.405 72.2695 215.553 69.5875C213.765 68.7681 213.794 68.6654 214.635 67.2627" stroke="#E9E9E9" stroke-width="6.50218" stroke-linecap="round"/>
<path d="M249.326 61.2037C247.277 61.1084 241.843 60.8404 245.931 58.2059C247.482 57.2064 249.397 56.9824 250.917 56.0646C251.039 55.9907 251.022 55.6808 250.886 55.6364C247.532 54.541 243.915 54.5352 240.425 54.0151C222.763 51.3835 204.943 48.6533 187.535 44.6241C186.368 44.354 185.194 44.0799 184.078 43.6452C182.557 43.0524 182.294 42.5826 183.986 41.9627C189.121 40.0824 195.83 40.5102 201.117 40.4027C218.16 40.056 235.247 40.1523 252.293 40.3109C256.044 40.3458 259.779 40.4414 263.52 40.7086C263.877 40.7341 264.234 40.7664 264.59 40.8003C264.753 40.8158 264.264 40.8096 264.101 40.8003C260.117 40.5727 256.016 40.1628 252.14 39.1791C248.765 38.3223 252.528 38.2002 253.456 38.2002C257.098 38.2002 260.589 38.8275 264.193 39.1791" stroke="#E9E9E9" stroke-width="6.50218" stroke-linecap="round"/>
<path d="M233.908 54.0468C242.493 48.486 249.125 38.9471 254.954 30.6762C256.624 28.3061 256.483 26.5836 256.483 23.8547C256.483 20.2411 256.678 16.5718 256.453 12.9648C256.291 10.3769 255.702 10.7683 259.665 10.2728C272.254 8.69915 310.406 9.44692 297.719 9.44692C287.027 9.44692 276.63 8.6932 266.089 6.75502C257.19 5.11877 264.928 5.18876 268.597 5.04199" stroke="#E9E9E9" stroke-width="6.50218" stroke-linecap="round"/>
<path d="M277.406 18.8057C292.148 25.8188 310.714 26.9796 326.411 30.3686" stroke="#E9E9E9" stroke-width="4.74611" stroke-linecap="round"/>
<path d="M318.151 32.571C326.227 32.1806 334.302 31.8134 342.378 31.4697" stroke="#E9E9E9" stroke-width="6.50218" stroke-linecap="round"/>
<path d="M284.016 33.1221C307.194 36.5457 331.069 38.8954 353.393 46.3369" stroke="#E9E9E9" stroke-width="6.50218" stroke-linecap="round"/>
<path d="M325.312 49.0918L348.988 55.6992" stroke="#E9E9E9" stroke-width="6.50218" stroke-linecap="round"/>
<path d="M281.813 58.4521C298.879 63.5923 317.093 66.1215 334.55 69.5257C348.227 72.1927 361.933 74.6098 375.418 78.152C383.648 80.3135 374.136 79.3756 372.237 79.3756C364.12 79.3756 356.004 79.3756 347.887 79.3756C345.42 79.3756 342.952 79.3756 340.485 79.3756C339.547 79.3756 336.831 78.956 337.67 79.3756C339.128 80.1043 340.895 79.8486 342.504 80.1097C346.501 80.7586 350.452 81.4516 354.434 82.1898C357.372 82.7347 366.027 84.2785 363.06 84.637C350.68 86.1326 337.514 84.8817 325.067 84.8817C319.009 84.8817 311.518 83.8068 305.49 84.9735C302.378 85.5759 311.354 87.3972 314.361 88.3996C325.35 92.0624 336.243 96.0536 346.847 100.727C355.632 104.599 365.605 108.789 372.329 115.961C377.657 121.645 370.673 125.948 365.079 126.606C362.642 126.893 360.426 126.445 358.349 127.83" stroke="#E9E9E9" stroke-width="4.74611" stroke-linecap="round"/>
<path d="M353.3 6.80859C370.365 11.9487 388.579 14.4779 406.037 17.8821C419.714 20.5491 433.419 22.9663 446.905 26.5084C455.134 28.67 445.622 27.732 443.723 27.732C435.607 27.732 427.49 27.732 419.374 27.732C416.906 27.732 414.439 27.732 411.971 27.732C411.033 27.732 408.318 27.3125 409.157 27.732C410.614 28.4608 412.381 28.2051 413.99 28.4662C417.987 29.115 421.938 29.808 425.92 30.5463C428.859 31.0911 437.514 32.635 434.546 32.9935C422.166 34.489 409.001 33.2382 396.554 33.2382C390.496 33.2382 383.004 32.1632 376.976 33.3299C373.864 33.9323 382.84 35.7536 385.847 36.756C396.836 40.4188 407.729 44.4101 418.334 49.0837C427.118 52.9554 437.092 57.1458 443.815 64.3174C449.144 70.0014 442.16 74.3045 436.565 74.9627C434.128 75.2494 431.912 74.8016 429.835 76.1863" stroke="#F9F9F9" stroke-width="2.37306" stroke-linecap="round"/>
<path d="M447.026 191.504C430.541 184.731 412.658 180.445 395.614 175.362C382.261 171.379 368.855 167.642 355.777 162.807C347.796 159.857 357.172 161.714 359.062 161.898C367.14 162.687 375.218 163.475 383.297 164.263C385.752 164.503 388.208 164.742 390.664 164.982C391.598 165.073 394.26 165.754 393.465 165.255C392.085 164.388 390.302 164.471 388.726 164.055C384.811 163.021 380.946 161.948 377.055 160.826C374.183 159.999 365.719 157.622 368.707 157.553C381.173 157.267 394.155 159.79 406.543 160.999C412.573 161.587 419.924 163.385 426.037 162.809C429.193 162.511 420.436 159.827 417.541 158.537C406.96 153.825 396.505 148.795 386.405 143.113C378.038 138.407 368.519 133.268 362.524 125.477C357.772 119.302 365.141 115.698 370.773 115.586C373.227 115.537 375.388 116.198 377.59 115.022" stroke="#F9F9F9" stroke-width="2.37306" stroke-linecap="round"/>
<path d="M340.725 137.19C333.868 140.347 319.113 149.848 330.202 157.44C335.756 161.243 355.089 166.69 348.372 166.25C339.35 165.658 330.457 164.164 321.423 165.546C319.987 165.766 317.883 165.229 317.171 166.495C316.921 166.939 317.94 167.181 318.394 167.412C320.078 168.269 322.686 169.314 324.329 169.921C333.8 173.421 344.17 175.235 353.083 180.138C353.457 180.343 354.253 180.582 354.062 180.964C353.83 181.427 353.05 181.217 352.533 181.239C350.913 181.309 349.29 181.239 347.669 181.239C335.107 181.239 322.544 181.187 309.982 181.269C303.339 181.313 296.708 181.461 290.068 181.667C288.997 181.7 285.999 182.188 286.856 181.545C290.555 178.771 279.633 187.317 275.997 190.171C274.812 191.101 267.576 195.799 270.919 197.574C272.316 198.315 273.846 198.75 275.324 199.287C275.529 199.361 271.2 199.691 270.705 199.746C267.716 200.074 261.245 201.061 268.38 201.061C269.186 201.061 269.991 201.067 270.797 201.061C271.736 201.054 274.021 201.784 273.611 200.939C272.485 198.616 269.001 198.61 266.636 197.574C261.079 195.139 252.272 191.441 246.875 188.825C245.948 188.375 231.087 182.077 237.943 178.486C240.282 177.261 230.809 174.526 229.378 173.989C222.658 171.469 232.658 173.494 234.364 173.714C243.339 174.868 270.129 179.195 261.13 178.241C246.681 176.709 231.952 177.385 217.448 177.385C212.717 177.385 207.986 177.385 203.254 177.385C202.887 177.385 202.52 177.385 202.153 177.385C201.908 177.385 202.643 177.385 202.887 177.385C205.498 177.385 208.108 177.385 210.718 177.385C229.074 177.385 247.499 176.948 265.841 177.752C269.436 177.909 276.297 177.565 279.851 179.342C281.041 179.937 277.32 180.242 275.997 180.382C273.255 180.673 263.874 181.359 261.497 181.422C249.502 181.743 237.56 180.466 225.707 178.73C215.763 177.274 204.117 176 194.812 171.634C191.696 170.172 191.986 168.418 194.628 166.8C202.298 162.104 212.545 160.858 221.241 159.673C233.921 157.946 246.727 157.562 259.509 157.562C260.81 157.562 256.919 157.315 255.624 157.195C244.354 156.152 233.143 154.695 221.975 152.852C219.266 152.404 211.125 152.099 208.516 150.098C206.815 148.794 212.208 147.818 214.267 147.223C220.419 145.445 239.667 144.348 233.263 144.348C225.175 144.348 217.09 144.333 209.005 144.072C206.935 144.005 201.175 144.679 202.826 143.43C205.748 141.219 211.936 141.03 215.307 140.371C218.598 139.728 223.052 139.521 226.136 138.015C228.172 137.021 222.243 135.6 220.079 134.926C213.059 132.741 205.943 130.88 198.972 128.533C195.59 127.394 188.364 125.836 189.52 120.671C190.394 116.762 194.802 115.568 198.054 114.431C204.623 112.132 211.567 110.753 218.06 108.252C219.895 107.545 218.959 106.784 217.785 105.866C213.762 102.721 209.342 100.043 205.182 97.0863C202.908 95.4706 199.512 93.596 197.626 91.4272C196.358 89.9687 199.711 88.2705 200.318 87.8788C202.911 86.2047 205.521 85.0662 208.516 84.3304C209.57 84.0712 214.906 83.7407 215.246 82.1279C215.529 80.7806 211.881 78.5947 210.963 78.0289C207.649 75.985 208.621 74.957 212.34 73.5934C218.706 71.2591 225.59 70.6855 232.009 68.4849C233.578 67.947 228.871 67.3608 227.237 67.0777C215.108 64.9767 202.889 63.9328 190.651 62.734C186.897 62.3662 182.543 62.2079 178.874 61.021C177.924 60.7134 180.789 60.4082 181.78 60.2868C197.645 58.3456 213.275 56.9783 229.256 56.5243C231.819 56.4515 239.129 56.9704 236.903 55.6983C236.267 55.3348 237.105 54.4757 237.454 54.1688C242.97 49.3215 251.45 47.8096 258.255 45.9708C264.482 44.2881 272.302 43.4138 278.108 40.3729C278.595 40.1178 279.446 39.5989 279.178 39.1187C277.728 36.5141 273.708 36.6421 270.797 35.9985C252.003 31.8433 232.205 32.9503 213.563 28.2899C210.926 27.6305 218.687 27.1763 219.865 27.6475C221.413 28.2667 216.545 27.9864 214.878 28.0452C207.831 28.2935 200.761 28.1907 193.71 28.1675C192.507 28.1636 191.304 28.1694 190.101 28.1369C189.793 28.1286 188.881 28.1018 189.183 28.0452C189.967 27.8982 190.773 27.9097 191.569 27.8616C197.742 27.4891 203.927 27.305 210.106 27.0663C215.683 26.8509 221.273 26.6945 226.839 26.271C231.897 25.8861 224.153 26.244 223.841 26.271C221.312 26.4895 220.137 26.6948 218.274 28.0146C210.441 33.5627 201.519 37.4682 192.731 41.1988C183.373 45.1717 172.737 48.4487 164.038 53.8018C161.003 55.6693 171.167 53.5867 174.714 53.2512C175.987 53.1307 179.813 53.0364 178.538 52.9453C175.337 52.7166 171.814 52.9453 168.657 52.9453C161.122 52.9453 153.587 52.9453 146.051 52.9453C144.011 52.9453 135.18 51.625 133.081 53.0676C131.393 54.228 137.058 54.0656 139.077 54.4136C145.086 55.4495 151.111 56.3792 157.064 57.7173C163.154 59.0862 169.168 60.7696 175.02 62.9481C175.93 63.2868 178.778 64.3096 179.914 65.1812C180.753 65.824 179.914 66.0071 179.272 66.2212C172.317 68.5397 164.195 68.3625 156.941 68.3625C154.858 68.3625 165.622 68.5581 165.445 70.0144C165.404 70.3585 164.867 70.4319 164.528 70.5038C162.455 70.9436 156.455 71.137 155.29 71.2074C147.028 71.7059 138.815 72.5242 130.573 73.2569C127.435 73.5358 118.085 73.2695 121.151 73.991C127.029 75.374 133.195 75.9934 139.138 77.0806C140.608 77.3494 142.082 77.5967 143.543 77.9065C144.503 78.11 146.711 78.0576 146.296 78.9466C145.817 79.9743 140.889 80.3577 140.423 80.4149C136.399 80.909 132.357 80.972 128.309 81.0267C126.627 81.0494 121.735 80.9416 123.293 81.5773C125.451 82.4582 128.073 82.7432 130.298 83.3515C131.441 83.6643 140.087 85.4227 140.423 86.9917C140.538 87.5279 122.056 90.1033 119.928 90.3872" stroke="#F9F9F9" stroke-width="4.74611" stroke-linecap="round"/>
<path d="M74.4873 41.2522C70.0654 42.7723 65.4839 44.1044 61.2044 45.9924C56.7024 47.9786 70.6811 43.3015 75.2947 41.5908C76.0137 41.3242 78.0151 40.6163 77.2742 40.4188C73.3612 39.3753 68.0873 40.0395 64.1214 39.95C58.1683 39.8156 51.3578 40.3387 45.4992 38.9602C41.2498 37.9604 54.2278 39.3042 58.5738 39.7156C62.6559 40.1019 66.4942 40.5266 70.5285 41.1741C71.8225 41.3818 76.1893 42.1716 71.8828 42.1898C59.3222 42.2431 46.6702 41.2802 34.1697 40.1583C33.4804 40.0965 29.0986 39.6794 27.5282 39.4551C25.1449 39.1146 32.3416 39.6174 34.7427 39.7937C46.263 40.6394 57.7152 42.1494 69.2263 43.0754C73.3363 43.406 76.0785 43.5182 80.061 43.5963C80.28 43.6006 86.1326 43.5963 79.6964 43.5963C71.3099 43.5963 62.9234 43.5963 54.5369 43.5963C54.3459 43.5963 53.7729 43.5987 53.9639 43.5963C57.3118 43.5539 60.6509 43.4747 63.9912 43.2056C68.6296 42.8319 71.4057 42.4753 75.998 41.721C76.4187 41.6519 84.0352 40.887 84.8533 39.8458C85.6314 38.8555 82.449 39.0648 81.207 38.8561C72.6657 37.4206 64.0072 36.5845 55.3703 36.0172C45.434 35.3644 44.8246 35.5534 35.3938 35.1577C32.46 35.0346 24.6391 34.788 33.0758 33.8554C40.4234 33.0432 47.7822 32.9886 54.8234 30.5477C58.8715 29.1443 55.723 27.7446 52.896 26.1721C43.4305 20.907 32.7487 17.7107 22.0848 15.9885C21.7498 15.9345 12.7903 15.1802 14.7401 16.3271C17.0117 17.6634 22.1955 19.5327 23.96 20.1818C32.6455 23.3768 41.4717 26.1448 50.3176 28.8548C56.4638 30.7377 62.724 32.4007 68.8095 34.4805C72.3531 35.6916 61.3532 35.2501 57.6102 35.366C49.5652 35.6152 41.2289 35.0328 33.232 36.0953C29.8668 36.5424 33.6678 37.9733 34.7947 38.3873C38.5823 39.7786 37.4599 41.0043 33.4925 41.9815C31.2443 42.5352 28.7456 42.7994 26.4603 43.0233C24.2351 43.2413 20.101 42.8164 17.9957 43.9348C17.2856 44.3121 19.1373 45.156 19.897 45.4194C25.7558 47.4511 32.0114 48.4556 38.0764 49.6387C41.3354 50.2744 44.6139 50.8082 47.8693 51.4619C50.1934 51.9285 53.1262 52.5749 48.1819 53.1548C36.8201 54.4873 25.197 53.4035 13.9587 55.8895C13.134 56.0719 6.11263 57.5754 9.50503 59.4316C14.2502 62.028 19.6181 63.0789 24.5851 65.1094C28.5131 66.7152 18.5833 67.1898 18.5427 67.193C15.602 67.4294 13.3383 67.4583 10.4166 67.5056C9.07071 67.5274 5.45386 67.0226 6.40568 67.9744C7.11656 68.6853 10.2419 70.2294 10.4687 70.3445C15.2058 72.7479 20.0975 74.7819 24.9497 76.9339C28.9401 78.7036 35.6264 80.3008 31.8256 85.5548C27.0054 92.218 15.0582 99.6182 17.2404 109.438C18.0834 113.232 20.9494 115.542 23.8558 117.772C25.3345 118.907 25.5311 120.04 24.9497 121.835C24.0537 124.603 21.9732 126.002 20.0012 127.93C16.7584 131.101 27.4152 135.994 28.9607 136.837C33.038 139.061 35.7427 140.24 40.134 141.682C43.4813 142.781 47.4911 143.01 50.7343 144.39C54.9776 146.196 41.6295 145.927 37.0346 146.318C33.6008 146.61 28.6678 146.819 25.5748 148.61C24.5888 149.181 27.3444 150.232 28.4658 150.433C33.7624 151.384 39.291 151.379 44.6398 152.048C50.771 152.814 44.2449 152.351 41.879 152.49C36.0025 152.836 30.0942 153.483 24.3507 154.808C24.0328 154.882 23.1773 155.072 23.4652 155.225C25.0647 156.078 28.0299 156.322 29.6378 156.58C37.2173 157.791 44.8694 158.586 52.5054 159.34C55.8859 159.674 52.7001 160.776 51.2552 161.528C50.0849 162.138 48.1331 162.748 50.6301 163.351C57.4046 164.988 64.6187 165.218 71.5443 165.669C72.838 165.754 76.7005 165.698 75.425 165.93C71.3465 166.671 64.6903 165.72 60.8919 165.539C46.544 164.856 32.2241 163.654 17.8655 163.195C15.9736 163.134 15.0272 163.143 16.8497 163.143C19.2719 163.143 21.6941 163.143 24.1163 163.143C31.079 163.143 38.0417 163.143 45.0044 163.143C45.7786 163.143 52.1279 163.143 47.5828 163.143C43.1118 163.143 38.6407 163.143 34.1697 163.143C26.9764 163.143 62.6861 161.542 55.5787 160.434C47.7431 159.213 38.8637 160.291 30.9661 160.356C27.6366 160.384 23.6847 160.402 20.3137 160.643C19.1987 160.722 18.0747 160.781 16.98 161.007C16.3881 161.13 14.6881 161.613 16.1986 162.414C21.3554 165.148 67.071 170.293 67.0385 170.618C66.8983 172.019 42.1053 171.574 40.6288 171.581C37.8834 171.595 28.4982 171.596 25.4706 171.686C24.0039 171.729 16.2076 171.888 23.2828 173.196C35.7497 175.502 73.7513 175.323 61.1523 176.738C49.638 178.032 37.3435 177.327 25.8613 176.139C18.7974 175.409 -2.30881 173.152 4.79089 172.988C12.9034 172.8 21.0551 172.942 29.169 172.988C33.0124 173.01 37.6388 173.043 41.5144 173.3C42.8814 173.391 44.2453 173.537 45.6034 173.717C46.6924 173.862 49.2999 173.727 48.7549 174.681C47.949 176.091 45.6704 175.751 44.0668 176.009C38.1795 176.955 32.2305 177.081 26.3041 177.624C25.5709 177.691 16.1956 179.494 16.7195 179.655C24.8005 182.142 33.6548 182.74 41.9832 183.927C44.5276 184.289 46.9242 184.622 49.432 185.073C50.1557 185.203 52.17 185.728 51.4636 185.932C43.9473 188.104 35.0599 187.452 27.3459 187.521C26.3552 187.53 10.6245 187.265 20.1314 188.328C28.5977 189.275 37.0517 190.323 45.5513 190.933C48.5622 191.149 51.586 191.199 54.589 191.506C54.9768 191.546 56.03 191.485 55.7349 191.74C54.3476 192.938 52.092 192.158 50.2655 192.313C46.6685 192.62 43.5827 192.848 40.0037 193.355C38.7121 193.538 37.4226 193.749 36.1491 194.032C35.0906 194.267 33.1658 194.69 35.4198 194.918C42.2466 195.609 49.3455 194.98 56.2037 195.022C62.7334 195.062 43.1472 195.311 36.6179 195.387C36.5703 195.387 24.4464 195.512 22.7619 195.491C19.5417 195.451 29.1612 194.743 32.3726 194.501C46.3876 193.443 60.4854 192.901 74.4353 191.115C75.2585 191.01 77.6596 190.493 76.8314 190.438C69.7166 189.964 62.4081 190.334 55.2922 190.334C45.7337 190.334 36.1751 190.334 26.6166 190.334C18.8861 190.334 42.0685 189.794 49.7967 189.605C55.8621 189.456 59.9028 189.42 65.8925 189.396C68.1553 189.387 74.4622 188.549 76.9356 189.448C78.4026 189.982 73.8319 189.801 72.2735 189.891C62.5383 190.455 52.7678 190.54 43.025 190.073C35.9929 189.736 28.3028 189.063 21.3034 187.99C18.245 187.521 9.51397 185.676 12.5263 184.969C15.2694 184.325 25.1777 183.661 26.5124 183.562C36.0105 182.86 45.4819 182.435 55.0057 182.364C60.284 182.325 65.5626 182.364 70.841 182.364C71.9783 182.364 73.1156 182.364 74.2529 182.364C76.189 182.364 70.3809 182.364 68.4449 182.364C55.8688 182.364 43.2509 182.661 30.6796 182.26C29.5868 182.225 26.3954 181.975 27.4501 181.687C29.1969 181.209 35.3745 180.847 36.3054 180.801C48.6512 180.196 61.2749 180.026 73.6279 180.567C76.6676 180.7 76.0205 180.928 73.2372 181.192C65.3322 181.943 57.247 181.902 49.3279 181.479C43.9956 181.193 38.0773 180.636 32.8153 179.499C30.317 178.959 25.2221 177.853 23.2047 175.697C21.164 173.515 28.7124 173.178 31.6693 172.753C44.4301 170.922 57.3664 169.38 70.216 168.352C70.2274 168.351 89.8036 167.831 80.1391 167.831C65.7746 167.831 51.3825 167.445 37.243 164.653C36.2266 164.453 29.7609 162.966 28.0751 162.153C26.6664 161.474 27.0398 160.694 28.1793 159.965C36.8241 154.441 48.9952 153.962 58.8343 152.881C63.8637 152.328 65.8616 152.173 70.6066 151.475C71.7476 151.307 72.883 151.103 74.0185 150.902C74.7327 150.775 76.784 150.845 76.1542 150.485C75.3251 150.011 74.2441 150.504 73.2893 150.485C66.8544 150.36 60.4333 149.962 54.042 149.183C49.7419 148.658 46.4238 148.164 42.3478 147.099C39.7084 146.41 38.9188 145.858 41.9311 145.276C51.5623 143.415 61.4535 143.112 71.2317 143.01C74.2114 142.979 75.3846 142.984 78.0816 142.984M78.0816 142.984C81.4559 142.984 78.1798 142.984 78.0816 142.984ZM78.0816 142.984C74.9214 142.984 71.7613 142.984 68.6012 142.984C64.6479 142.984 76.5025 142.696 80.4517 142.515C83.6289 142.37 86.8075 142.255 89.9841 142.099C93.2358 141.938 83.4729 142.046 80.2173 142.046C74.9388 142.046 69.6603 142.046 64.3819 142.046C62.6976 142.046 61.0134 142.046 59.3291 142.046C58.6346 142.046 57.9401 142.046 57.2455 142.046C56.5597 142.046 58.6173 142.046 59.3031 142.046C71.9523 142.046 84.6015 142.046 97.2507 142.046C97.3334 142.046 108.989 142.046 101.053 142.046C90.5607 142.046 80.0561 142.2 69.5648 142.02C68.8798 142.009 66.8788 141.91 67.5333 141.708C71.8756 140.364 77.0906 140.15 81.5195 139.494C92.9292 137.803 104.366 136.129 115.743 134.233C121.9 133.207 103.257 134.215 97.0163 134.363C87.8055 134.581 60.2824 136.402 69.3825 134.962C81.8208 132.994 94.3626 131.905 106.705 129.31C108.259 128.984 110.405 129.413 111.315 128.112C111.457 127.91 110.832 127.993 110.586 127.982C109.007 127.913 107.425 128.001 105.846 127.982C105.795 127.981 103.713 128.017 103.241 127.774C102.889 127.592 103.646 127.09 103.241 126.862C101.539 125.905 98.8644 127.405 97.2507 126.367C96.5877 125.941 101.847 124.7 97.9279 124.7" stroke="#F9F9F9" stroke-width="6.50218" stroke-linecap="round"/>
<path d="M620.553 218.467C621.058 217.344 622.839 218.033 622.999 219.501L639.507 254.807C639.932 255.752 639.241 256.821 638.204 256.821H605.507C604.471 256.821 603.779 255.752 604.205 254.807C610.534 241.395 614.046 234.438 620.553 218.467Z" fill="#0A0A0A"/>
<path fill-rule="evenodd" clip-rule="evenodd" d="M609.93 252.425C609.72 252.897 610.983 253.5 611.5 253.5L633.128 253.429C633.645 253.429 633.991 252.897 633.781 252.425C633.781 252.425 622.5 228 622.508 227.042C622.516 226.083 621.454 226.476 621.203 227.042L609.93 252.425ZM621.855 230.851L612.78 251.286C619.503 251.106 623.68 251.206 630.931 251.286C626.857 241.468 625.151 237.15 621.855 230.851Z" fill="#79EC84"/>
<path fill-rule="evenodd" clip-rule="evenodd" d="M621.855 236.286C619.126 241.767 616.5 248.001 616.288 249.143C616.076 250.286 627.346 249.786 627.423 249.143C627.499 248.501 621.855 236.286 621.855 236.286ZM621.999 242.001C621.999 242.001 619.499 246.001 619.551 247C619.603 248 623.886 248.272 624.16 247C624.434 245.729 621.901 241.005 621.999 242.001Z" fill="#FF5454"/>
<path d="M15 204L14 216" stroke="#E9E9E9" stroke-width="6" stroke-linejoin="round"/>
<path d="M72.5537 204V216.5" stroke="#E9E9E9" stroke-width="6" stroke-linejoin="round"/>
<path d="M130.881 204L130.107 221" stroke="#E9E9E9" stroke-width="6" stroke-linejoin="round"/>
<path d="M188.435 204V216.5" stroke="#B9B9B9" stroke-width="6" stroke-linejoin="round"/>
<path d="M245.988 204V216.5" stroke="#B9B9B9" stroke-width="6" stroke-linejoin="round"/>
<path d="M303.542 204V216.5" stroke="#B9B9B9" stroke-width="6" stroke-linejoin="round"/>
<path d="M361.095 204L361.442 218" stroke="#909090" stroke-width="6" stroke-linejoin="round"/>
<path d="M418.996 204V216.5" stroke="#909090" stroke-width="6" stroke-linejoin="round"/>
<path d="M476.55 204V216.5" stroke="#0A0A0A" stroke-width="6" stroke-linejoin="round"/>
<path d="M534.104 204V216.5" stroke="#0A0A0A" stroke-width="6" stroke-linejoin="round"/>
<path d="M591.657 204L592.446 221" stroke="#0A0A0A" stroke-width="6" stroke-linejoin="round"/>
<path d="M650 204V216.5" stroke="#0A0A0A" stroke-width="6" stroke-linejoin="round"/>
</svg>
