<svg width="145" height="40" viewBox="0 0 145 40" fill="none" xmlns="http://www.w3.org/2000/svg">
<path fill-rule="evenodd" clip-rule="evenodd" d="M1.29787 33.5899C-0.204516 32.3737 -0.436467 30.1698 0.779798 28.6674L21.7393 2.77713L34.8037 24.2941L49.5471 1.63047L59.8266 23.8515L74.6259 2.52392L88.6347 24.5476L103.821 2.66283L117.063 22.1528L121.692 0.80418L143.481 28.7159C144.671 30.2396 144.4 32.4391 142.876 33.6285C141.352 34.818 139.153 34.547 137.964 33.0233L125.367 16.8877L120.445 39.5864L103.76 15.029L88.3811 37.1916L74.3724 15.1679L58.607 37.8877L48.5101 16.0614L34.5993 37.4452L20.9196 14.9147L6.22043 33.0719C5.00417 34.5743 2.80026 34.8062 1.29787 33.5899Z" fill="#FFC700"/>
</svg>
