<svg width="40" height="40" viewBox="0 0 40 40" fill="none" xmlns="http://www.w3.org/2000/svg">
<mask id="mask0_191_8042" style="mask-type:alpha" maskUnits="userSpaceOnUse" x="0" y="0" width="40" height="40">
<rect width="40" height="40" fill="#D9D9D9"/>
</mask>
<g mask="url(#mask0_191_8042)">
<path d="M9.59753 28.5693C11.2179 27.5045 12.8707 26.7012 14.5559 26.1595C16.2411 25.6179 18.0559 25.347 20.0003 25.347C21.9448 25.347 23.7804 25.6341 25.5073 26.2081C27.2341 26.7822 28.8753 27.5739 30.4309 28.5831C31.505 27.1757 32.2804 25.7896 32.7573 24.4246C33.2341 23.0596 33.4726 21.5847 33.4726 19.9998C33.4726 16.2267 32.171 13.038 29.5677 10.4338C26.9644 7.82964 23.7769 6.52755 20.0052 6.52755C16.2334 6.52755 13.0443 7.82964 10.4378 10.4338C7.83133 13.038 6.52808 16.2267 6.52808 19.9998C6.52808 21.5739 6.76444 23.0412 7.23716 24.4017C7.70988 25.7622 8.49667 27.1514 9.59753 28.5693ZM19.9952 21.7081C18.2827 21.7081 16.8509 21.1323 15.6995 19.9807C14.5482 18.8291 13.9725 17.4032 13.9725 15.703C13.9725 14.0027 14.5499 12.5716 15.7047 11.4095C16.8595 10.2475 18.2931 9.66646 20.0055 9.66646C21.7179 9.66646 23.1498 10.2492 24.3011 11.4147C25.4525 12.5801 26.0281 14.013 26.0281 15.7133C26.0281 17.4135 25.4507 18.8377 24.2959 19.9859C23.1412 21.134 21.7076 21.7081 19.9952 21.7081ZM19.9891 37.8331C17.5419 37.8331 15.2327 37.3675 13.0615 36.4364C10.8902 35.5052 8.99376 34.227 7.37203 32.6016C5.75031 30.9762 4.47737 29.0832 3.5532 26.9225C2.62906 24.7618 2.16699 22.4506 2.16699 19.989C2.16699 17.5273 2.63459 15.2146 3.56978 13.0509C4.50495 10.8872 5.78273 8.99978 7.40312 7.38867C9.02348 5.77756 10.9146 4.49978 13.0766 3.55534C15.2386 2.61089 17.5511 2.13867 20.0142 2.13867C22.4773 2.13867 24.7898 2.61089 26.9518 3.55534C29.1138 4.49978 31.0003 5.77756 32.6115 7.38867C34.2226 8.99978 35.5003 10.8878 36.4448 13.0528C37.3892 15.2177 37.8615 17.5309 37.8615 19.9924C37.8615 22.4539 37.3892 24.765 36.4448 26.9256C35.5003 29.0862 34.2226 30.9766 32.6115 32.597C31.0003 34.2174 29.1111 35.4952 26.9438 36.4303C24.7765 37.3655 22.4582 37.8331 19.9891 37.8331Z" fill="#1C1B1F"/>
<path d="M17.7713 17.7598C18.3091 18.2618 18.9465 18.4988 19.5934 18.8101C19.9024 18.9588 20.2622 19.2256 20.6311 19.1138C20.8555 19.0458 21.0382 18.8989 21.2384 18.7848C21.5298 18.6187 21.8557 18.5326 22.1558 18.3862C22.2856 18.3229 22.4265 18.179 22.4437 18.0414C22.4552 17.9498 22.5412 17.7749 22.4026 17.9465C22.2453 18.1412 22.0864 18.3027 21.9028 18.4716C21.7017 18.6566 21.5699 18.8338 21.289 18.886C20.8526 18.9672 20.4039 18.9556 19.9604 18.9556C19.6246 18.9556 19.3665 18.6829 19.0715 18.5539C18.7717 18.4227 18.4919 18.2533 18.1857 18.1363C18.1142 18.1089 17.9939 18.0808 17.9421 18.0161C17.8892 17.9499 17.7965 17.8052 17.7745 17.7282C17.6934 17.4443 17.8062 17.7237 18.0149 17.8579C18.4266 18.1226 18.8419 18.3784 19.2676 18.6203C19.6068 18.813 20.1108 19.2123 20.5172 19.2403C21.168 19.2852 21.9654 18.8964 22.4374 18.4716C22.6741 18.2585 22.7822 17.9563 22.7822 17.646" stroke="#FFBB54" stroke-width="2" stroke-linecap="round"/>
<path d="M18.9144 36.7852C18.9144 35.7913 18.9153 34.8002 18.9507 33.8072C18.9683 33.3166 18.9917 32.802 18.9507 32.3104C18.8959 31.6528 18.8683 31.006 18.774 30.351C18.7126 29.9237 18.6161 29.5121 18.4934 29.0985C18.4394 28.9163 18.4427 28.7016 18.3765 28.5294C18.3054 28.3446 18.2756 28.115 18.2569 27.9187C18.245 27.7935 18.166 27.6836 18.166 27.5705C18.166 27.4489 18.1588 27.3087 18.1088 27.1963C18.0589 27.0841 18.1069 26.9496 18.049 26.8455C17.9418 26.6524 17.3222 26.9019 17.1369 26.9156C16.7505 26.9442 16.4665 27.0637 16.1286 27.2326C15.6026 27.4957 15.0002 27.6294 14.4915 27.9239C14.1857 28.1009 13.8596 28.1501 13.569 28.3553C13.2054 28.6119 12.8027 28.8223 12.4438 29.0933C12.2326 29.2527 11.947 29.3537 11.7058 29.4623C11.3244 29.6339 10.9515 29.7737 10.5858 29.9794C10.3423 30.1164 9.97132 30.2508 9.77241 30.4497C9.5262 30.696 9.51288 30.852 9.72564 31.1774C10.6309 32.5619 12.1734 33.5988 13.582 34.3893C13.8206 34.5231 14.0675 34.6568 14.32 34.7635C14.5499 34.8606 14.8271 34.9081 15.032 35.0545C15.1905 35.1677 15.368 35.1803 15.5284 35.317C16.0546 35.7653 16.5974 36.1854 17.2668 36.4006C17.8202 36.5784 18.3984 36.5977 18.9611 36.7384" stroke="#FFBB54" stroke-width="2" stroke-linecap="round"/>
<path d="M21.628 36.7389C21.628 36.4877 21.628 36.2365 21.628 35.9853C21.628 35.5939 21.7467 35.2446 21.7658 34.8627C21.796 34.2578 21.7684 33.6443 21.7684 33.0385C21.7684 31.6882 21.8261 30.3384 21.5709 29.0054C21.467 28.4627 21.2976 27.9294 21.0953 27.4125C21.0241 27.2304 20.9721 27.0283 20.8355 26.8745C20.6228 26.6353 20.8358 26.729 20.9966 26.729C21.2096 26.729 21.4316 26.8423 21.6384 26.8849C21.995 26.9585 22.357 26.9883 22.7143 27.0668C23.1637 27.1657 23.6672 27.2641 24.0967 27.4307C24.6207 27.6338 25.18 27.7975 25.7365 27.8724C26.1194 27.924 26.4405 28.0631 26.7967 28.2024C27.7404 28.5717 28.6155 29.0597 29.4863 29.5719C29.7147 29.7063 29.9959 29.9522 30.1775 30.154C30.6641 30.6946 30.6556 31.3831 30.6556 32.0874C30.6556 32.5487 30.5208 32.9143 30.2581 33.2983C29.9407 33.7622 29.3786 33.9688 28.8548 34.1221C28.3606 34.2667 27.8825 34.4435 27.4022 34.6236C26.8924 34.8148 26.4053 35.0506 25.895 35.2317C25.3526 35.4242 24.8337 35.7693 24.2708 35.8944C24.0239 35.9492 23.7528 35.9997 23.5146 36.0841C23.2157 36.19 22.882 36.1749 22.5739 36.2816C22.357 36.3567 22.0823 36.5389 21.8619 36.5518C21.7009 36.5613 21.6481 36.6601 21.4877 36.6921" stroke="#FFBB54" stroke-width="2" stroke-linecap="round"/>
<path d="M19.4297 28.1787L19.6168 28.3658" stroke="#FFBB54" stroke-linecap="round"/>
<path d="M19.9902 30.4707V30.9385" stroke="#FFBB54" stroke-linecap="round"/>
<path d="M19.9902 33.5117C19.9902 33.6393 19.9983 33.7229 20.037 33.8391" stroke="#FFBB54" stroke-linecap="round"/>
<path d="M19.943 36.084C19.943 36.1775 19.9281 36.2562 19.9898 36.3179" stroke="#FFBB54" stroke-linecap="round"/>
<ellipse cx="18.017" cy="13.8191" rx="1.8077" ry="1.5" transform="rotate(-8.85325 18.017 13.8191)" fill="#FFBB54"/>
<ellipse cx="22.8893" cy="13.7405" rx="1.67908" ry="1.5" transform="rotate(8.85 22.8893 13.7405)" fill="#FFBB54"/>
</g>
</svg>
