<svg width="40" height="40" viewBox="0 0 40 40" fill="none" xmlns="http://www.w3.org/2000/svg">
<path fill-rule="evenodd" clip-rule="evenodd" d="M27.6731 1.40828C27.3373 1.27265 26.9624 1.26995 26.6247 1.40072C26.287 1.5315 26.0117 1.78594 25.8548 2.11235C24.4256 5.1307 22.1693 6.17433 20.5935 6.53785C13 6 6.57073 9.50813 3.92708 16.1738C0.953616 23.671 4.48679 32.1614 11.7356 36.0587C11.7638 36.0979 11.809 36.1438 11.8337 36.1814C12.0914 36.5751 12.0178 36.9149 12 37C11.9315 37.3286 12.0701 37.5524 12.2292 37.848C12.3883 38.1436 12.688 38.3762 13 38.5C13.312 38.6238 13.6164 38.6307 13.9349 38.5245C14.2533 38.4183 14.8247 38.2863 15 38C15.0453 37.9259 15 38 15.3625 37.581C15.4068 37.5704 15.4726 37.5692 15.5206 37.5599C23.4676 39.6835 31.8639 35.9257 34.8358 28.4325C37.4774 21.772 34.694 15.0037 29 10C28.1009 8.65597 27.4748 6.34403 28.5041 3.16307C28.613 2.8197 28.5878 2.44783 28.4336 2.12226C28.2795 1.7967 28.0077 1.5416 27.6731 1.40828Z" fill="#0A0A0A"/>
<path d="M21.5078 9.34301C19.4099 10.3741 17.304 11.1929 15.0966 11.9383C12.1546 12.9317 10.1192 14.5239 8.7755 17.4091C6.81956 21.6089 7.73976 25.6253 9.98458 29.483C10.7526 30.8029 11.4868 32.147 12.2822 33.4504C12.5597 33.9052 12.9455 34.865 13.4049 35.1627C13.4764 35.209 13.6078 35.1437 13.6409 35.0653C13.8872 34.4829 13.9078 32.5755 13.9109 32.3136C13.9438 29.5656 13.499 26.8025 13.6318 24.0595C13.753 21.5557 14.5269 19.5487 15.9636 17.5222C17.0865 15.9382 18.4744 14.576 19.6862 13.0646C20.3763 12.2038 20.9719 11.2793 21.6347 10.3992C22.246 9.58743 21.9068 10.483 21.7595 10.9835C21.1266 13.1332 20.4741 15.2757 19.8583 17.4306C18.7026 21.4747 17.604 25.548 16.2834 29.5426C15.8792 30.765 15.4011 31.9597 14.9267 33.1558C14.6642 33.8176 14.0074 35.1331 15.4397 34.1742C18.0812 32.4057 20.1434 29.8519 21.8046 27.18C23.6653 24.1874 25.3713 20.6432 25.6151 17.0587C25.7535 15.0241 25.1626 13.0259 24.0542 11.3461C23.7315 10.8569 22.5226 9.68577 23.0729 9.88723C24.6838 10.477 26.3921 12.6031 27.4342 13.7563C29.1479 15.6524 31.1022 17.8566 31.3777 20.5412C31.9357 25.98 28.1527 31.9351 23.1741 33.9692C21.6483 34.5925 19.893 34.9305 18.2638 35.1606C17.4113 35.281 16.5308 35.256 15.6851 35.4176C15.0827 35.5327 14.6823 35.8918 14.1882 36.1737" stroke="#74B8F6" stroke-width="2" stroke-linecap="round"/>
<path d="M22.6229 9.24752C22.7108 7.66872 25.7164 7.5541 25.9556 6.26617" stroke="#74B8F6" stroke-width="2" stroke-linecap="round"/>
<path d="M14.6252 34.6727C14.4737 35.0012 14.291 35.5901 13.9812 35.7942C13.9292 35.8284 14.1064 35.3865 14.1271 35.3488" stroke="#74B8F6" stroke-width="2" stroke-linecap="round"/>
</svg>
