<svg width="34" height="42" viewBox="0 0 34 42" fill="none" xmlns="http://www.w3.org/2000/svg">
<path d="M2.72333 29.8831C2.06803 33.1212 3.88674 36.1599 6.8405 36.7577C9.79427 37.3554 12.6881 35.2574 13.3409 32.0318C13.8802 29.3666 13.0576 28.9149 13.297 27.7317C13.3575 27.4328 13.4523 27.2576 13.7294 26.8858L14.0178 26.5164C14.93 25.3527 15.254 25.0423 16.0292 24.9658L17.0224 24.8686C18.6414 24.7295 19.6338 24.0489 20.5847 22.4003L26.6304 11.8263C28.5423 8.4795 28.3899 5.71325 26.2668 4.76506L11.3753 24.3222C10.6921 25.234 10.1842 25.3387 9.19203 25.1379C6.23826 24.5401 3.38115 26.6325 2.72333 29.8831ZM6.09654 30.5787C6.33345 29.408 7.41454 28.6415 8.45236 28.8515C9.52437 29.0685 10.1996 30.1904 9.96265 31.3611C9.73329 32.4944 8.67752 33.2531 7.60551 33.0362C6.56769 32.8261 5.86718 31.712 6.09654 30.5787Z" fill="black"/>
<path d="M31.2604 29.7364C30.4846 26.5354 27.5545 24.6429 24.6263 25.4439C23.6428 25.713 23.1317 25.6435 22.4161 24.78L6.82838 6.27608C4.74266 7.3697 4.69152 10.143 6.7234 13.3535L13.148 23.4966C14.158 25.0774 15.1741 25.6887 16.7961 25.7158L17.7915 25.7443C18.5686 25.7671 18.9036 26.0548 19.8571 27.154L20.1587 27.503C20.449 27.8552 20.55 28.0237 20.6214 28.318C20.9038 29.4831 20.0987 29.9911 20.7348 32.6157C21.5047 35.7921 24.4715 37.6876 27.3997 36.8866C30.3279 36.0856 32.0333 32.9251 31.2604 29.7364ZM27.9169 30.6641C28.1874 31.7801 27.5284 32.9412 26.4997 33.2226C25.4256 33.5165 24.3547 32.8286 24.0842 31.7125C23.8048 30.5597 24.4268 29.3956 25.5009 29.1018C26.5297 28.8204 27.6375 29.5112 27.9169 30.6641ZM16.9896 22.2366C17.1174 22.7639 16.8233 23.3413 16.3146 23.4805C15.7946 23.6227 15.2746 23.268 15.1468 22.7407C15.013 22.1887 15.3041 21.5991 15.8242 21.4569C16.3328 21.3177 16.8558 21.6846 16.9896 22.2366Z" fill="black"/>
<path d="M16.9896 22.2366C17.1174 22.7639 16.8233 23.3413 16.3146 23.4805C15.7946 23.6227 15.2746 23.268 15.1468 22.7407C15.013 22.1887 15.3041 21.5991 15.8242 21.4569C16.3328 21.3177 16.8558 21.6846 16.9896 22.2366Z" fill="white"/>
</svg>
