<svg width="1440" height="1570" viewBox="0 0 1440 1570" fill="none" xmlns="http://www.w3.org/2000/svg">
<g style="mix-blend-mode:multiply">
<path d="M1510.26 4.92932H-68.0171V1566.3H1510.26V4.92932Z" stroke="#DBDBDB" stroke-width="0.75" stroke-miterlimit="10"/>
<path d="M62.7798 4.92932V1566.3" stroke="#DBDBDB" stroke-width="0.75" stroke-miterlimit="10"/>
<path d="M128.801 4.92932V1566.3" stroke="#DBDBDB" stroke-width="0.75" stroke-miterlimit="10"/>
<path d="M194.822 4.92932V1566.3" stroke="#DBDBDB" stroke-width="0.75" stroke-miterlimit="10"/>
<path d="M260.843 4.92932V1566.3" stroke="#DBDBDB" stroke-width="0.75" stroke-miterlimit="10"/>
<path d="M325.619 4.92932V1566.3" stroke="#DBDBDB" stroke-width="0.75" stroke-miterlimit="10"/>
<path d="M391.64 4.92932V1566.3" stroke="#DBDBDB" stroke-width="0.75" stroke-miterlimit="10"/>
<path d="M457.661 4.92932V1566.3" stroke="#DBDBDB" stroke-width="0.75" stroke-miterlimit="10"/>
<path d="M523.682 4.92932V1566.3" stroke="#DBDBDB" stroke-width="0.75" stroke-miterlimit="10"/>
<path d="M589.703 4.92932V1566.3" stroke="#DBDBDB" stroke-width="0.75" stroke-miterlimit="10"/>
<path d="M654.479 4.92932V1566.3" stroke="#DBDBDB" stroke-width="0.75" stroke-miterlimit="10"/>
<path d="M720.5 4.92932V1566.3" stroke="#DBDBDB" stroke-width="0.75" stroke-miterlimit="10"/>
<path d="M786.521 4.92932V1566.3" stroke="#DBDBDB" stroke-width="0.75" stroke-miterlimit="10"/>
<path d="M852.543 4.92932V1566.3" stroke="#DBDBDB" stroke-width="0.75" stroke-miterlimit="10"/>
<path d="M918.563 4.92932V1566.3" stroke="#DBDBDB" stroke-width="0.75" stroke-miterlimit="10"/>
<path d="M983.339 4.92932V1566.3" stroke="#DBDBDB" stroke-width="0.75" stroke-miterlimit="10"/>
<path d="M1049.36 4.92932V1566.3" stroke="#DBDBDB" stroke-width="0.75" stroke-miterlimit="10"/>
<path d="M1115.38 4.92932V1566.3" stroke="#DBDBDB" stroke-width="0.75" stroke-miterlimit="10"/>
<path d="M1181.4 4.92932V1566.3" stroke="#DBDBDB" stroke-width="0.75" stroke-miterlimit="10"/>
<path d="M1247.42 4.92932V1566.3" stroke="#DBDBDB" stroke-width="0.75" stroke-miterlimit="10"/>
<path d="M1312.2 4.92932V1566.3" stroke="#DBDBDB" stroke-width="0.75" stroke-miterlimit="10"/>
<path d="M1378.22 4.92932V1566.3" stroke="#DBDBDB" stroke-width="0.75" stroke-miterlimit="10"/>
<path d="M-68.0171 1500.99H1510.26" stroke="#DBDBDB" stroke-width="0.75" stroke-miterlimit="10"/>
<path d="M-68.0171 1435.67H1510.26" stroke="#DBDBDB" stroke-width="0.75" stroke-miterlimit="10"/>
<path d="M-68.0171 1370.36H1510.26" stroke="#DBDBDB" stroke-width="0.75" stroke-miterlimit="10"/>
<path d="M-68.0171 1306.28H1510.26" stroke="#DBDBDB" stroke-width="0.75" stroke-miterlimit="10"/>
<path d="M-68.0171 1240.97H1510.26" stroke="#DBDBDB" stroke-width="0.75" stroke-miterlimit="10"/>
<path d="M-68.0171 1175.65H1510.26" stroke="#DBDBDB" stroke-width="0.75" stroke-miterlimit="10"/>
<path d="M-68.0171 1110.34H1510.26" stroke="#DBDBDB" stroke-width="0.75" stroke-miterlimit="10"/>
<path d="M-68.0171 1045.02H1510.26" stroke="#DBDBDB" stroke-width="0.75" stroke-miterlimit="10"/>
<path d="M-68.0171 980.942H1510.26" stroke="#DBDBDB" stroke-width="0.75" stroke-miterlimit="10"/>
<path d="M-68.0171 915.628H1510.26" stroke="#DBDBDB" stroke-width="0.75" stroke-miterlimit="10"/>
<path d="M-68.0171 850.314H1510.26" stroke="#DBDBDB" stroke-width="0.75" stroke-miterlimit="10"/>
<path d="M-68.0171 785H1510.26" stroke="#DBDBDB" stroke-width="0.75" stroke-miterlimit="10"/>
<path d="M-68.0171 719.686H1510.26" stroke="#DBDBDB" stroke-width="0.75" stroke-miterlimit="10"/>
<path d="M-68.0171 655.604H1510.26" stroke="#DBDBDB" stroke-width="0.75" stroke-miterlimit="10"/>
<path d="M-68.0171 590.29H1510.26" stroke="#DBDBDB" stroke-width="0.75" stroke-miterlimit="10"/>
<path d="M-68.0171 524.976H1510.26" stroke="#DBDBDB" stroke-width="0.75" stroke-miterlimit="10"/>
<path d="M-68.0171 459.662H1510.26" stroke="#DBDBDB" stroke-width="0.75" stroke-miterlimit="10"/>
<path d="M-68.0171 394.348H1510.26" stroke="#DBDBDB" stroke-width="0.75" stroke-miterlimit="10"/>
<path d="M-68.0171 330.267H1510.26" stroke="#DBDBDB" stroke-width="0.75" stroke-miterlimit="10"/>
<path d="M-68.0171 264.953H1510.26" stroke="#DBDBDB" stroke-width="0.75" stroke-miterlimit="10"/>
<path d="M-68.0171 199.639H1510.26" stroke="#DBDBDB" stroke-width="0.75" stroke-miterlimit="10"/>
<path d="M-68.0171 134.325H1510.26" stroke="#DBDBDB" stroke-width="0.75" stroke-miterlimit="10"/>
<path d="M-68.0171 70.2433H1510.26" stroke="#DBDBDB" stroke-width="0.75" stroke-miterlimit="10"/>
</g>
</svg>
