<svg width="37" height="37" viewBox="0 0 37 37" fill="none" xmlns="http://www.w3.org/2000/svg">
<path fill-rule="evenodd" clip-rule="evenodd" d="M7.2293 18.6072C5.74205 17.7747 4.0298 16.8162 2.11505 15.743C0.668305 14.933 0.276805 13.1712 0.697555 12.1205C1.12055 11.072 2.10605 10.2687 3.33455 9.96947C11.0588 8.09747 25.1753 4.67297 32.7151 2.84597C33.7456 2.59622 34.9606 2.71322 35.7166 3.37247C36.7066 4.23647 36.5176 5.57072 36.2318 6.47072C34.1371 13.0497 30.3548 24.9387 28.2083 31.682C27.8663 32.7552 27.0113 33.7227 25.8301 34.0917C24.0526 34.6295 22.6688 33.5225 21.9488 32.6067C20.5426 30.8157 19.2443 29.1575 18.1216 27.7175L11.1083 33.0117C10.3748 33.5652 9.39155 33.6552 8.5703 33.2457C7.7468 32.8362 7.2293 31.997 7.2293 31.079V18.6072V18.6072ZM14.5688 22.2207C14.8276 21.6582 15.2033 21.1542 15.6736 20.747C17.5838 19.091 22.9118 14.4672 26.4061 11.4365C26.5906 11.2767 26.6243 11.0045 26.4871 10.802C26.3476 10.6017 26.0821 10.5365 25.8661 10.6512C21.5213 12.9755 14.6521 16.6497 12.1456 17.993C11.5516 18.3102 11.1691 18.9155 11.1376 19.5882C11.0453 21.4872 10.8541 25.4697 10.7258 28.1607C10.7123 28.415 10.8811 28.64 11.1286 28.6985C11.3738 28.7592 11.6258 28.6355 11.7316 28.406C12.6676 26.3697 13.9366 23.6022 14.5688 22.2207Z" fill="black"/>
</svg>
