<svg width="36" height="36" viewBox="0 0 36 36" fill="none" xmlns="http://www.w3.org/2000/svg">
<path fill-rule="evenodd" clip-rule="evenodd" d="M6.72979 18.1327C5.24254 17.3002 3.53029 16.3417 1.61554 15.2685C0.168793 14.4585 -0.222707 12.6967 0.198043 11.646C0.621043 10.5975 1.60654 9.79423 2.83504 9.49498C10.5593 7.62298 24.6758 4.19848 32.2155 2.37148C33.246 2.12173 34.461 2.23873 35.217 2.89798C36.207 3.76198 36.018 5.09623 35.7323 5.99623C33.6375 12.5752 29.8553 24.4642 27.7088 31.2075C27.3668 32.2807 26.5118 33.2482 25.3305 33.6172C23.553 34.155 22.1693 33.048 21.4493 32.1322C20.043 30.3412 18.7448 28.683 17.622 27.243L10.6088 32.5372C9.87529 33.0907 8.89204 33.1807 8.07079 32.7712C7.24729 32.3617 6.72979 31.5225 6.72979 30.6045V18.1327V18.1327ZM14.0693 21.7462C14.328 21.1837 14.7038 20.6797 15.174 20.2725C17.0843 18.6165 22.4123 13.9927 25.9065 10.962C26.091 10.8022 26.1248 10.53 25.9875 10.3275C25.848 10.1272 25.5825 10.062 25.3665 10.1767C21.0218 12.501 14.1525 16.1752 11.646 17.5185C11.052 17.8357 10.6695 18.441 10.638 19.1137C10.5458 21.0127 10.3545 24.9952 10.2263 27.6862C10.2128 27.9405 10.3815 28.1655 10.629 28.224C10.8743 28.2847 11.1263 28.161 11.232 27.9315C12.168 25.8952 13.437 23.1277 14.0693 21.7462Z" fill="#DBDBDB"/>
</svg>
