<svg width="37" height="37" viewBox="0 0 37 37" fill="none" xmlns="http://www.w3.org/2000/svg">
<mask id="mask0_198_20921" style="mask-type:luminance" maskUnits="userSpaceOnUse" x="0" y="0" width="37" height="37">
<path d="M36.5 0.474609H0.5V36.4746H36.5V0.474609Z" fill="white"/>
</mask>
<g mask="url(#mask0_198_20921)">
<path fill-rule="evenodd" clip-rule="evenodd" d="M3.0306 3.00521C0.5 5.53581 0.5 9.60875 0.5 17.7546V19.1946C0.5 27.3405 0.5 31.4134 3.0306 33.944C5.5612 36.4746 9.63414 36.4746 17.78 36.4746H19.22C27.3659 36.4746 31.4388 36.4746 33.9694 33.944C36.5 31.4134 36.5 27.3405 36.5 19.1946V17.7546C36.5 9.60875 36.5 5.53581 33.9694 3.00521C31.4388 0.474609 27.3659 0.474609 19.22 0.474609H17.78C9.63414 0.474609 5.5612 0.474609 3.0306 3.00521ZM6.57507 11.4247C6.77005 20.7847 11.45 26.4097 19.655 26.4097H20.1201V21.0547C23.1351 21.3546 25.415 23.5597 26.3299 26.4097H30.5901C29.4201 22.1497 26.3449 19.7947 24.4249 18.8947C26.3449 17.7847 29.0449 15.0847 29.6899 11.4247H25.8198C24.9798 14.3947 22.4901 17.0947 20.1201 17.3496V11.4247H16.25V21.8046C13.85 21.2047 10.82 18.2947 10.685 11.4247H6.57507Z" fill="black"/>
</g>
</svg>
