<svg width="36" height="36" viewBox="0 0 36 36" fill="none" xmlns="http://www.w3.org/2000/svg">
<mask id="mask0_25_10673" style="mask-type:luminance" maskUnits="userSpaceOnUse" x="0" y="0" width="36" height="36">
<path d="M36 0H0V36H36V0Z" fill="white"/>
</mask>
<g mask="url(#mask0_25_10673)">
<path fill-rule="evenodd" clip-rule="evenodd" d="M2.5306 2.5306C0 5.0612 0 9.13414 0 17.28V18.72C0 26.8659 0 30.9388 2.5306 33.4694C5.0612 36 9.13414 36 17.28 36H18.72C26.8659 36 30.9388 36 33.4694 33.4694C36 30.9388 36 26.8659 36 18.72V17.28C36 9.13414 36 5.0612 33.4694 2.5306C30.9388 0 26.8659 0 18.72 0H17.28C9.13414 0 5.0612 0 2.5306 2.5306ZM6.07507 10.9501C6.27005 20.3101 10.95 25.935 19.155 25.935H19.6201V20.58C22.6351 20.88 24.915 23.0851 25.8299 25.935H30.0901C28.9201 21.6751 25.8449 19.32 23.9249 18.42C25.8449 17.3101 28.5449 14.6101 29.1899 10.9501H25.3198C24.4798 13.9201 21.9901 16.62 19.6201 16.875V10.9501H15.75V21.33C13.35 20.7301 10.32 17.8201 10.185 10.9501H6.07507Z" fill="#DBDBDB"/>
</g>
</svg>
