<svg width="817" height="250" viewBox="0 0 817 250" fill="none" xmlns="http://www.w3.org/2000/svg">
<path d="M0.333333 247C0.333333 245.527 1.52724 244.333 3 244.333C4.47276 244.333 5.66667 245.527 5.66667 247C5.66667 248.473 4.47276 249.667 3 249.667C1.52724 249.667 0.333333 248.473 0.333333 247ZM423.5 1.5L423.248 1.06821L423.51 0.915329L423.766 1.07686L423.5 1.5ZM420.833 247C420.833 245.527 422.027 244.333 423.5 244.333C424.973 244.333 426.167 245.527 426.167 247C426.167 248.473 424.973 249.667 423.5 249.667C422.027 249.667 420.833 248.473 420.833 247ZM810.833 247C810.833 245.527 812.027 244.333 813.5 244.333C814.973 244.333 816.167 245.527 816.167 247C816.167 248.473 814.973 249.667 813.5 249.667C812.027 249.667 810.833 248.473 810.833 247ZM2.7479 246.568L5.31193 245.071L5.81612 245.935L3.2521 247.432L2.7479 246.568ZM10.44 242.077L15.568 239.083L16.0722 239.947L10.9442 242.941L10.44 242.077ZM20.6961 236.09L25.8241 233.096L26.3283 233.959L21.2003 236.953L20.6961 236.09ZM30.9522 230.102L36.0802 227.108L36.5844 227.971L31.4564 230.965L30.9522 230.102ZM41.2083 224.114L46.3363 221.12L46.8405 221.984L41.7125 224.978L41.2083 224.114ZM51.4644 218.126L56.5924 215.132L57.0966 215.996L51.9686 218.99L51.4644 218.126ZM61.7205 212.138L66.8485 209.144L67.3527 210.008L62.2247 213.002L61.7205 212.138ZM71.9766 206.151L77.1046 203.157L77.6088 204.02L72.4808 207.014L71.9766 206.151ZM82.2327 200.163L87.3607 197.169L87.8649 198.032L82.7368 201.026L82.2327 200.163ZM92.4888 194.175L97.6168 191.181L98.121 192.045L92.993 195.039L92.4888 194.175ZM102.745 188.187L107.873 185.193L108.377 186.057L103.249 189.051L102.745 188.187ZM113.001 182.199L118.129 179.205L118.633 180.069L113.505 183.063L113.001 182.199ZM123.257 176.211L128.385 173.218L128.889 174.081L123.761 177.075L123.257 176.211ZM133.513 170.224L138.641 167.23L139.145 168.093L134.017 171.087L133.513 170.224ZM143.769 164.236L148.897 161.242L149.402 162.106L144.273 165.099L143.769 164.236ZM154.025 158.248L159.153 155.254L159.658 156.118L154.53 159.112L154.025 158.248ZM164.281 152.26L169.41 149.266L169.914 150.13L164.786 153.124L164.281 152.26ZM174.538 146.272L179.666 143.279L180.17 144.142L175.042 147.136L174.538 146.272ZM184.794 140.285L189.922 137.291L190.426 138.154L185.298 141.148L184.794 140.285ZM195.05 134.297L200.178 131.303L200.682 132.166L195.554 135.16L195.05 134.297ZM205.306 128.309L210.434 125.315L210.938 126.179L205.81 129.173L205.306 128.309ZM215.562 122.321L220.69 119.327L221.194 120.191L216.066 123.185L215.562 122.321ZM225.818 116.333L230.946 113.339L231.45 114.203L226.322 117.197L225.818 116.333ZM236.074 110.346L241.202 107.352L241.707 108.215L236.578 111.209L236.074 110.346ZM246.33 104.358L251.458 101.364L251.963 102.227L246.835 105.221L246.33 104.358ZM256.587 98.3699L261.715 95.376L262.219 96.2396L257.091 99.2335L256.587 98.3699ZM266.843 92.3821L271.971 89.3882L272.475 90.2518L267.347 93.2457L266.843 92.3821ZM277.099 86.3943L282.227 83.4004L282.731 84.264L277.603 87.2579L277.099 86.3943ZM287.355 80.4065L292.483 77.4126L292.987 78.2762L287.859 81.2701L287.355 80.4065ZM297.611 74.4187L302.739 71.4248L303.243 72.2884L298.115 75.2823L297.611 74.4187ZM307.867 68.4309L312.995 65.437L313.499 66.3006L308.371 69.2945L307.867 68.4309ZM318.123 62.4431L323.251 59.4491L323.755 60.3127L318.627 63.3067L318.123 62.4431ZM328.379 56.4552L333.507 53.4613L334.012 54.3249L328.883 57.3188L328.379 56.4552ZM338.635 50.4674L343.763 47.4735L344.268 48.3371L339.14 51.331L338.635 50.4674ZM348.891 44.4796L354.02 41.4857L354.524 42.3493L349.396 45.3432L348.891 44.4796ZM359.148 38.4918L364.276 35.4979L364.78 36.3615L359.652 39.3554L359.148 38.4918ZM369.404 32.504L374.532 29.5101L375.036 30.3737L369.908 33.3676L369.404 32.504ZM379.66 26.5162L384.788 23.5223L385.292 24.3859L380.164 27.3798L379.66 26.5162ZM389.916 20.5284L395.044 17.5345L395.548 18.3981L390.42 21.392L389.916 20.5284ZM400.172 14.5405L405.3 11.5466L405.804 12.4102L400.676 15.4041L400.172 14.5405ZM410.428 8.55273L415.556 5.55884L416.06 6.42242L410.932 9.41632L410.428 8.55273ZM420.684 2.56493L423.248 1.06821L423.752 1.93179L421.188 3.42851L420.684 2.56493ZM423 247V243.931H424V247H423ZM423 237.794V231.656H424V237.794H423ZM423 225.519V219.381H424V225.519H423ZM423 213.244V207.106H424V213.244H423ZM423 200.969V194.831H424V200.969H423ZM423 188.694V182.556H424V188.694H423ZM423 176.419V170.281H424V176.419H423ZM423 164.144V158.006H424V164.144H423ZM423 151.869V145.731H424V151.869H423ZM423 139.594V133.456H424V139.594H423ZM423 127.319V121.181H424V127.319H423ZM423 115.044V108.906H424V115.044H423ZM423 102.769V96.6313H424V102.769H423ZM423 90.4938V84.3563H424V90.4938H423ZM423 78.2188V72.0813H424V78.2188H423ZM423 65.9438V59.8063H424V65.9438H423ZM423 53.6688V47.5313H424V53.6688H423ZM423 41.3938V35.2563H424V41.3938H423ZM423 29.1188V22.9813H424V29.1188H423ZM423 16.8438V10.7063H424V16.8438H423ZM423 4.56883V1.5H424V4.56883H423ZM423.766 1.07686L426.332 2.69199L425.799 3.53827L423.234 1.92314L423.766 1.07686ZM431.464 5.92226L436.595 9.15251L436.063 9.99879L430.931 6.76854L431.464 5.92226ZM441.727 12.3828L446.858 15.613L446.326 16.4593L441.194 13.2291L441.727 12.3828ZM451.99 18.8433L457.122 22.0736L456.589 22.9198L451.457 19.6896L451.99 18.8433ZM462.253 25.3038L467.385 28.5341L466.852 29.3804L461.72 26.1501L462.253 25.3038ZM472.516 31.7644L477.648 34.9946L477.115 35.8409L471.984 32.6106L472.516 31.7644ZM482.78 38.2249L487.911 41.4551L487.378 42.3014L482.247 39.0712L482.78 38.2249ZM493.043 44.6854L498.174 47.9157L497.642 48.762L492.51 45.5317L493.043 44.6854ZM503.306 51.1459L508.437 54.3762L507.905 55.2225L502.773 51.9922L503.306 51.1459ZM513.569 57.6065L518.701 60.8367L518.168 61.683L513.036 58.4527L513.569 57.6065ZM523.832 64.067L528.964 67.2972L528.431 68.1435L523.299 64.9133L523.832 64.067ZM534.095 70.5275L539.227 73.7578L538.694 74.6041L533.563 71.3738L534.095 70.5275ZM544.358 76.988L549.49 80.2183L548.957 81.0646L543.826 77.8343L544.358 76.988ZM554.622 83.4486L559.753 86.6788L559.221 87.5251L554.089 84.2949L554.622 83.4486ZM564.885 89.9091L570.016 93.1394L569.484 93.9857L564.352 90.7554L564.885 89.9091ZM575.148 96.3696L580.28 99.5999L579.747 100.446L574.615 97.2159L575.148 96.3696ZM585.411 102.83L590.543 106.06L590.01 106.907L584.878 103.676L585.411 102.83ZM595.674 109.291L600.806 112.521L600.273 113.367L595.142 110.137L595.674 109.291ZM605.938 115.751L611.069 118.982L610.536 119.828L605.405 116.598L605.938 115.751ZM616.201 122.212L621.332 125.442L620.799 126.288L615.668 123.058L616.201 122.212ZM626.464 128.672L631.595 131.903L631.063 132.749L625.931 129.519L626.464 128.672ZM636.727 135.133L641.859 138.363L641.326 139.209L636.194 135.979L636.727 135.133ZM646.99 141.593L652.122 144.824L651.589 145.67L646.457 142.44L646.99 141.593ZM657.253 148.054L662.385 151.284L661.852 152.13L656.721 148.9L657.253 148.054ZM667.516 154.514L672.648 157.745L672.115 158.591L666.984 155.361L667.516 154.514ZM677.78 160.975L682.911 164.205L682.378 165.051L677.247 161.821L677.78 160.975ZM688.043 167.435L693.174 170.666L692.642 171.512L687.51 168.282L688.043 167.435ZM698.306 173.896L703.437 177.126L702.905 177.972L697.773 174.742L698.306 173.896ZM708.569 180.356L713.701 183.587L713.168 184.433L708.036 181.203L708.569 180.356ZM718.832 186.817L723.964 190.047L723.431 190.894L718.299 187.663L718.832 186.817ZM729.095 193.277L734.227 196.508L733.694 197.354L728.563 194.124L729.095 193.277ZM739.358 199.738L744.49 202.968L743.957 203.815L738.826 200.584L739.358 199.738ZM749.622 206.199L754.753 209.429L754.22 210.275L749.089 207.045L749.622 206.199ZM759.885 212.659L765.016 215.889L764.484 216.736L759.352 213.505L759.885 212.659ZM770.148 219.12L775.279 222.35L774.747 223.196L769.615 219.966L770.148 219.12ZM780.411 225.58L785.543 228.81L785.01 229.657L779.878 226.426L780.411 225.58ZM790.674 232.041L795.806 235.271L795.273 236.117L790.141 232.887L790.674 232.041ZM800.937 238.501L806.069 241.731L805.536 242.578L800.405 239.347L800.937 238.501ZM811.2 244.962L813.766 246.577L813.234 247.423L810.668 245.808L811.2 244.962Z" fill="black"/>
</svg>
