<svg width="495" height="104" viewBox="0 0 495 104" fill="none" xmlns="http://www.w3.org/2000/svg">
<path d="M0.422689 26.8175C0.422689 28.2903 1.6166 29.4842 3.08936 29.4842C4.56211 29.4842 5.75602 28.2903 5.75602 26.8175C5.75602 25.3448 4.56211 24.1509 3.08936 24.1509C1.6166 24.1509 0.422689 25.3448 0.422689 26.8175ZM27.3386 18.2649L27.1708 17.7939L27.3386 18.2649ZM335.032 29.8361L335.186 29.3603L335.032 29.8361ZM489.533 101.175C489.533 102.648 490.727 103.842 492.2 103.842C493.672 103.842 494.866 102.648 494.866 101.175C494.866 99.7024 493.672 98.5085 492.2 98.5085C490.727 98.5085 489.533 99.7024 489.533 101.175ZM6.16565 25.7942C6.41547 25.6766 6.52261 25.3787 6.40494 25.1288C6.28728 24.879 5.98937 24.7719 5.73956 24.8896L6.16565 25.7942ZM11.7768 22.4915C11.5151 22.5796 11.3744 22.8632 11.4626 23.1249C11.5507 23.3866 11.8343 23.5273 12.096 23.4392L11.7768 22.4915ZM18.2376 21.5772C18.5032 21.5018 18.6574 21.2252 18.5819 20.9596C18.5064 20.694 18.2299 20.5398 17.9643 20.6153L18.2376 21.5772ZM24.1332 18.8085C23.8698 18.8914 23.7234 19.1721 23.8063 19.4355C23.8891 19.699 24.1698 19.8453 24.4332 19.7625L24.1332 18.8085ZM30.2311 17.7842C30.4924 17.6947 30.6316 17.4104 30.5421 17.1491C30.4527 16.8879 30.1683 16.7486 29.9071 16.8381L30.2311 17.7842ZM35.4102 15.0267C35.1469 15.1099 35.0009 15.3908 35.0841 15.6541C35.1674 15.9174 35.4483 16.0634 35.7116 15.9802L35.4102 15.0267ZM41.2346 14.3046C41.4997 14.2275 41.6521 13.95 41.575 13.6849C41.4979 13.4197 41.2204 13.2673 40.9552 13.3444L41.2346 14.3046ZM46.536 11.7886C46.2692 11.8598 46.1107 12.1338 46.1819 12.4006C46.2531 12.6674 46.5271 12.826 46.7939 12.7548L46.536 11.7886ZM52.3859 11.3267C52.6542 11.2612 52.8186 10.9907 52.7531 10.7224C52.6876 10.4542 52.4171 10.2898 52.1488 10.3552L52.3859 11.3267ZM57.7905 9.04001C57.5209 9.09996 57.351 9.36707 57.411 9.63663C57.4709 9.90619 57.738 10.0761 58.0076 10.0162L57.7905 9.04001ZM63.6547 8.81895C63.9254 8.76432 64.1006 8.50061 64.0459 8.22992C63.9913 7.95924 63.7276 7.78409 63.4569 7.83872L63.6547 8.81895ZM69.145 6.74668C68.8733 6.79622 68.6933 7.0566 68.7428 7.32827C68.7923 7.59993 69.0527 7.78 69.3244 7.73046L69.145 6.74668ZM75.0134 6.74598C75.2859 6.7013 75.4706 6.44418 75.4259 6.17168C75.3812 5.89917 75.1241 5.71448 74.8516 5.75915L75.0134 6.74598ZM80.5741 4.87118C80.3009 4.91123 80.1119 5.16519 80.1519 5.43841C80.192 5.71164 80.4459 5.90066 80.7192 5.86061L80.5741 4.87118ZM86.4394 5.06939C86.7133 5.03373 86.9064 4.78284 86.8707 4.50901C86.835 4.23518 86.5841 4.0421 86.3103 4.07776L86.4394 5.06939ZM92.0573 3.37389C91.783 3.40541 91.5861 3.65336 91.6177 3.92769C91.6492 4.20203 91.8971 4.39888 92.1715 4.36736L92.0573 3.37389ZM97.9138 3.74938C98.1886 3.72176 98.3889 3.47664 98.3613 3.20188C98.3337 2.92712 98.0886 2.72678 97.8138 2.75439L97.9138 3.74938ZM103.578 2.21416C103.303 2.23811 103.099 2.48055 103.123 2.75565C103.147 3.03075 103.39 3.23434 103.665 3.21038L103.578 2.21416ZM109.422 2.74534C109.698 2.72479 109.904 2.4849 109.884 2.20952C109.863 1.93414 109.623 1.72756 109.348 1.74811L109.422 2.74534ZM115.123 1.3511C114.847 1.36848 114.638 1.60597 114.655 1.88157C114.672 2.15716 114.91 2.36649 115.186 2.34912L115.123 1.3511ZM120.953 2.0167C121.229 2.00226 121.441 1.767 121.427 1.49124C121.412 1.21547 121.177 1.00363 120.901 1.01807L120.953 2.0167ZM126.682 0.743991C126.406 0.755743 126.192 0.988925 126.204 1.26482C126.216 1.54071 126.449 1.75484 126.725 1.74309L126.682 0.743991ZM132.499 1.52326C132.775 1.51397 132.991 1.2827 132.982 1.00671C132.972 0.730727 132.741 0.514534 132.465 0.523832L132.499 1.52326ZM138.249 0.352625C137.973 0.359706 137.755 0.589231 137.762 0.865282C137.769 1.14133 137.999 1.35938 138.275 1.3523L138.249 0.352625ZM144.053 1.22525C144.329 1.22015 144.548 0.992196 144.543 0.716101C144.538 0.440006 144.31 0.22032 144.034 0.225419L144.053 1.22525ZM149.819 0.137304C149.543 0.140654 149.322 0.367212 149.325 0.643334C149.329 0.919456 149.555 1.14058 149.831 1.13723L149.819 0.137304ZM155.611 1.08336C155.887 1.08152 156.109 0.856181 156.108 0.580045C156.106 0.303909 155.88 0.0815444 155.604 0.0833802L155.611 1.08336ZM161.39 0.0587561C161.113 0.0593097 160.89 0.283616 160.891 0.559758C160.891 0.835899 161.115 1.05931 161.392 1.05875L161.39 0.0587561ZM167.388 1.06605C167.664 1.06785 167.889 0.845458 167.891 0.569322C167.893 0.293186 167.671 0.0678711 167.394 0.0660682L167.388 1.06605ZM173.613 0.147282C173.337 0.141872 173.109 0.361301 173.103 0.637391C173.098 0.91348 173.317 1.14168 173.594 1.14709L173.613 0.147282ZM179.797 1.30921C180.073 1.31823 180.304 1.1018 180.313 0.825805C180.323 0.54981 180.106 0.318762 179.83 0.309744L179.797 1.30921ZM186.044 0.553407C185.768 0.540786 185.534 0.754179 185.522 1.03003C185.509 1.30589 185.723 1.53974 185.998 1.55236L186.044 0.553407ZM192.197 1.87644C192.473 1.89265 192.709 1.68232 192.725 1.40666C192.742 1.13099 192.531 0.894376 192.256 0.878163L192.197 1.87644ZM198.463 1.28369C198.187 1.2639 197.948 1.47114 197.928 1.74658C197.908 2.02201 198.116 2.26133 198.391 2.28112L198.463 1.28369ZM204.579 2.76589C204.854 2.78923 205.096 2.5851 205.12 2.30994C205.143 2.03479 204.939 1.79281 204.664 1.76947L204.579 2.76589ZM210.858 2.33489C210.583 2.30803 210.338 2.50905 210.311 2.78388C210.285 3.05871 210.486 3.30329 210.76 3.33015L210.858 2.33489ZM216.934 3.97315C217.208 4.0035 217.455 3.8056 217.486 3.53113C217.516 3.25666 217.318 3.00955 217.044 2.97921L216.934 3.97315ZM223.221 3.70155C222.947 3.66776 222.697 3.86254 222.663 4.13661C222.63 4.41067 222.824 4.66024 223.098 4.69403L223.221 3.70155ZM229.254 5.49181C229.527 5.529 229.779 5.33732 229.816 5.0637C229.854 4.79007 229.662 4.5381 229.388 4.50092L229.254 5.49181ZM235.546 5.37626C235.273 5.33573 235.018 5.5243 234.978 5.79745C234.937 6.07061 235.126 6.3249 235.399 6.36543L235.546 5.37626ZM241.534 7.31357C241.806 7.35739 242.063 7.17189 242.107 6.89924C242.15 6.6266 241.965 6.37006 241.692 6.32624L241.534 7.31357ZM247.827 7.34949C247.555 7.30245 247.296 7.4849 247.249 7.757C247.202 8.02911 247.384 8.28783 247.656 8.33487L247.827 7.34949ZM253.767 9.42788C254.038 9.47808 254.299 9.29864 254.349 9.0271C254.399 8.75556 254.22 8.49474 253.948 8.44454L253.767 9.42788ZM260.057 9.60987C259.786 9.55659 259.523 9.73305 259.47 10.004C259.417 10.275 259.593 10.5378 259.864 10.5911L260.057 9.60987ZM265.949 11.8228C266.219 11.8791 266.484 11.7056 266.54 11.4353C266.597 11.1649 266.423 10.9001 266.153 10.8438L265.949 11.8228ZM272.234 12.1446C271.964 12.0854 271.698 12.2561 271.638 12.5258C271.579 12.7955 271.75 13.0622 272.019 13.1214L272.234 12.1446ZM278.075 14.4848C278.344 14.5469 278.613 14.3791 278.675 14.11C278.737 13.8409 278.569 13.5725 278.3 13.5104L278.075 14.4848ZM284.352 14.9394C284.083 14.8745 283.813 15.0396 283.748 15.308C283.684 15.5764 283.849 15.8466 284.117 15.9114L284.352 14.9394ZM290.144 17.3993C290.412 17.4668 290.684 17.3045 290.751 17.0367C290.819 16.769 290.656 16.4972 290.389 16.4297L290.144 17.3993ZM296.411 17.9794C296.144 17.9093 295.87 18.0689 295.8 18.336C295.73 18.6031 295.89 18.8765 296.157 18.9466L296.411 17.9794ZM302.155 20.5513C302.421 20.6239 302.696 20.4668 302.769 20.2004C302.841 19.9339 302.684 19.6591 302.418 19.5865L302.155 20.5513ZM308.41 21.249C308.144 21.174 307.868 21.3286 307.793 21.5944C307.718 21.8601 307.872 22.1364 308.138 22.2114L308.41 21.249ZM314.106 23.9247C314.371 24.0021 314.649 23.8499 314.726 23.5848C314.804 23.3197 314.651 23.0421 314.386 22.9647L314.106 23.9247ZM320.347 24.7315C320.082 24.6519 319.803 24.8017 319.724 25.0661C319.644 25.3306 319.794 25.6094 320.058 25.689L320.347 24.7315ZM325.996 27.5027C326.26 27.5844 326.54 27.4368 326.622 27.173C326.704 26.9093 326.556 26.6292 326.292 26.5475L325.996 27.5027ZM332.223 28.4107C331.96 28.3269 331.679 28.4723 331.595 28.7355C331.511 28.9986 331.657 29.2798 331.92 29.3636L332.223 28.4107ZM337.821 31.2648C338.084 31.3502 338.366 31.2065 338.451 30.9439C338.537 30.6813 338.393 30.3992 338.13 30.3138L337.821 31.2648ZM344.009 32.2405C343.747 32.1539 343.464 32.2962 343.378 32.5584C343.291 32.8206 343.433 33.1034 343.696 33.19L344.009 32.2405ZM349.56 35.1447C349.821 35.2327 350.105 35.0919 350.193 34.8302C350.281 34.5684 350.14 34.2849 349.878 34.1969L349.56 35.1447ZM355.737 36.1852C355.476 36.0957 355.191 36.235 355.102 36.4962C355.012 36.7574 355.151 37.0418 355.413 37.1313L355.737 36.1852ZM361.255 39.1523C361.515 39.2434 361.8 39.1059 361.891 38.8452C361.983 38.5846 361.845 38.2994 361.584 38.2083L361.255 39.1523ZM367.42 40.2682C367.159 40.1754 366.873 40.3111 366.781 40.5711C366.688 40.8312 366.824 41.1173 367.084 41.2101L367.42 40.2682ZM372.898 43.3066C373.158 43.4012 373.445 43.2675 373.539 43.0081C373.634 42.7486 373.5 42.4617 373.241 42.3671L372.898 43.3066ZM379.047 44.5073C378.788 44.4108 378.5 44.5424 378.404 44.8011C378.307 45.0599 378.439 45.3478 378.698 45.4443L379.047 44.5073ZM384.48 47.6254C384.738 47.7239 385.027 47.5946 385.126 47.3366C385.224 47.0786 385.095 46.7896 384.837 46.6912L384.48 47.6254ZM390.609 48.9209C390.352 48.8203 390.062 48.9473 389.962 49.2045C389.861 49.4617 389.988 49.7517 390.245 49.8522L390.609 48.9209ZM395.991 52.127C396.247 52.2297 396.539 52.1052 396.641 51.8489C396.744 51.5926 396.62 51.3015 396.363 51.1988L395.991 52.127ZM402.098 53.5272C401.842 53.4221 401.55 53.544 401.445 53.7994C401.34 54.0548 401.462 54.347 401.717 54.452L402.098 53.5272ZM407.421 56.8292C407.676 56.9366 407.969 56.8175 408.077 56.5631C408.184 56.3087 408.065 56.0154 407.81 55.908L407.421 56.8292ZM413.5 58.3432C413.247 58.2333 412.953 58.3496 412.843 58.6029C412.733 58.8563 412.849 59.1507 413.102 59.2606L413.5 58.3432ZM418.759 61.7482C419.011 61.8606 419.307 61.7473 419.419 61.4951C419.532 61.2429 419.418 60.9473 419.166 60.8348L418.759 61.7482ZM424.806 63.3848C424.555 63.2697 424.258 63.3799 424.143 63.6309C424.028 63.8819 424.138 64.1787 424.389 64.2938L424.806 63.3848ZM429.992 66.8993C430.242 67.0171 430.54 66.9101 430.658 66.6603C430.775 66.4106 430.668 66.1126 430.419 65.9948L429.992 66.8993ZM436.002 68.6666C435.754 68.546 435.455 68.6497 435.334 68.8981C435.214 69.1465 435.317 69.4456 435.566 69.5662L436.002 68.6666ZM441.108 72.2961C441.355 72.4195 441.656 72.3193 441.779 72.0723C441.902 71.8253 441.802 71.525 441.555 71.4015L441.108 72.2961ZM447.076 74.2012C446.83 74.0748 446.529 74.1714 446.403 74.417C446.276 74.6625 446.373 74.964 446.618 75.0903L447.076 74.2012ZM452.095 77.9504C452.339 78.0798 452.641 77.9868 452.77 77.7428C452.9 77.4988 452.807 77.1962 452.563 77.0669L452.095 77.9504ZM458.015 79.9999C457.772 79.8675 457.468 79.9567 457.336 80.1991C457.204 80.4414 457.293 80.7452 457.535 80.8775L458.015 79.9999ZM462.939 83.8727C463.18 84.0081 463.484 83.9228 463.62 83.6821C463.755 83.4414 463.67 83.1366 463.429 83.0012L462.939 83.8727ZM468.806 86.0717C468.567 85.9332 468.261 86.0146 468.122 86.2535C467.984 86.4924 468.065 86.7984 468.304 86.9369L468.806 86.0717ZM473.628 90.0703C473.866 90.212 474.173 90.1346 474.314 89.8975C474.456 89.6605 474.378 89.3535 474.141 89.2119L473.628 90.0703ZM479.434 92.4218C479.199 92.277 478.891 92.3503 478.746 92.5854C478.601 92.8206 478.675 93.1286 478.91 93.2733L479.434 92.4218ZM484.148 96.5469C484.381 96.6949 484.69 96.6257 484.838 96.3926C484.986 96.1594 484.917 95.8504 484.684 95.7025L484.148 96.5469ZM489.889 99.0544C489.657 98.9033 489.348 98.9681 489.196 99.1993C489.045 99.4304 489.11 99.7403 489.341 99.8914L489.889 99.0544ZM3.33449 27.2533C4.28045 26.7212 5.22361 26.2379 6.16565 25.7942L5.73956 24.8896C4.77696 25.3429 3.81232 25.8372 2.84422 26.3818L3.33449 27.2533ZM12.096 23.4392C14.1258 22.7557 16.1653 22.1661 18.2376 21.5772L17.9643 20.6153C15.8916 21.2043 13.8316 21.7996 11.7768 22.4915L12.096 23.4392ZM24.4332 19.7625C25.4475 19.4434 26.4715 19.1045 27.5064 18.7359L27.1708 17.7939C26.1498 18.1575 25.1379 18.4925 24.1332 18.8085L24.4332 19.7625ZM27.5064 18.7359C28.4133 18.4129 29.3215 18.0957 30.2311 17.7842L29.9071 16.8381C28.9937 17.1509 28.0816 17.4695 27.1708 17.7939L27.5064 18.7359ZM35.7116 15.9802C37.5476 15.3998 39.3887 14.8416 41.2346 14.3046L40.9552 13.3444C39.1021 13.8835 37.2537 14.444 35.4102 15.0267L35.7116 15.9802ZM46.7939 12.7548C48.6535 12.2585 50.5176 11.7827 52.3859 11.3267L52.1488 10.3552C50.2737 10.8129 48.4026 11.2904 46.536 11.7886L46.7939 12.7548ZM58.0076 10.0162C59.8861 9.59841 61.7686 9.19962 63.6547 8.81895L63.4569 7.83872C61.5645 8.22065 59.6756 8.6208 57.7905 9.04001L58.0076 10.0162ZM69.3244 7.73046C71.2174 7.38527 73.1138 7.05739 75.0134 6.74598L74.8516 5.75915C72.9463 6.0715 71.044 6.4004 69.145 6.74668L69.3244 7.73046ZM80.7192 5.86061C82.6232 5.58152 84.5301 5.31806 86.4394 5.06939L86.3103 4.07776C84.3958 4.3271 82.4836 4.5913 80.5741 4.87118L80.7192 5.86061ZM92.1715 4.36736C94.0834 4.1477 95.9976 3.94198 97.9138 3.74938L97.8138 2.75439C95.8931 2.94745 93.9741 3.15368 92.0573 3.37389L92.1715 4.36736ZM103.665 3.21038C105.582 3.04338 107.502 2.88863 109.422 2.74534L109.348 1.74811C107.423 1.8917 105.5 2.04678 103.578 2.21416L103.665 3.21038ZM115.186 2.34912C117.107 2.22798 119.03 2.11745 120.953 2.0167L120.901 1.01807C118.974 1.119 117.048 1.22973 115.123 1.3511L115.186 2.34912ZM126.725 1.74309C128.649 1.66112 130.574 1.58812 132.499 1.52326L132.465 0.523832C130.537 0.588784 128.609 0.661896 126.682 0.743991L126.725 1.74309ZM138.275 1.3523C140.201 1.30289 142.127 1.26081 144.053 1.22525L144.034 0.225419C142.106 0.261026 140.178 0.303154 138.249 0.352625L138.275 1.3523ZM149.831 1.13723C151.759 1.11384 153.685 1.09616 155.611 1.08336L155.604 0.0833802C153.677 0.0961941 151.748 0.113893 149.819 0.137304L149.831 1.13723ZM161.392 1.05875C162.355 1.05682 163.318 1.05591 164.281 1.05591V0.0559082C163.318 0.0559082 162.354 0.0568229 161.39 0.0587561L161.392 1.05875ZM164.281 1.05591C165.318 1.05591 166.354 1.05929 167.388 1.06605L167.394 0.0660682C166.358 0.0593019 165.32 0.0559082 164.281 0.0559082V1.05591ZM173.594 1.14709C175.666 1.1877 177.734 1.2418 179.797 1.30921L179.83 0.309744C177.763 0.242194 175.69 0.187982 173.613 0.147282L173.594 1.14709ZM185.998 1.55236C188.069 1.64709 190.135 1.75518 192.197 1.87644L192.256 0.878163C190.189 0.756648 188.119 0.648337 186.044 0.553407L185.998 1.55236ZM198.391 2.28112C200.458 2.4296 202.52 2.59125 204.579 2.76589L204.664 1.76947C202.601 1.59447 200.534 1.43248 198.463 1.28369L198.391 2.28112ZM210.76 3.33015C212.822 3.53161 214.879 3.746 216.934 3.97315L217.044 2.97921C214.985 2.7516 212.923 2.53677 210.858 2.33489L210.76 3.33015ZM223.098 4.69403C225.153 4.94737 227.205 5.21335 229.254 5.49181L229.388 4.50092C227.335 4.22191 225.28 3.95539 223.221 3.70155L223.098 4.69403ZM235.399 6.36543C237.446 6.66921 239.491 6.98532 241.534 7.31357L241.692 6.32624C239.646 5.99735 237.597 5.68063 235.546 5.37626L235.399 6.36543ZM247.656 8.33487C249.695 8.6873 251.732 9.0517 253.767 9.42788L253.948 8.44454C251.91 8.06767 249.869 7.70259 247.827 7.34949L247.656 8.33487ZM259.864 10.5911C261.894 10.9902 263.922 11.4008 265.949 11.8228L266.153 10.8438C264.122 10.4211 262.09 10.0097 260.057 9.60987L259.864 10.5911ZM272.019 13.1214C274.039 13.5648 276.057 14.0193 278.075 14.4848L278.3 13.5104C276.279 13.0441 274.257 12.5888 272.234 12.1446L272.019 13.1214ZM284.117 15.9114C286.126 16.3968 288.135 16.8928 290.144 17.3993L290.389 16.4297C288.377 15.9223 286.364 15.4255 284.352 14.9394L284.117 15.9114ZM296.157 18.9466C298.156 19.4713 300.155 20.0063 302.155 20.5513L302.418 19.5865C300.415 19.0407 298.413 18.5049 296.411 17.9794L296.157 18.9466ZM308.138 22.2114C310.127 22.7728 312.116 23.344 314.106 23.9247L314.386 22.9647C312.393 22.3832 310.401 21.8112 308.41 21.249L308.138 22.2114ZM320.058 25.689C322.036 26.2844 324.016 26.889 325.996 27.5027L326.292 26.5475C324.309 25.933 322.327 25.3276 320.347 24.7315L320.058 25.689ZM331.92 29.3636C332.906 29.6775 333.892 29.9937 334.879 30.312L335.186 29.3603C334.198 29.0416 333.21 28.725 332.223 28.4107L331.92 29.3636ZM334.879 30.312C335.861 30.6287 336.842 30.9463 337.821 31.2648L338.13 30.3138C337.15 29.9951 336.168 29.6772 335.186 29.3603L334.879 30.312ZM343.696 33.19C345.655 33.8374 347.609 34.4888 349.56 35.1447L349.878 34.1969C347.926 33.5404 345.97 32.8884 344.009 32.2405L343.696 33.19ZM355.413 37.1313C357.364 37.7999 359.312 38.4735 361.255 39.1523L361.584 38.2083C359.64 37.5288 357.69 36.8545 355.737 36.1852L355.413 37.1313ZM367.084 41.2101C369.026 41.903 370.965 42.6017 372.898 43.3066L373.241 42.3671C371.305 41.6614 369.364 40.9619 367.42 40.2682L367.084 41.2101ZM378.698 45.4443C380.63 46.1646 382.557 46.8915 384.48 47.6254L384.837 46.6912C382.911 45.9563 380.981 45.2284 379.047 44.5073L378.698 45.4443ZM390.245 49.8522C392.165 50.6028 394.08 51.3609 395.991 52.127L396.363 51.1988C394.45 50.4317 392.532 49.6725 390.609 48.9209L390.245 49.8522ZM401.717 54.452C403.623 55.2359 405.524 56.0281 407.421 56.8292L407.81 55.908C405.91 55.1057 404.006 54.3122 402.098 53.5272L401.717 54.452ZM413.102 59.2606C414.992 60.0804 416.878 60.9094 418.759 61.7482L419.166 60.8348C417.282 59.9947 415.393 59.1643 413.5 58.3432L413.102 59.2606ZM424.389 64.2938C426.261 65.152 428.129 66.0204 429.992 66.8993L430.419 65.9948C428.552 65.1144 426.681 64.2445 424.806 63.3848L424.389 64.2938ZM435.566 69.5662C437.417 70.4651 439.265 71.3749 441.108 72.2961L441.555 71.4015C439.709 70.4787 437.858 69.5672 436.002 68.6666L435.566 69.5662ZM446.618 75.0903C448.448 76.0319 450.273 76.9851 452.095 77.9504L452.563 77.0669C450.738 76.0996 448.909 75.1445 447.076 74.2012L446.618 75.0903ZM457.535 80.8775C459.341 81.8634 461.142 82.8616 462.939 83.8727L463.429 83.0012C461.628 81.988 459.824 80.9877 458.015 79.9999L457.535 80.8775ZM468.304 86.9369C470.083 87.9681 471.858 89.0125 473.628 90.0703L474.141 89.2119C472.367 88.1517 470.588 87.1052 468.806 86.0717L468.304 86.9369ZM478.91 93.2733C480.66 94.3507 482.406 95.4417 484.148 96.5469L484.684 95.7025C482.938 94.5949 481.188 93.5015 479.434 92.4218L478.91 93.2733ZM489.341 99.8914C490.203 100.455 491.064 101.021 491.923 101.592L492.476 100.759C491.615 100.187 490.752 99.6188 489.889 99.0544L489.341 99.8914Z" fill="black"/>
</svg>
