<svg width="33" height="32" viewBox="0 0 33 32" fill="none" xmlns="http://www.w3.org/2000/svg">
<path fill-rule="evenodd" clip-rule="evenodd" d="M19.0435 0.906831C21.1468 0.321451 23.3902 0.1644 25.3112 0.356505C26.4321 0.468587 27.9026 0.729221 29.1929 1.38173C30.5171 2.05134 31.7829 3.21314 32.0994 5.11243C32.3259 6.47123 32.2899 7.82979 32.1396 9.1315C32.1947 9.2768 32.2487 9.42348 32.2985 9.5644C32.4076 9.87299 32.5289 10.2422 32.5921 10.5464C32.609 10.6279 32.6273 10.7303 32.6377 10.8417C32.6461 10.9318 32.6604 11.1301 32.6143 11.3624C32.5798 11.5365 32.4099 12.2185 31.6606 12.51C31.6212 12.5253 31.5822 12.5387 31.5438 12.5504C31.5209 12.659 31.4981 12.767 31.4754 12.8743C31.4635 12.9306 31.4516 12.9867 31.4397 13.0426C31.2832 13.7812 31.1351 14.4801 31.0149 15.1616C30.7228 16.8168 29.7716 18.4239 29.0766 19.5982C29.0065 19.7168 28.9389 19.8309 28.8749 19.9403C27.7193 21.9145 26.3461 23.3605 24.722 24.7883C23.2488 26.0834 21.629 27.2738 20.0778 28.4137C19.7346 28.6658 19.3949 28.9155 19.0608 29.1633C19.0655 29.1764 19.0702 29.1896 19.0747 29.2029C19.099 29.2735 19.1295 29.371 19.1524 29.4831C19.1709 29.5733 19.2093 29.7853 19.1755 30.0445C19.1418 30.3027 18.9838 30.9067 18.3348 31.2288C17.7681 31.5099 17.2578 31.3469 17.1063 31.2918C17.0934 31.2872 17.0807 31.2823 17.0681 31.2774C16.8696 31.3744 16.6464 31.4288 16.4106 31.4288C15.5822 31.4288 14.9106 30.7573 14.9106 29.9288C14.9106 29.8268 14.9161 29.728 14.9266 29.6323C14.4145 29.2315 13.8916 28.8373 13.3568 28.4343C13.0573 28.2085 12.754 27.9799 12.4469 27.7458C11.071 26.697 9.65345 25.5623 8.36934 24.1864C7.89229 23.6753 7.44812 23.2409 6.97916 22.7822C6.62561 22.4365 6.25796 22.0769 5.85152 21.6603C4.58239 20.3594 3.85082 18.7909 3.22265 17.4441C3.12566 17.2362 3.03114 17.0335 2.93749 16.8379C2.08322 15.054 1.50465 13.2692 1.48402 11.2407C1.38289 11.1258 1.27801 11.0029 1.17547 10.8753C0.82362 10.4375 0.312309 9.72562 0.196924 8.86023C-0.0998965 6.63408 1.09379 4.88745 2.61141 3.8757C3.03087 3.59606 3.43723 3.26745 3.88772 2.89307C3.94194 2.84802 3.9971 2.80203 4.05313 2.75532C4.44344 2.42993 4.87579 2.06949 5.3231 1.74467C6.37278 0.982442 7.68362 0.279301 9.40012 0.311687C10.2917 0.32851 11.0277 0.664992 11.5766 0.981962C11.8523 1.14122 12.1109 1.31389 12.3284 1.46038C12.3522 1.47641 12.3755 1.49209 12.3983 1.50744C12.5967 1.64122 12.7581 1.75002 12.9183 1.84754C13.0409 1.92214 13.1727 1.997 13.3327 2.08793C13.3757 2.11231 13.4206 2.13784 13.468 2.16483C13.6786 2.28491 13.9228 2.42623 14.1658 2.58368C14.3385 2.69562 14.5314 2.8285 14.7266 2.98506C16 1.99973 17.5204 1.33073 19.0435 0.906831ZM12.9059 5.37208C12.8179 5.29716 12.6972 5.20688 12.5342 5.10123C12.4828 5.06793 12.43 5.03482 12.3757 5.00159C12.3726 5.05491 12.3684 5.10942 12.363 5.16499C12.5908 5.37488 12.7327 5.61643 12.8206 5.82769C12.8368 5.69904 12.8603 5.57758 12.8808 5.48281C12.8885 5.4468 12.8969 5.40977 12.9059 5.37208ZM9.15219 15.339C9.15398 15.2215 9.15731 15.1039 9.16243 14.9863C9.18112 14.5563 9.20984 14.1279 9.24549 13.7023C9.21293 13.7639 9.17955 13.8252 9.14534 13.886C9.1139 13.9419 9.08356 13.9868 9.0821 13.989C9.07233 14.0036 9.06321 14.0169 9.05643 14.0267C9.04242 14.0469 9.0268 14.0689 9.01124 14.0906C8.97951 14.1349 8.93881 14.1906 8.89264 14.2527C8.80094 14.3761 8.67887 14.5366 8.55319 14.6928C8.53908 14.7103 8.52435 14.7285 8.50909 14.7472C8.5142 14.7519 8.51931 14.7566 8.52442 14.7613C8.73021 14.9498 8.94026 15.1423 9.15219 15.339ZM8.96795 5.58963C8.7805 5.81785 8.53695 6.07033 8.22038 6.39625L8.21703 6.3997C7.6829 6.94959 6.9304 7.72431 6.50607 8.81406C6.13606 9.76432 5.88945 10.7331 5.7389 11.7112C5.70971 11.6724 5.68032 11.6334 5.65075 11.5942C5.30171 11.1307 4.92736 10.6336 4.5396 10.164C4.54436 10.1224 4.54943 10.0808 4.55481 10.0389C4.702 8.89412 5.13467 8.10214 5.76391 7.47004C6.42666 6.80427 7.3667 6.2574 8.61398 5.73615C8.62135 5.73307 8.63145 5.72882 8.64407 5.7235C8.70344 5.69849 8.81857 5.65 8.96795 5.58963ZM6.18635 16.69C6.73254 17.838 7.21502 18.7619 7.99887 19.5653C8.29235 19.8662 8.62977 20.1976 8.98075 20.5423C9.51203 21.0641 10.0744 21.6165 10.5625 22.1395C11.3852 23.0209 12.2892 23.8062 13.2548 24.5747C13.2077 24.502 13.1588 24.4274 13.1077 24.3495L13.1036 24.3432C12.9927 24.1742 12.8672 23.9829 12.7548 23.7965C12.4031 23.2134 11.9073 22.6592 11.2904 22.0187C11.196 21.9206 11.0976 21.8195 10.9965 21.7156C10.4774 21.1821 9.88698 20.5753 9.38865 19.9293C8.59421 18.8995 7.67229 18.0539 6.64597 17.1125C6.49499 16.974 6.34176 16.8335 6.18635 16.69ZM17.6953 26.4411C17.9348 26.2643 18.1731 26.0893 18.4099 25.9152C19.919 24.8064 21.3726 23.7383 22.7413 22.5351C24.2276 21.2285 25.3495 20.0244 26.2859 18.4247C26.3393 18.3335 26.3924 18.243 26.4451 18.1532C27.2014 16.8649 27.8685 15.7285 28.0605 14.6402C28.1901 13.9058 28.3486 13.1582 28.5027 12.4309C28.5153 12.3714 28.5279 12.3121 28.5405 12.2529C28.6173 11.8899 28.6927 11.5312 28.7642 11.1752C28.4197 10.8395 28.101 10.489 27.809 10.1493C27.5592 9.85868 27.2911 9.52843 27.0305 9.20179C26.8602 9.50623 26.4028 10.1461 25.5131 10.175C25.5108 10.1751 25.5086 10.1752 25.5063 10.1752C25.5217 10.309 25.5352 10.4582 25.5405 10.6055C25.5451 10.7308 25.5457 10.8987 25.524 11.076C25.5092 11.1966 25.4599 11.5769 25.1966 11.9354C25.0563 12.1266 24.8299 12.3443 24.5003 12.4741C24.5364 12.7305 24.5613 12.9115 24.5658 12.9578C24.6714 14.0387 24.7037 15.1201 24.6764 16.1939C24.6765 16.199 24.6766 16.2118 24.6771 16.2365C24.6779 16.2775 24.679 16.3394 24.679 16.4079C24.6791 16.5264 24.6766 16.745 24.6425 16.9634C24.6269 17.0638 24.5908 17.2617 24.4937 17.4754C24.4219 17.6335 24.1294 18.2144 23.3971 18.3768C22.6465 18.5433 22.1264 18.121 21.9778 17.9859C21.8262 17.8481 21.7143 17.6976 21.637 17.5798V17.8651C21.637 18.0701 21.644 18.2392 21.6521 18.4366C21.659 18.6034 21.6667 18.7905 21.6718 19.0367C21.6809 19.4784 21.6752 20.026 21.572 20.5591C21.5474 20.6864 21.469 21.0197 21.1795 21.3244C20.8099 21.7136 20.3027 21.8454 19.8581 21.7791C19.5089 21.727 19.2723 21.5673 19.1831 21.5028C19.073 21.4232 18.9939 21.3442 18.9492 21.2969C18.7972 21.1359 18.6829 20.9494 18.6324 20.8665C18.4978 20.6452 18.3444 20.3519 18.2107 20.0859C18.1741 20.0131 18.1364 19.9372 18.0985 19.86C18.1239 20.097 18.1399 20.3041 18.1441 20.4778C18.1468 20.5896 18.1462 20.7382 18.126 20.893C18.116 20.9697 18.0958 21.0919 18.0489 21.2312C18.0098 21.3471 17.904 21.625 17.6378 21.8748C17.3013 22.1906 16.814 22.3576 16.308 22.2606C15.9081 22.1839 15.6531 21.9708 15.5546 21.8809C15.3501 21.6943 15.2336 21.4872 15.1971 21.4223C15.0951 21.2409 15.0095 21.0309 14.9476 20.8696C14.6892 20.1956 14.3738 19.1042 14.272 18.7477C13.8876 17.4023 13.5991 16.0776 13.3801 14.7599C13.3255 14.9749 13.2704 15.1909 13.2143 15.4078C13.0953 15.8685 13.0091 16.3453 12.9111 16.8875C12.8981 16.959 12.885 17.0316 12.8716 17.1054C12.7694 17.667 12.6504 18.2938 12.4694 18.9168C12.6703 19.1324 12.8842 19.3527 13.1117 19.587C13.2217 19.7002 13.3348 19.8167 13.4512 19.9376C14.0775 20.5878 14.7829 21.3505 15.3237 22.2471C15.4029 22.3784 15.4978 22.5236 15.6162 22.7041L15.6253 22.7179C15.736 22.8867 15.8646 23.0827 15.9882 23.2847C16.2302 23.6798 16.5318 24.2195 16.6801 24.8129C16.7199 24.9721 16.7475 25.0433 16.7661 25.0823C16.7797 25.1109 16.7984 25.1439 16.848 25.199C17.1883 25.5771 17.4708 26.0334 17.6953 26.4411ZM15.1452 20.5752C15.1452 20.5751 15.1452 20.574 15.1452 20.5718ZM16.1112 5.74188C16.171 5.73678 16.2332 5.735 16.298 5.73703C17.0277 5.75993 17.4024 6.26881 17.459 6.34569L17.4605 6.34779C17.5681 6.49366 17.6238 6.62565 17.6429 6.67213C17.6685 6.73427 17.6851 6.78644 17.6945 6.81756C17.7255 6.92066 17.7422 7.01563 17.7477 7.04699L17.7479 7.04846C17.7755 7.20558 17.8064 7.46566 17.8336 7.69902C17.8445 7.79288 17.8555 7.88848 17.8664 7.98384C17.9189 8.43978 17.9707 8.89032 18.0107 9.11966C18.1805 10.0942 18.392 11.0682 18.637 12.0394V8.78431C18.637 8.69264 18.639 8.58126 18.6492 8.47195C18.654 8.42031 18.6642 8.32847 18.6892 8.22197C18.6894 8.2209 18.6898 8.21934 18.6902 8.2173C18.7013 8.16713 18.7761 7.82894 19.0549 7.52567C19.2405 7.32376 19.5937 7.05885 20.1067 7.03897C20.5927 7.02013 20.9379 7.2339 21.1035 7.36537C21.3777 7.58292 21.5047 7.84435 21.528 7.89233C21.5289 7.89419 21.5297 7.89573 21.5303 7.89693C21.5612 7.95953 21.5865 8.02139 21.6067 8.07627C21.6884 8.01055 21.7852 7.94637 21.8977 7.89226C21.704 7.67577 21.5709 7.40081 21.5296 7.09113C21.5114 6.95437 21.4621 6.41521 21.445 5.93377C21.4369 5.70583 21.432 5.40122 21.4604 5.14236C21.4607 5.1399 21.461 5.13704 21.4614 5.13379C21.47 5.05216 21.5045 4.72714 21.6823 4.41293C21.7719 4.25451 22.0731 3.79151 22.7036 3.65917C22.7383 3.62113 22.7759 3.58359 22.8168 3.54695C22.9437 3.43325 23.0763 3.34871 23.2098 3.28758C22.1101 3.32583 20.9515 3.48982 19.8478 3.79698C18.3429 4.21582 17.0392 4.87215 16.1112 5.74188ZM24.5411 3.30373C24.6658 3.36252 24.7681 3.42943 24.8456 3.48718C24.8806 3.43631 24.92 3.38592 24.9644 3.33688C24.8255 3.32357 24.6843 3.31251 24.5411 3.30373ZM27.9623 4.12368C28.0849 4.26421 28.202 4.40069 28.2975 4.51276C28.362 4.58836 28.4174 4.65372 28.4583 4.70204C28.5069 4.75928 28.521 4.77583 28.5192 4.77376C28.6948 4.97377 28.8862 5.22712 29.0492 5.44294L29.0648 5.46353C29.0867 5.49254 29.1085 5.52141 29.1302 5.55014C29.0126 4.94735 28.6371 4.49282 27.9623 4.12368ZM18.7782 9.07404C18.7785 9.075 18.7788 9.07598 18.779 9.07698C18.7742 9.06214 18.7741 9.05958 18.7782 9.07404ZM24.1455 15.9342C24.1449 15.9334 24.1444 15.9325 24.1439 15.9316C24.1506 15.9416 24.1511 15.9434 24.1455 15.9342Z" fill="#FFC700"/>
</svg>
