<svg width="18" height="16" viewBox="0 0 18 16" fill="none" xmlns="http://www.w3.org/2000/svg">
<path d="M2.5811 9.0459C2.5811 10.7834 3.60438 11.708 4.83449 11.708C6.06461 11.708 7.08789 10.7834 7.08789 9.0459C7.08789 7.31861 6.06461 6.394 4.83449 6.394C3.60438 6.394 2.5811 7.31861 2.5811 9.0459ZM8.69902 9.0459C8.69902 11.332 7.18587 12.8663 4.83449 12.8663C2.48312 12.8663 0.969971 11.332 0.969971 9.0459C0.969971 6.75978 2.48312 5.23569 4.83449 5.23569C7.18587 5.23569 8.69902 6.75978 8.69902 9.0459ZM4.22488 4.88007L2.49401 3.73193H4.33374L5.455 4.88007H4.22488Z" fill="#FFC700"/>
<path d="M12.2408 11.4634C11.5159 11.083 11.0127 10.2643 11.0127 9.0459C11.0127 7.31861 12.036 6.394 13.2661 6.394C14.4963 6.394 15.5195 7.31861 15.5195 9.0459C15.5195 9.50531 15.448 9.9079 15.32 10.2516C15.8403 10.3699 16.3105 10.6275 16.6886 10.9827C16.976 10.431 17.1307 9.77688 17.1307 9.0459C17.1307 6.75978 15.6175 5.23569 13.2661 5.23569C10.9148 5.23569 9.40162 6.75978 9.40162 9.0459C9.40162 10.7969 10.2893 12.1068 11.7614 12.6241C11.8367 12.1999 12.0037 11.8059 12.2408 11.4634Z" fill="#FFC700"/>
<path d="M10.9257 3.73193L12.6565 4.88007H13.8866L12.7654 3.73193H10.9257Z" fill="#FFC700"/>
<path fill-rule="evenodd" clip-rule="evenodd" d="M17.1614 13.1703C17.1614 14.5083 16.0359 15.6241 14.7076 15.6241C13.3598 15.6241 12.2537 14.518 12.2537 13.1703C12.2537 11.8226 13.3598 10.7165 14.7076 10.7165C16.0504 10.7165 17.1614 11.8226 17.1614 13.1703ZM14.4085 14.407C14.4085 14.5857 14.5245 14.7065 14.708 14.7065C14.8867 14.7065 15.0027 14.5857 15.0027 14.407V13.4651H15.9446C16.1233 13.4651 16.2441 13.3492 16.2441 13.1704C16.2441 12.9869 16.1233 12.871 15.9446 12.871H15.0027V11.929C15.0027 11.7551 14.8867 11.6344 14.708 11.6344C14.5245 11.6344 14.4085 11.7551 14.4085 11.929V12.871H13.4666C13.2879 12.871 13.172 12.9869 13.172 13.1704C13.172 13.3492 13.2879 13.4651 13.4666 13.4651H14.4085V14.407Z" fill="#FFC700"/>
</svg>
