<svg width="28" height="28" viewBox="0 0 28 28" fill="none" xmlns="http://www.w3.org/2000/svg">
<g clip-path="url(#clip0_200_21802)">
<path d="M4.87012 23.228H24.8975C25.4131 23.228 25.835 22.8062 25.835 22.2905C25.835 21.7749 25.4131 21.3413 24.8975 21.3413H4.87012C4.35449 21.3413 3.93262 21.7749 3.93262 22.2905C3.93262 22.8062 4.35449 23.228 4.87012 23.228Z" fill="black"/>
<path d="M7.69445 23.5325L22.9523 8.3333C24.1827 7.11455 24.1944 5.47392 23.046 4.31377L22.6476 3.90361C21.5109 2.73174 19.8585 2.79033 18.628 3.98565L3.40538 19.1849L2.15148 22.0911C1.49523 23.6497 3.08898 25.2903 4.67101 24.681L7.69445 23.5325Z" fill="black"/>
<path d="M6.81595 22.1499L19.6128 9.37647L17.5503 7.31397L4.76517 20.0874L3.64017 22.7007C3.5347 22.9819 3.82767 23.3101 4.10892 23.1929L6.81595 22.1499ZM20.6323 8.36865L21.8159 7.2085C22.4253 6.61084 22.4605 5.96631 21.9097 5.42725L21.523 5.02881C20.9839 4.50147 20.3394 4.54834 19.7534 5.13428L18.5581 6.30615L20.6323 8.36865Z" fill="white"/>
</g>
<defs>
<clipPath id="clip0_200_21802">
<rect width="23.8351" height="21.8113" fill="white" transform="translate(2 3)"/>
</clipPath>
</defs>
</svg>
