<svg width="32" height="32" viewBox="0 0 32 32" fill="none" xmlns="http://www.w3.org/2000/svg">
<path d="M14.5723 21.7531C16.1973 21.7531 17.72 21.271 18.9873 20.4473L23.4636 24.8569C23.7599 25.1382 24.1381 25.2788 24.5469 25.2788C25.3951 25.2788 26.0185 24.6259 26.0185 23.8022C26.0185 23.4206 25.8857 23.0489 25.5995 22.7676L21.1539 18.3781C22.0737 17.0924 22.6153 15.5355 22.6153 13.848C22.6153 9.49867 18.9975 5.94287 14.5723 5.94287C10.1573 5.94287 6.5293 9.49867 6.5293 13.848C6.5293 18.1973 10.1471 21.7531 14.5723 21.7531ZM14.5723 19.6438C11.3326 19.6438 8.67546 17.0322 8.67546 13.848C8.67546 10.6639 11.3326 8.05225 14.5723 8.05225C17.812 8.05225 20.4692 10.6639 20.4692 13.848C20.4692 17.0322 17.812 19.6438 14.5723 19.6438Z" fill="#DBDBDB"/>
</svg>
