<svg width="28" height="28" viewBox="0 0 28 28" fill="none" xmlns="http://www.w3.org/2000/svg">
<path d="M14.0059 19.7305C14.2989 19.7305 14.5918 19.6133 14.7911 19.3906L23.8614 10.0977C24.0606 9.89844 24.1778 9.64062 24.1778 9.34766C24.1778 8.73828 23.7207 8.26953 23.1114 8.26953C22.8184 8.26953 22.5489 8.38672 22.3496 8.57422L13.373 17.75H14.627L5.65039 8.57422C5.46289 8.38672 5.19336 8.26953 4.88868 8.26953C4.2793 8.26953 3.82227 8.73828 3.82227 9.34766C3.82227 9.64062 3.93945 9.89844 4.13867 10.1094L13.209 19.3906C13.4316 19.6133 13.7012 19.7305 14.0059 19.7305Z" fill="black" fill-opacity="0.85"/>
</svg>
