<svg width="29" height="28" viewBox="0 0 29 28" fill="none" xmlns="http://www.w3.org/2000/svg">
<g clip-path="url(#clip0_184_10302)">
<path d="M5.37012 23.228H25.3975C25.9131 23.228 26.335 22.8062 26.335 22.2905C26.335 21.7749 25.9131 21.3413 25.3975 21.3413H5.37012C4.85449 21.3413 4.43262 21.7749 4.43262 22.2905C4.43262 22.8062 4.85449 23.228 5.37012 23.228Z" fill="#DBDBDB"/>
<path d="M8.19445 23.5325L23.4523 8.3333C24.6827 7.11455 24.6944 5.47392 23.546 4.31377L23.1476 3.90361C22.0109 2.73174 20.3585 2.79033 19.128 3.98565L3.90538 19.1849L2.65148 22.0911C1.99523 23.6497 3.58898 25.2903 5.17101 24.681L8.19445 23.5325Z" fill="#DBDBDB"/>
<path d="M7.31595 22.1499L20.1128 9.37647L18.0503 7.31397L5.26517 20.0874L4.14017 22.7007C4.0347 22.9819 4.32767 23.3101 4.60892 23.1929L7.31595 22.1499ZM21.1323 8.36865L22.3159 7.2085C22.9253 6.61084 22.9605 5.96631 22.4097 5.42725L22.023 5.02881C21.4839 4.50147 20.8394 4.54834 20.2534 5.13428L19.0581 6.30615L21.1323 8.36865Z" fill="black" fill-opacity="0.85"/>
</g>
<defs>
<clipPath id="clip0_184_10302">
<rect width="23.8351" height="21.8113" fill="white" transform="translate(2.5 3)"/>
</clipPath>
</defs>
</svg>
