<svg width="32" height="32" viewBox="0 0 32 32" fill="none" xmlns="http://www.w3.org/2000/svg">
<rect width="32" height="32" rx="16" fill="black"/>
<path d="M25.25 19C25.6642 19 26 19.3358 26 19.75C26 20.1642 25.6642 20.5 25.25 20.5H6.75C6.33579 20.5 6 20.1642 6 19.75C6 19.3358 6.33579 19 6.75 19H25.25ZM25.25 15C25.6642 15 26 15.3358 26 15.75C26 16.1642 25.6642 16.5 25.25 16.5H6.75C6.33579 16.5 6 16.1642 6 15.75C6 15.3358 6.33579 15 6.75 15H25.25ZM25.25 11C25.6642 11 26 11.3358 26 11.75C26 12.1642 25.6642 12.5 25.25 12.5H6.75C6.33579 12.5 6 12.1642 6 11.75C6 11.3358 6.33579 11 6.75 11H25.25Z" fill="#B8B8B8"/>
</svg>
